<svg id="Layer_1" data-name="Layer 1" xmlns="http://www.w3.org/2000/svg" viewBox="0 0 400 100"><defs><style>.cls-1{fill:#3c3c82;}.cls-2{fill:#ffb384;}.cls-3{fill:#478981;}.cls-4{fill:#5ba8a1;}.cls-5{fill:#3b5385;}.cls-10,.cls-13,.cls-17,.cls-6{fill:none;}.cls-7{fill:#f9a06e;}.cls-8{fill:#f0edeb;}.cls-9{fill:#7a4429;}.cls-10{stroke:#ef7f48;stroke-width:0.5px;}.cls-10,.cls-13,.cls-17{stroke-miterlimit:10;}.cls-11{fill:#fff;}.cls-12{fill:#f27a55;}.cls-13{stroke:#ffb384;stroke-linecap:round;stroke-width:10px;}.cls-14{opacity:0.42;isolation:isolate;}.cls-15{fill:#88eda0;}.cls-16{fill:#b4edc0;}.cls-17{stroke:#f0edeb;stroke-width:2px;}</style></defs><title>bent_balancelille</title><polygon class="cls-1" points="148.39 91.09 143.82 91.11 143.76 78.23 143.71 66 148.27 65.98 148.39 91.09"/><rect class="cls-2" x="17.65" y="38.63" width="26.81" height="9.82" rx="4.65" transform="matrix(0.82, -0.57, 0.57, 0.82, -19.29, 25.5)"/><path class="cls-3" d="M35.44,34.52c2.56-1.77,5.82-1.49,7.3.63l.3.43c1.47,2.12.59,5.28-2,7.05"/><ellipse class="cls-4" cx="49.31" cy="51.83" rx="13.13" ry="21.29"/><path class="cls-5" d="M60.7,62.46c0,5.86-5.09,10.61-11.37,10.61S38,68.32,38,62.46"/><rect class="cls-6" x="-1" y="0.2" width="100.49" height="100.49"/><rect class="cls-6" x="99.85" width="100.49" height="100.49"/><rect class="cls-6" x="200.44" y="0.1" width="100.49" height="100.49"/><path class="cls-7" d="M57.53,16.58a1.36,1.36,0,1,1,0,2.72h0"/><path class="cls-7" d="M41.67,16.57a1.35,1.35,0,0,0-1.35,1.36,1.36,1.36,0,0,0,1.36,1.36h0"/><rect class="cls-2" x="36.34" y="13.62" width="26.36" height="15.87" rx="7.94" transform="translate(27.33 70.8) rotate(-89.27)"/><path class="cls-8" d="M44.42,26.12h0c0-1.74,2.3-3.14,5.11-3.12h0c2.82,0,5.09,1.43,5.08,3.17h0"/><path class="cls-9" d="M52.89,28h0a3.12,3.12,0,0,1-3.4,2.77h0a3.12,3.12,0,0,1-3.36-2.82h0"/><rect class="cls-7" x="47.65" y="18.74" width="3.38" height="5.69" rx="1.39" transform="translate(-0.32 0.76) rotate(-0.88)"/><rect class="cls-8" x="55.4" y="11.59" width="3.38" height="5.69" rx="1.39" transform="translate(-0.21 0.87) rotate(-0.88)"/><path class="cls-10" d="M47.28,17.58a1.83,1.83,0,1,1-3.65-.13h0"/><path class="cls-10" d="M55.2,17.84a1.82,1.82,0,0,1-3.6-.59"/><rect class="cls-11" x="49.06" y="24.1" width="0.94" height="6.77" transform="translate(21.49 76.7) rotate(-89.36)"/><rect class="cls-8" x="39.68" y="11.56" width="3.38" height="5.69" rx="1.39"/><path class="cls-12" d="M50.6,30.61a4.34,4.34,0,0,1-1.24.14,4,4,0,0,1-1.29-.26c-.25-.06.69-.85,1.26-.86S50.84,30.55,50.6,30.61Z"/><path class="cls-13" d="M61,39.11C67.79,40,72.32,48,71.13,57"/><path class="cls-3" d="M61.85,44.46c-6-.58-7.14-5.74-5.06-8.53s7-2.63,11,.34"/><ellipse class="cls-14" cx="50.46" cy="92.52" rx="20.77" ry="2.13"/><polygon class="cls-5" points="55.05 91.02 50.48 91.02 50.48 78.14 50.48 65.91 55.05 65.91 55.05 91.02"/><polygon class="cls-5" points="47.55 91.02 42.98 91.02 42.98 78.14 42.98 65.91 47.55 65.91 47.55 91.02"/><path class="cls-15" d="M51.5,88.24h2.89a2.35,2.35,0,0,1,2.34,2.35v2.13H49.17V90.57a2.33,2.33,0,0,1,2.33-2.33Z"/><path class="cls-15" d="M43.46,88.24h2.89a2.35,2.35,0,0,1,2.35,2.35h0v2.13H41.13V90.57A2.33,2.33,0,0,1,43.46,88.24Z"/><rect class="cls-16" x="41.5" y="89.07" width="2.44" height="1.21" rx="0.61" transform="translate(-46.74 46.51) rotate(-38.77)"/><rect class="cls-16" x="49.84" y="89.13" width="2.44" height="1.21" rx="0.61" transform="translate(-44.94 51.74) rotate(-38.77)"/><rect class="cls-2" x="117.49" y="38.63" width="26.81" height="9.82" rx="4.65" transform="translate(-1.45 82.45) rotate(-34.78)"/><path class="cls-3" d="M135.28,34.52c2.55-1.77,5.82-1.49,7.29.63l.3.43c1.47,2.12.59,5.28-2,7.05"/><ellipse class="cls-4" cx="149.14" cy="51.83" rx="13.13" ry="21.29"/><path class="cls-5" d="M160.53,62.46c0,5.86-5.09,10.61-11.37,10.61s-11.37-4.75-11.37-10.61"/><path class="cls-7" d="M157.36,16.58a1.36,1.36,0,1,1,0,2.72h0"/><path class="cls-7" d="M141.5,16.57a1.36,1.36,0,0,0,0,2.72h0"/><rect class="cls-2" x="136.17" y="13.62" width="26.36" height="15.87" rx="7.94" transform="matrix(0.01, -1, 1, 0.01, 125.89, 170.62)"/><path class="cls-8" d="M144.25,26.12h0c0-1.74,2.3-3.14,5.11-3.12h0c2.82,0,5.09,1.43,5.08,3.17h0"/><path class="cls-9" d="M152.72,28h0a3.12,3.12,0,0,1-3.4,2.77h0A3.13,3.13,0,0,1,146,27.93h0"/><rect class="cls-7" x="147.49" y="18.74" width="3.38" height="5.69" rx="1.39" transform="translate(-0.31 2.28) rotate(-0.88)"/><rect class="cls-8" x="155.23" y="11.59" width="3.38" height="5.69" rx="1.39" transform="translate(-0.2 2.4) rotate(-0.88)"/><path class="cls-10" d="M147.11,17.58a1.83,1.83,0,0,1-3.65-.13h0"/><path class="cls-10" d="M155,17.84a1.82,1.82,0,0,1-3.6-.59"/><rect class="cls-11" x="148.89" y="24.1" width="0.94" height="6.77" transform="translate(120.21 176.53) rotate(-89.36)"/><rect class="cls-8" x="139.51" y="11.56" width="3.38" height="5.69" rx="1.39"/><path class="cls-12" d="M150.43,30.61a4.3,4.3,0,0,1-1.24.14,4,4,0,0,1-1.29-.26c-.25-.06.69-.85,1.26-.86S150.67,30.55,150.43,30.61Z"/><ellipse class="cls-14" cx="150.29" cy="92.52" rx="20.77" ry="2.13"/><polygon class="cls-5" points="151.61 89.69 147.11 88.91 149.32 76.22 151.43 64.17 155.92 64.95 151.61 89.69"/><path class="cls-15" d="M144.61,88.32h2.88a2.35,2.35,0,0,1,2.35,2.35V92.8h-7.56V90.65a2.33,2.33,0,0,1,2.33-2.33Z"/><path class="cls-14" d="M147.58,86.39l2.85.43a2.35,2.35,0,0,1,2,2.68l-.32,2.11h0l-7.47-1.15h0l.32-2.12a2.33,2.33,0,0,1,2.66-2Z"/><path class="cls-15" d="M147.62,86.07l2.86.44a2.35,2.35,0,0,1,2,2.68l-.32,2.1h0l-7.48-1.14h0L145,88a2.33,2.33,0,0,1,2.65-2Z"/><rect class="cls-16" x="145.61" y="86.78" width="2.44" height="1.21" rx="0.61" transform="translate(-24.03 85.3) rotate(-30.06)"/><rect class="cls-2" x="162.28" y="30.05" width="9.82" height="26.81" rx="4.65" transform="translate(36.12 155.98) rotate(-55.22)"/><path class="cls-3" d="M162.8,34.44c-2.55-1.77-5.82-1.49-7.29.63l-.3.43c-1.47,2.12-.59,5.28,2,7"/><polygon class="cls-1" points="349.14 91.09 344.58 91.11 344.52 78.23 344.47 66 349.03 65.98 349.14 91.09"/><rect class="cls-6" x="300.61" width="100.49" height="100.49"/><rect class="cls-2" x="316.98" y="35.95" width="26.81" height="9.82" rx="4.65" transform="translate(-0.01 81.63) rotate(-14.08)"/><path class="cls-3" d="M337.67,34c3-.76,6,.66,6.6,3.16l.13.51c.63,2.51-1.31,5.15-4.33,5.91"/><ellipse class="cls-4" cx="349.9" cy="51.83" rx="13.13" ry="21.29"/><path class="cls-5" d="M361.29,62.46c0,5.86-5.09,10.61-11.37,10.61s-11.37-4.75-11.37-10.61"/><path class="cls-7" d="M358.12,16.58a1.36,1.36,0,1,1,0,2.72h0"/><path class="cls-7" d="M342.26,16.57a1.36,1.36,0,0,0,0,2.72h0"/><rect class="cls-2" x="336.93" y="13.62" width="26.36" height="15.87" rx="7.94" transform="translate(324.1 371.37) rotate(-89.27)"/><path class="cls-8" d="M345,26.12h0c0-1.74,2.3-3.14,5.11-3.12h0c2.82,0,5.09,1.43,5.08,3.17h0"/><path class="cls-9" d="M353.48,28h0a3.12,3.12,0,0,1-3.4,2.77h0a3.13,3.13,0,0,1-3.36-2.82h0"/><rect class="cls-7" x="348.25" y="18.74" width="3.38" height="5.69" rx="1.39" transform="translate(-0.29 5.35) rotate(-0.88)"/><rect class="cls-8" x="355.99" y="11.59" width="3.38" height="5.69" rx="1.39" transform="translate(-0.18 5.47) rotate(-0.88)"/><path class="cls-10" d="M347.87,17.58a1.83,1.83,0,0,1-3.65-.12h0"/><path class="cls-10" d="M355.8,17.84a1.82,1.82,0,0,1-3.6-.59"/><rect class="cls-11" x="349.65" y="24.1" width="0.94" height="6.77" transform="translate(318.74 377.28) rotate(-89.36)"/><rect class="cls-8" x="340.27" y="11.56" width="3.38" height="5.69" rx="1.39"/><path class="cls-12" d="M351.19,30.61a4.3,4.3,0,0,1-1.24.14,4,4,0,0,1-1.29-.26c-.25-.06.69-.85,1.26-.86S351.43,30.55,351.19,30.61Z"/><ellipse class="cls-14" cx="351.05" cy="92.52" rx="20.77" ry="2.13"/><polygon class="cls-5" points="356.17 88.5 351.6 88.57 351.39 75.7 351.19 63.46 355.75 63.39 356.17 88.5"/><path class="cls-15" d="M345.36,88.32h2.89a2.35,2.35,0,0,1,2.35,2.35V92.8H343V90.65a2.32,2.32,0,0,1,2.32-2.33Z"/><path class="cls-14" d="M352.47,86.56h2.88a2.35,2.35,0,0,1,2.35,2.35V91h-7.56V88.89a2.33,2.33,0,0,1,2.33-2.33Z"/><path class="cls-15" d="M352.47,86.24h2.88a2.35,2.35,0,0,1,2.35,2.35v2.13h-7.56V88.57a2.33,2.33,0,0,1,2.33-2.33Z"/><path class="cls-16" d="M352.83,87h0a.61.61,0,0,1-.09.86l-1,.77a.61.61,0,0,1-.85-.1h0a.6.6,0,0,1,.09-.85l1-.77A.6.6,0,0,1,352.83,87Z"/><rect class="cls-2" x="363.04" y="30.05" width="9.82" height="26.81" rx="4.65" transform="translate(122.36 320.87) rotate(-55.22)"/><path class="cls-3" d="M363.56,34.44c-2.55-1.77-5.82-1.49-7.29.63l-.3.43c-1.47,2.12-.59,5.28,2,7"/><path class="cls-1" d="M243.83,92.08l1.11-1c-1.32,0-3.36,1.08-3.57.08l-3.78-10.62a1.53,1.53,0,0,1,0-.64l2.16-10.35a2.57,2.57,0,0,1,2.62-1.72H243c1.73,0,3,1.23,2.59,2.51l-3,9.28a1.61,1.61,0,0,0,0,.87l2.5,10C245.4,91.72,245.49,92.06,243.83,92.08Z"/><rect class="cls-2" x="217.17" y="44.16" width="26.81" height="9.82" rx="4.65" transform="translate(13.2 140.3) rotate(-34.78)"/><path class="cls-3" d="M235,40.06c2.55-1.78,5.82-1.5,7.29.62l.3.44c1.47,2.12.6,5.27-2,7.05"/><ellipse class="cls-4" cx="248.82" cy="57.36" rx="13.13" ry="21.29"/><path class="cls-5" d="M260.21,68c0,5.86-5.09,10.61-11.36,10.61S237.48,73.86,237.48,68"/><path class="cls-7" d="M257.05,21.91a1.37,1.37,0,0,1,1.35,1.37A1.35,1.35,0,0,1,257,24.63h0"/><path class="cls-7" d="M241.19,21.9a1.36,1.36,0,1,0,0,2.72h0"/><rect class="cls-2" x="235.85" y="19.16" width="26.36" height="15.87" rx="7.94" transform="translate(218.77 275.76) rotate(-89.27)"/><path class="cls-8" d="M243.93,31.65h0c0-1.74,2.3-3.13,5.12-3.12h0c2.81,0,5.09,1.44,5.08,3.18h0"/><path class="cls-9" d="M252.4,33.51h0A3.13,3.13,0,0,1,249,36.29h0a3.14,3.14,0,0,1-3.36-2.82h0"/><rect class="cls-7" x="247.17" y="24.07" width="3.38" height="5.69" rx="1.39" transform="translate(-0.38 3.81) rotate(-0.88)"/><rect class="cls-8" x="254.91" y="16.92" width="3.38" height="5.69" rx="1.39" transform="translate(-0.27 3.93) rotate(-0.88)"/><path class="cls-10" d="M246.8,22.91a1.83,1.83,0,0,1-3.65-.13"/><path class="cls-10" d="M254.72,23.18a1.82,1.82,0,0,1-3.6-.6"/><rect class="cls-11" x="248.57" y="29.63" width="0.94" height="6.77" transform="translate(213.25 281.68) rotate(-89.36)"/><rect class="cls-8" x="239.19" y="16.89" width="3.38" height="5.69" rx="1.39"/><path class="cls-12" d="M250.12,36.15a4.8,4.8,0,0,1-1.25.14,4.45,4.45,0,0,1-1.28-.26c-.25-.07.69-.85,1.26-.87S250.35,36.09,250.12,36.15Z"/><ellipse class="cls-14" cx="248.77" cy="92.83" rx="20.77" ry="2.13"/><path class="cls-5" d="M249.42,90.29l-4-.44L242.7,82a1.83,1.83,0,0,1,.12-1.53L249,69.44l5.47,1L246.7,81.77Z"/><path class="cls-15" d="M242.78,88.63h2.89A2.35,2.35,0,0,1,248,91v2.13h-7.57V91a2.33,2.33,0,0,1,2.33-2.33Z"/><path class="cls-14" d="M249.16,91.25l-6.51.09V89.2a2.2,2.2,0,0,1,2-2.36l2.48,0a2.19,2.19,0,0,1,2,2.32Z"/><path class="cls-15" d="M249.16,90.93l-6.51.1V88.88a2.21,2.21,0,0,1,2-2.36l2.49,0a2.18,2.18,0,0,1,2,2.31Z"/><path class="cls-16" d="M243.31,88.72h0a.67.67,0,0,1,.08-.85l.82-.78a.47.47,0,0,1,.67,0l.06.08h0a.68.68,0,0,1-.07.85l-.82.79a.47.47,0,0,1-.67,0A.27.27,0,0,1,243.31,88.72Z"/><rect class="cls-2" x="255.81" y="38.58" width="26.81" height="9.82" rx="4.65" transform="translate(-1.45 10.17) rotate(-2.16)"/><path class="cls-3" d="M260.29,38.93c-3.11.11-5.55,2.3-5.45,4.88l0,.52c.1,2.58,2.7,4.58,5.8,4.46"/><path class="cls-17" d="M56.83,26.53c0,4.51-3.35,8.14-7.38,8.09h0c-4,0-7.25-3.74-7.2-8.25"/><path class="cls-17" d="M156.57,26.54c0,4.51-3.36,8.14-7.38,8.1h0c-4,0-7.25-3.74-7.2-8.26"/><path class="cls-17" d="M256.43,32.72c-.05,4.51-3.35,8.14-7.38,8.1h0c-4,0-7.25-3.74-7.2-8.26"/><path class="cls-17" d="M357.35,27c-.05,4.52-3.35,8.14-7.38,8.1h0c-4,0-7.24-3.74-7.2-8.25"/></svg>
