<svg id="Layer_1" data-name="Layer 1" xmlns="http://www.w3.org/2000/svg" width="4000" height="1000" viewBox="0 0 4000 1000"><defs><style>.cls-1{fill:#3c3c82;}.cls-2{fill:#ffb384;}.cls-3{fill:#478981;}.cls-4{fill:#5ba8a1;}.cls-5{fill:#3b5385;}.cls-10,.cls-13,.cls-17,.cls-6{fill:none;}.cls-7{fill:#f9a06e;}.cls-8{fill:#f0edeb;}.cls-9{fill:#7a4429;}.cls-10{stroke:#ef7f48;stroke-width:3px;}.cls-10,.cls-13,.cls-17{stroke-miterlimit:10;}.cls-11{fill:#fff;}.cls-12{fill:#f27a55;}.cls-13{stroke:#ffb384;stroke-linecap:round;stroke-width:100px;}.cls-14{opacity:0.42;}.cls-15{fill:#88eda0;}.cls-16{fill:#b4edc0;}.cls-17{stroke:#f0edeb;stroke-width:15px;}</style></defs><title>bent_balance</title><polygon class="cls-1" points="1491.942 906.705 1446.514 906.912 1445.932 778.755 1445.379 657.001 1490.807 656.795 1491.942 906.705"/><rect class="cls-2" x="275.5261" y="300.1078" width="97.7175" height="266.7496" rx="46.2617" ry="46.2617" transform="translate(495.363 -80.2285) rotate(55.2173)"/><path class="cls-3" d="M368.0327,343.7909c25.4252-17.66,57.9164-14.8712,72.5713,6.2279l2.9792,4.2893c14.6549,21.0992,5.9238,52.5193-19.5014,70.1789"/><ellipse class="cls-4" cx="505.9854" cy="516.0087" rx="130.6341" ry="211.907"/><path class="cls-5" d="M619.3528,621.82c0,58.3159-50.6523,105.59-113.135,105.59S393.0827,680.1361,393.0827,621.82"/><rect class="cls-6" x="5.3764" y="2.2433" width="1000" height="1000"/><rect class="cls-6" x="1008.9202" y="0.2433" width="1000" height="1000"/><rect class="cls-6" x="2009.9008" y="1.2433" width="1000" height="1000"/><path class="cls-7" d="M587.8342,165.2343a13.53,13.53,0,1,1-.0962,27.06"/><path class="cls-7" d="M430.0124,165.1122a13.53,13.53,0,1,0,.0962,27.06"/><rect class="cls-2" x="429.1272" y="83.5977" width="157.9656" height="262.3592" rx="78.9827" ry="78.9827" transform="translate(2.7761 -6.4527) rotate(0.7296)"/><path class="cls-8" d="M457.3454,260.1555h0c.0922-17.3066,22.87-31.2153,50.876-31.0661h0c28.0058.1492,50.6343,14.3,50.542,31.6065h0"/><path class="cls-9" d="M541.6277,278.673h0c-.1132,15.379-15.2546,27.7354-33.8194,27.5988h0c-18.5647-.1367-33.5226-12.7146-33.4095-28.0936h0"/><rect class="cls-7" x="489.5445" y="186.712" width="33.6066" height="56.6524" rx="13.7928" ry="13.7928" transform="translate(-3.2289 7.7675) rotate(-0.8761)"/><rect class="cls-8" x="566.604" y="115.5534" width="33.6066" height="56.6524" rx="13.7928" ry="13.7928" transform="translate(-2.1318 8.9375) rotate(-0.8761)"/><path class="cls-10" d="M485.8178,175.1694a18.156,18.156,0,1,1-36.2884-1.3069"/><path class="cls-10" d="M564.6765,177.7961a18.156,18.156,0,0,1-35.8261-5.92"/><rect class="cls-11" x="474.4539" y="269.1091" width="67.4185" height="9.3081" transform="translate(3.0735 -5.6299) rotate(0.6367)"/><rect class="cls-8" x="410.1807" y="115.2744" width="33.6066" height="56.6524" rx="13.7928" ry="13.7928"/><path class="cls-12" d="M518.8639,304.8723a44.8815,44.8815,0,0,1-12.3671,1.3908c-5.9709-.0619-10.0382-1.8247-12.8191-2.5659-2.478-.66,6.8823-8.4953,12.5579-8.6278S521.2069,304.25,518.8639,304.8723Z"/><path class="cls-13" d="M622.4648,389.3939c67.4312,8.9455,112.5118,88.4356,100.69,177.5463"/><path class="cls-3" d="M630.8114,442.67c-59.7291-5.7714-71.1012-57.122-50.3342-84.8559s69.6271-26.2365,109.1321,3.3446"/><ellipse class="cls-14" cx="517.4677" cy="920.9442" rx="206.7207" ry="21.1534"/><polygon class="cls-5" points="563.111 905.993 517.683 905.993 517.683 777.835 517.683 656.081 563.111 656.081 563.111 905.993"/><polygon class="cls-5" points="488.469 905.993 443.041 905.993 443.041 777.835 443.041 656.081 488.469 656.081 488.469 905.993"/><path class="cls-15" d="M527.8237,878.3112h28.7027A23.3792,23.3792,0,0,1,579.9056,901.69v21.1768a0,0,0,0,1,0,0H504.6532a0,0,0,0,1,0,0V901.4817A23.1705,23.1705,0,0,1,527.8237,878.3112Z"/><path class="cls-15" d="M447.8358,878.33h28.7027a23.3792,23.3792,0,0,1,23.3792,23.3792v21.1768a0,0,0,0,1,0,0H424.6653a0,0,0,0,1,0,0V901.5A23.1705,23.1705,0,0,1,447.8358,878.33Z"/><rect class="cls-16" x="434.4683" y="880.4826" width="12.0473" height="24.2943" rx="6.0236" ry="6.0236" transform="translate(860.6206 -9.7632) rotate(51.2306)"/><rect class="cls-16" x="517.3857" y="881.0221" width="12.0473" height="24.2943" rx="6.0236" ry="6.0236" transform="translate(892.0368 -74.2099) rotate(51.2306)"/><rect class="cls-2" x="1268.9704" y="300.1078" width="97.7175" height="266.7496" rx="46.2617" ry="46.2617" transform="translate(922.0814 -896.1656) rotate(55.2173)"/><path class="cls-3" d="M1361.477,343.7909c25.4251-17.66,57.9164-14.8712,72.5713,6.2279l2.9792,4.2893c14.6548,21.0992,5.9238,52.5193-19.5014,70.1789"/><ellipse class="cls-4" cx="1499.4297" cy="516.0087" rx="130.6341" ry="211.907"/><path class="cls-5" d="M1612.7971,621.82c0,58.3159-50.6523,105.59-113.1351,105.59s-113.135-47.2744-113.135-105.59"/><path class="cls-7" d="M1581.2785,165.2343a13.53,13.53,0,0,1-.0962,27.06"/><path class="cls-7" d="M1423.4566,165.1122a13.53,13.53,0,0,0,.0963,27.06"/><rect class="cls-2" x="1422.5714" y="83.5977" width="157.9656" height="262.3592" rx="78.9827" ry="78.9827" transform="translate(2.8567 -19.1031) rotate(0.7296)"/><path class="cls-8" d="M1450.79,260.1555h0c.0922-17.3066,22.87-31.2153,50.876-31.0661h0c28.0058.1492,50.6342,14.3,50.542,31.6065h0"/><path class="cls-9" d="M1535.072,278.673h0c-.1132,15.379-15.2547,27.7354-33.8194,27.5988h0c-18.5647-.1367-33.5227-12.7146-33.4095-28.0936h0"/><rect class="cls-7" x="1482.9888" y="186.712" width="33.6066" height="56.6524" rx="13.7928" ry="13.7928" transform="translate(-3.1127 22.958) rotate(-0.8761)"/><rect class="cls-8" x="1560.0482" y="115.5534" width="33.6066" height="56.6524" rx="13.7928" ry="13.7928" transform="translate(-2.0157 24.128) rotate(-0.8761)"/><path class="cls-10" d="M1479.2621,175.1694a18.156,18.156,0,1,1-36.2884-1.3069"/><path class="cls-10" d="M1558.1208,177.7961a18.156,18.156,0,0,1-35.8261-5.92"/><rect class="cls-11" x="1467.8982" y="269.1091" width="67.4185" height="9.3081" transform="translate(3.1348 -16.6692) rotate(0.6367)"/><rect class="cls-8" x="1403.625" y="115.2744" width="33.6066" height="56.6524" rx="13.7928" ry="13.7928"/><path class="cls-12" d="M1512.3082,304.8723a44.8826,44.8826,0,0,1-12.3671,1.3908c-5.9709-.0619-10.0383-1.8247-12.8191-2.5659-2.4781-.66,6.8823-8.4953,12.5578-8.6278S1514.6512,304.25,1512.3082,304.8723Z"/><ellipse class="cls-14" cx="1510.912" cy="920.9442" rx="206.7207" ry="21.1534"/><polygon class="cls-5" points="1523.982 892.785 1479.23 884.976 1501.261 758.725 1522.19 638.783 1566.942 646.592 1523.982 892.785"/><path class="cls-15" d="M1454.3208,879.1276h28.7027a23.3792,23.3792,0,0,1,23.3792,23.3792v21.1768a0,0,0,0,1,0,0H1431.15a0,0,0,0,1,0,0V902.2982A23.1705,23.1705,0,0,1,1454.3208,879.1276Z"/><path class="cls-14" d="M1480.3434,861.83h28.7027a23.3792,23.3792,0,0,1,23.3792,23.3792v21.1768a0,0,0,0,1,0,0h-75.2524a0,0,0,0,1,0,0V885.0009A23.1705,23.1705,0,0,1,1480.3434,861.83Z" transform="translate(151.0853 -216.1213) rotate(8.7081)"/><path class="cls-15" d="M1480.82,858.7195h28.7027a23.3792,23.3792,0,0,1,23.3792,23.3792v21.1768a0,0,0,0,1,0,0h-75.2524a0,0,0,0,1,0,0V881.89a23.1705,23.1705,0,0,1,23.1705-23.1705Z" transform="translate(150.6198 -216.2293) rotate(8.7081)"/><rect class="cls-16" x="1470.4212" y="857.709" width="12.0473" height="24.2943" rx="6.0236" ry="6.0236" transform="translate(1489.7064 -843.7258) rotate(59.9387)"/><rect class="cls-2" x="1630.2018" y="299.3097" width="97.7175" height="266.7496" rx="46.2617" ry="46.2617" transform="translate(2992.2801 -699.5323) rotate(124.7827)"/><path class="cls-3" d="M1635.4127,342.9928c-25.4252-17.6595-57.9165-14.8712-72.5713,6.2279l-2.9792,4.2893c-14.6549,21.0992-5.9238,52.5193,19.5014,70.1789"/><polygon class="cls-1" points="3489.734 906.705 3444.307 906.912 3443.725 778.755 3443.172 657.001 3488.599 656.795 3489.734 906.705"/><rect class="cls-6" x="3006.7127" y="0.2433" width="1000" height="1000"/><rect class="cls-2" x="3254.1452" y="273.4762" width="97.7175" height="266.7496" rx="46.2617" ry="46.2617" transform="translate(2893.8042 -2895.8628) rotate(75.9151)"/><path class="cls-3" d="M3375.5351,338.375c30.0258-7.5336,59.4345,6.5585,65.6863,31.4754l1.2709,5.0654c6.2517,24.917-13.0209,51.2233-43.0467,58.7569"/><ellipse class="cls-4" cx="3497.2222" cy="516.0087" rx="130.6341" ry="211.907"/><path class="cls-5" d="M3610.59,621.82c0,58.3159-50.6523,105.59-113.1351,105.59S3384.32,680.1361,3384.32,621.82"/><path class="cls-7" d="M3579.071,165.2343a13.53,13.53,0,0,1-.0962,27.06"/><path class="cls-7" d="M3421.2491,165.1122a13.53,13.53,0,1,0,.0963,27.06"/><rect class="cls-2" x="3420.3639" y="83.5977" width="157.9656" height="262.3592" rx="78.9827" ry="78.9827" transform="translate(3.0186 -44.5425) rotate(0.7296)"/><path class="cls-8" d="M3448.5822,260.1555h0c.0922-17.3066,22.87-31.2153,50.8759-31.0661h0c28.0059.1492,50.6343,14.3,50.5421,31.6065h0"/><path class="cls-9" d="M3532.8645,278.673h0c-.1132,15.379-15.2547,27.7354-33.8194,27.5988h0c-18.5647-.1367-33.5227-12.7146-33.41-28.0936h0"/><rect class="cls-7" x="3480.7813" y="186.712" width="33.6066" height="56.6524" rx="13.7928" ry="13.7928" transform="translate(-2.8792 53.5056) rotate(-0.8761)"/><rect class="cls-8" x="3557.8407" y="115.5534" width="33.6066" height="56.6524" rx="13.7928" ry="13.7928" transform="translate(-1.7821 54.6756) rotate(-0.8761)"/><path class="cls-10" d="M3477.0546,175.1694a18.156,18.156,0,1,1-36.2884-1.3069"/><path class="cls-10" d="M3555.9133,177.7961a18.156,18.156,0,0,1-35.8262-5.92"/><rect class="cls-11" x="3465.6907" y="269.1091" width="67.4185" height="9.3081" transform="translate(3.2582 -38.8689) rotate(0.6367)"/><rect class="cls-8" x="3401.4175" y="115.2744" width="33.6066" height="56.6524" rx="13.7928" ry="13.7928"/><path class="cls-12" d="M3510.1007,304.8723a44.8826,44.8826,0,0,1-12.3671,1.3908c-5.971-.0619-10.0383-1.8247-12.8191-2.5659-2.4781-.66,6.8822-8.4953,12.5578-8.6278S3512.4437,304.25,3510.1007,304.8723Z"/><ellipse class="cls-14" cx="3508.7045" cy="920.9442" rx="206.7207" ry="21.1534"/><polygon class="cls-5" points="3559.605 880.906 3514.184 881.661 3512.052 753.521 3510.026 631.783 3555.448 631.027 3559.605 880.906"/><path class="cls-15" d="M3452.1133,879.1276h28.7027a23.3792,23.3792,0,0,1,23.3792,23.3792v21.1768a0,0,0,0,1,0,0h-75.2524a0,0,0,0,1,0,0V902.2982A23.1705,23.1705,0,0,1,3452.1133,879.1276Z"/><path class="cls-14" d="M3522.8118,861.5857h28.7027a23.3792,23.3792,0,0,1,23.3792,23.3792v21.1768a0,0,0,0,1,0,0h-75.2524a0,0,0,0,1,0,0V884.7563A23.1705,23.1705,0,0,1,3522.8118,861.5857Z"/><path class="cls-15" d="M3522.8139,858.4386h28.7027a23.3792,23.3792,0,0,1,23.3792,23.3792v21.1768a0,0,0,0,1,0,0h-75.2524a0,0,0,0,1,0,0V881.6092a23.1705,23.1705,0,0,1,23.1705-23.1705Z"/><rect class="cls-16" x="3510.913" y="861.3928" width="12.0473" height="24.2943" rx="6.0236" ry="6.0236" transform="translate(1998.033 -2416.5736) rotate(51.2704)"/><rect class="cls-2" x="3627.9943" y="299.3097" width="97.7175" height="266.7496" rx="46.2617" ry="46.2617" transform="translate(6129.7446 -2340.3621) rotate(124.7827)"/><path class="cls-3" d="M3633.2052,342.9928c-25.4252-17.6595-57.9165-14.8712-72.5713,6.2279l-2.9792,4.2893c-14.6549,21.0992-5.9238,52.5193,19.5014,70.1789"/><path class="cls-1" d="M2441.7409,916.5949l11.0733-10.2823c-13.1573.1705-33.4971,10.6957-35.5928.7909l-37.64-105.6961a15.4953,15.4953,0,0,1-.0089-6.3992l21.473-102.96c2.0431-9.7961,13.0926-17.0353,26.092-17.0943l6.5084-.03c17.2516-.0783,29.9646,12.2323,25.8339,25.0163l-29.8222,92.2976a15.568,15.568,0,0,0-.3022,8.63l24.9391,99.7445C2457.3794,912.9518,2458.2164,916.3814,2441.7409,916.5949Z"/><rect class="cls-2" x="2260.9395" y="355.1895" width="97.7175" height="266.7496" rx="46.2617" ry="46.2617" transform="translate(1393.406 -1687.2317) rotate(55.2173)"/><path class="cls-3" d="M2353.4461,398.8726c25.4252-17.66,57.9165-14.8713,72.5714,6.2279l2.9792,4.2893c14.6548,21.0991,5.9237,52.5193-19.5014,70.1789"/><ellipse class="cls-4" cx="2491.3989" cy="571.0903" rx="130.6341" ry="211.907"/><path class="cls-5" d="M2604.7663,676.9019c0,58.3159-50.6523,105.59-113.1351,105.59s-113.135-47.2744-113.135-105.59"/><path class="cls-7" d="M2573.2477,218.316a13.53,13.53,0,0,1-.0962,27.06"/><path class="cls-7" d="M2415.4258,218.1939a13.53,13.53,0,0,0,.0962,27.06"/><rect class="cls-2" x="2414.5406" y="138.6794" width="157.9656" height="262.3592" rx="78.9827" ry="78.9827" transform="translate(3.6385 -31.7301) rotate(0.7296)"/><path class="cls-8" d="M2442.7589,315.2371h0c.0922-17.3066,22.87-31.2154,50.8759-31.0662h0c28.0059.1493,50.6343,14.3,50.5421,31.6066h0"/><path class="cls-9" d="M2527.0412,333.7547h0c-.1132,15.379-15.2547,27.7354-33.8194,27.5987h0c-18.5647-.1366-33.5227-12.7145-33.41-28.0935h0"/><rect class="cls-7" x="2474.958" y="239.7937" width="33.6066" height="56.6524" rx="13.7928" ry="13.7928" transform="translate(-3.8084 38.1321) rotate(-0.8761)"/><rect class="cls-8" x="2552.0174" y="168.6351" width="33.6066" height="56.6524" rx="13.7928" ry="13.7928" transform="translate(-2.7114 39.3021) rotate(-0.8761)"/><path class="cls-10" d="M2471.2313,228.251a18.156,18.156,0,1,1-36.2885-1.3069"/><path class="cls-10" d="M2550.09,230.8778a18.156,18.156,0,0,1-35.8262-5.92"/><rect class="cls-11" x="2459.8674" y="324.1908" width="67.4185" height="9.3081" transform="translate(3.8081 -27.6886) rotate(0.6367)"/><rect class="cls-8" x="2395.5941" y="168.3561" width="33.6066" height="56.6524" rx="13.7928" ry="13.7928"/><path class="cls-12" d="M2504.2774,359.954a44.8826,44.8826,0,0,1-12.3671,1.3908c-5.971-.0619-10.0383-1.8247-12.8191-2.5659-2.4781-.6605,6.8822-8.4953,12.5578-8.6278S2506.62,359.3318,2504.2774,359.954Z"/><ellipse class="cls-14" cx="2490.8812" cy="924.0258" rx="206.7207" ry="21.1534"/><path class="cls-5" d="M2497.3418,898.7213l-39.67-4.3269-27.2152-77.8023a18.1185,18.1185,0,0,1,1.1777-15.15l61.4874-110.2013,54.46,9.5032-77.3185,113.2381Z"/><path class="cls-15" d="M2431.29,882.2093h28.7027a23.3792,23.3792,0,0,1,23.3792,23.3792v21.1768a0,0,0,0,1,0,0h-75.2524a0,0,0,0,1,0,0V905.38A23.1705,23.1705,0,0,1,2431.29,882.2093Z"/><path class="cls-14" d="M2494.8033,908.277l-64.792.9461-.1548-21.3832c-.0926-12.7954,8.7641-23.2986,19.7821-23.4595l24.7129-.3609c11.1171-.1623,20.2051,10.1722,20.2986,23.0829Z"/><path class="cls-15" d="M2494.7806,905.13l-64.7921.9461-.1548-21.3832c-.0926-12.7954,8.7641-23.2986,19.7821-23.4595l24.7129-.3609c11.1171-.1623,20.2051,10.1722,20.2986,23.0829Z"/><path class="cls-16" d="M2436.5863,883.1464h0a6.7365,6.7365,0,0,1,.7347-8.4791l8.1659-7.7882a4.7185,4.7185,0,0,1,7.2979.818h0a6.7365,6.7365,0,0,1-.7347,8.4791l-8.1659,7.7882A4.7185,4.7185,0,0,1,2436.5863,883.1464Z"/><rect class="cls-2" x="2645.4674" y="299.6757" width="97.7175" height="266.7496" rx="46.2617" ry="46.2617" transform="translate(3025.5602 -2275.6779) rotate(87.8409)"/><path class="cls-3" d="M2605.5356,387.5973c-30.9344,1.1663-55.2272,22.9222-54.2593,48.5933l.1967,5.2187c.9679,25.671,26.83,45.536,57.7643,44.37"/><path class="cls-17" d="M580.8491,264.2237c-.4858,44.9207-33.3508,80.9849-73.406,80.5517h0c-40.0551-.4332-72.1324-37.2-71.6465-82.1206"/><path class="cls-17" d="M1573.3451,264.3541c-.4859,44.9207-33.3509,80.9849-73.406,80.5517h0c-40.0551-.4333-72.1323-37.2-71.6465-82.1207"/><path class="cls-17" d="M2567.0805,325.8545c-.4859,44.9207-33.3509,80.9849-73.406,80.5517h0c-40.0551-.4333-72.1323-37.2-71.6465-82.1206"/><path class="cls-17" d="M3571.3913,268.9729c-.4859,44.9207-33.3509,80.985-73.406,80.5517h0c-40.0551-.4332-72.1323-37.2-71.6465-82.1206"/></svg>
