<svg id="Layer_1" data-name="Layer 1" xmlns="http://www.w3.org/2000/svg" width="30mm" height="30mm" viewBox="0 0 85.04 85.04"><defs><style>.cls-1,.cls-2{fill:none;stroke-miterlimit:10;stroke-width:2px;}.cls-1{stroke:#343c46;}.cls-2{stroke:#353d47;}</style></defs><title>facebook_footer</title><circle class="cls-1" cx="42.52" cy="42.14" r="37.34"/><polyline class="cls-2" points="56.76 32.86 56.76 42.27 56.76 43.1"/><polyline class="cls-2" points="35.98 41.44 35.99 42.14 36.25 70.38 36.25 70.76"/><polyline class="cls-2" points="35.27 70.38 36.25 70.38 48.48 70.38 49.01 70.38"/><polyline class="cls-2" points="48.48 41.44 48.48 42.27 48.48 70.38 48.48 71.36"/><polyline class="cls-2" points="47.42 42.27 48.48 42.27 56.76 42.27 57.69 42.27"/><polyline class="cls-2" points="46.85 32.86 48.07 32.86 56.76 32.86 57.69 32.86"/><polyline class="cls-2" points="27.82 32.86 28.27 32.86 36.06 32.86 36.75 32.86"/><polyline class="cls-2" points="28.27 31.97 28.27 32.86 28.27 42.14 28.27 42.27"/><polyline class="cls-2" points="37.11 42.14 35.99 42.14 28.27 42.14 27.27 42.14"/><path class="cls-2" d="M57.69,16.53h-.93c-11.08-.05-21.6-.7-20.7,16.33,0,.28,0,.56,0,.85"/><path class="cls-2" d="M56.76,26.14c-4.58,0-10.08-1.21-8.69,6.72"/><polyline class="cls-2" points="56.76 16.51 56.76 16.53 56.76 26.14 56.76 27.09"/></svg>
