<svg id="Layer_1" data-name="Layer 1" xmlns="http://www.w3.org/2000/svg" width="28.83mm" height="28.08mm" viewBox="0 0 81.73 79.6"><defs><style>.cls-1{fill:#7fbb42;}.cls-1,.cls-3{stroke:#7fbb42;stroke-miterlimit:10;}.cls-2{fill:#fff;}.cls-3{fill:none;}</style></defs><title>fill_facebook</title><circle class="cls-1" cx="39.9" cy="40" r="37.34"/><path class="cls-2" d="M45.74,40.35V68.47H33.5l-.26-28.25H25.52V31h8c-1.31-18.16,9.09-16,20.51-16v9.25c-4.57,0-10.08-1.22-8.69,6.72H54v9.4Z"/><line class="cls-3" x1="54.01" y1="30.95" x2="54.01" y2="40.35"/><polyline class="cls-3" points="33.24 40.22 33.5 68.47 33.5 68.84"/><polyline class="cls-3" points="33.09 68.47 33.5 68.47 45.74 68.47 46.27 68.47"/><polyline class="cls-3" points="45.74 40 45.74 40.35 45.74 68.47"/><polyline class="cls-3" points="45.32 40.35 45.74 40.35 54.01 40.35 54.48 40.35"/><polyline class="cls-3" points="44.7 30.95 45.32 30.95 54.01 30.95 54.48 30.95"/><polyline class="cls-3" points="25.07 30.95 25.52 30.95 33.5 30.95 33.95 30.95"/><polyline class="cls-3" points="25.52 30.95 25.52 40.22 25.52 40.35"/><polyline class="cls-3" points="33.77 40.22 33.24 40.22 25.52 40.22 25.07 40.22"/><path class="cls-3" d="M54.48,15H54c-11.42-.05-21.82-2.19-20.51,16"/><path class="cls-3" d="M54,24.23c-4.57,0-10.08-1.22-8.69,6.72"/><polyline class="cls-3" points="54.01 15.19 54.01 24.23 54.01 24.68"/></svg>
