<svg id="Layer_1" data-name="Layer 1" xmlns="http://www.w3.org/2000/svg" width="166.28mm" height="115.15mm" viewBox="0 0 471.34 326.41"><defs><style>.cls-1{fill:#507134;}.cls-2{fill:#495b76;}.cls-3{fill:#b6d551;}.cls-4{fill:#4aaea3;}.cls-5{font-size:16.1px;fill:#231f20;font-family:SafetyLight, Safety;}.cls-6{letter-spacing:-0.02em;}.cls-7{letter-spacing:-0.01em;}</style></defs><title>graf_site</title><rect class="cls-1" x="351.21" y="9.08" width="42.94" height="32.79"/><path class="cls-1" d="M154,173.06,13.15,200.43A143.49,143.49,0,0,1,154,29.58Z"/><rect class="cls-2" x="351.21" y="58.28" width="42.94" height="32.79"/><path class="cls-2" d="M154,173.06l88.33,113.06A143.48,143.48,0,0,1,40.93,261.39a138.12,138.12,0,0,1-27.78-61Z"/><rect class="cls-3" x="351.21" y="107.47" width="42.94" height="32.79"/><path class="cls-3" d="M154,173.06,263.9,80.83A143.48,143.48,0,0,1,246.21,283c-1.82,1.53-2,1.69-3.89,3.15Z"/><rect class="cls-4" x="351.21" y="156.66" width="42.94" height="32.79"/><path class="cls-4" d="M154,173.06V29.58c44.06,0,81.59,17.5,109.91,51.25Z"/><text class="cls-5" transform="translate(399.52 31.52)"><tspan class="cls-6">o</tspan><tspan class="cls-7" x="7.65" y="0">v</tspan><tspan x="14.51" y="0">er 90 책r</tspan></text><text class="cls-5" transform="translate(399.52 80.71)">80-89 책r</text><text class="cls-5" transform="translate(399.52 129.9)">70-79 책r</text><text class="cls-5" transform="translate(399.52 179.1)">60-69 책r</text></svg>
