<svg id="Layer_1" data-name="Layer 1" xmlns="http://www.w3.org/2000/svg" viewBox="0 0 400 100"><defs><style>.cls-1{opacity:0.15;}.cls-1,.cls-2{isolation:isolate;}.cls-2{opacity:0.42;}.cls-3{fill:#f0edeb;}.cls-4{fill:#f9a06e;}.cls-11,.cls-13,.cls-5,.cls-8{fill:none;stroke-miterlimit:10;}.cls-5{stroke:#ffb384;stroke-linecap:round;stroke-width:8px;}.cls-6{fill:#5ba8a1;}.cls-7{fill:#478981;}.cls-8{stroke:#3c3c82;stroke-width:4px;}.cls-9{fill:#3b5385;}.cls-10{fill:#ffb384;}.cls-11{stroke:#f0edeb;stroke-width:2px;}.cls-12{fill:#7a4429;}.cls-13{stroke:#ef7f48;stroke-width:0.5px;}.cls-14{fill:#fff;}.cls-15{fill:#f27a55;}.cls-16{fill:#88eda0;}.cls-17{fill-opacity:0;}</style></defs><title>kim_balance</title><path class="cls-1" d="M318.54,91.31a28.46,28.46,0,0,1,6.4-18.89l.94.31a26.18,26.18,0,0,0-3.85,7,43.28,43.28,0,0,1,5.54-6.4l1.25.41a46.13,46.13,0,0,0-4.7,5.47,15.3,15.3,0,0,0,2.74,9.4l-2.05.67a16.68,16.68,0,0,1-2.23-7.82c-.65,1-1.28,2.1-1.88,3.25a27.78,27.78,0,0,0-.34,6Z"/><path class="cls-1" d="M328,77.64l1.18.13a21.17,21.17,0,0,0,0,10l-1.72.57A22.21,22.21,0,0,1,328,77.64Zm1.51-3.7.89.29a19.68,19.68,0,0,0-.86,2.25l-1.08-.2a20.4,20.4,0,0,1,1-2.34Z"/><path class="cls-1" d="M330.32,77.89l1.11.13c0,.35-.07.7-.1,1,.43-.82.88-1.16,1.34-1.1a1.2,1.2,0,0,1,.81.46,3.93,3.93,0,0,1,.57,1,1.57,1.57,0,0,1,.44-.89.88.88,0,0,1,.78-.28,1.86,1.86,0,0,1,1,.53,5,5,0,0,1,.88,1.1c.12.21.31.57.57,1.06a14.94,14.94,0,0,0,2.34,3.24l-1.72.57a16,16,0,0,1-2.06-3.71c-.19-.5-.29-.79-.32-.85a1.31,1.31,0,0,0-.33-.44.69.69,0,0,0-.43-.18c-.32,0-.52.24-.61.76a4.87,4.87,0,0,0,.31,2,16.22,16.22,0,0,0,1.39,3.13l-1.72.57a17.49,17.49,0,0,1-1.43-4.68c-.09-.56-.14-.92-.18-1.08a1.13,1.13,0,0,0-.24-.52.48.48,0,0,0-.8,0,1.62,1.62,0,0,0-.33.62,3.94,3.94,0,0,0-.14,1,11.9,11.9,0,0,0,.1,1.34,18.83,18.83,0,0,0,1,4l-1.73.57A20.12,20.12,0,0,1,330.32,77.89Z"/><ellipse class="cls-2" cx="353.91" cy="89.14" rx="16.95" ry="1.73"/><rect class="cls-3" x="354.22" y="16.95" width="4.64" height="2.76" rx="1.13" transform="translate(201.03 339.7) rotate(-67.12)"/><path class="cls-4" d="M367.55,23.87a1.12,1.12,0,0,1,.7,1.41,1.11,1.11,0,0,1-1.41.69"/><path class="cls-5" d="M355.27,39.52a9.17,9.17,0,0,1-13-12.88"/><path class="cls-6" d="M365.24,47.7c0,11.63,9.43,21.43-1.12,21.43a17.82,17.82,0,0,1-10.68-3.6,20.57,20.57,0,0,1-1.76-1.48,22,22,0,0,1-6.66-16C345,36.44,353.73,25,364.12,27,376.16,29.32,365.24,36.07,365.24,47.7Z"/><path class="cls-7" d="M366.14,58.64c-.43.09-1.81,1-1.92.49-.8-3.54-.69-4.44-.69-10.3,0-10.67,3.09-14.55,5.11-12.72,2.34,2.12-2.38,1.55-2.38,12.22s1.94,10,.06,10.34"/><path class="cls-8" d="M346.94,83.63c0-9.2,6.9-16.65,15.42-16.65"/><polygon class="cls-9" points="365.13 87.84 361.41 87.84 361.41 77.33 361.41 67.35 365.13 67.35 365.13 87.84"/><path class="cls-9" d="M368.4,61.36c.42,1.16,1.46,3.74.94,5.23-.66,1.94-3.7,2.84-6.24,2.84-4.5,0-11.45-4.76-12.81-6.69l-.28-.35c-.48-.6-.86-.93-.53-1,1.39-.07,8.27-1.42,11.95-2.17,2.75-.56,4.85-1.39,5.9-1C368.08,58.52,368,60.19,368.4,61.36Z"/><rect class="cls-10" x="349.51" y="18.84" width="21.51" height="12.95" rx="6.48" transform="translate(187.91 342.69) rotate(-65.51)"/><path class="cls-11" d="M363.76,31.88a6.22,6.22,0,0,1-8.07,3.45h0A6.22,6.22,0,0,1,353,27"/><path class="cls-3" d="M354.18,27h0c.57-1.3,2.74-1.6,4.84-.67h0c2.1.93,3.34,2.73,2.77,4h0"/><path class="cls-12" d="M360.12,31h0A2.55,2.55,0,0,1,356.71,32h0A2.55,2.55,0,0,1,355,28.88h0"/><path class="cls-5" d="M369,33.78a9.16,9.16,0,1,1,11.23,14.48h0"/><path class="cls-7" d="M372.39,36.4c-3.77,3.14-7.41.85-7.82-1.95S367,28.89,371,28.3"/><rect class="cls-4" x="357.27" y="23.67" width="4.64" height="2.76" rx="1.13" transform="translate(196.7 346.61) rotate(-67.12)"/><rect class="cls-3" x="365.87" y="21.26" width="4.64" height="2.76" rx="1.13" transform="translate(204.19 353.06) rotate(-67.12)"/><path class="cls-13" d="M359.6,21.48a1.49,1.49,0,1,1-2.68-1.3h0"/><path class="cls-13" d="M365.06,24.3a1.49,1.49,0,1,1-2.49-1.63"/><rect class="cls-14" x="357.35" y="26.81" width="0.76" height="5.53" transform="translate(193.06 348.53) rotate(-67.42)"/><path class="cls-15" d="M357.78,32.29a3.21,3.21,0,0,1-1-.19,3.25,3.25,0,0,1-.91-.54c-.17-.12.75-.48,1.19-.34S358,32.31,357.78,32.29Z"/><path class="cls-16" d="M348.53,82.3c.42,0,.46,1.08-.11,1.62-.83.8-2.75,1.09-4.4,1.61-2.75.87-5.23.78-5.54-.2s.35-3.17,3.2-2.7C344.86,83.16,346.93,82.33,348.53,82.3Z"/><path class="cls-8" d="M44.72,85.38c4.45-9.89,3.69-15.17,10.69-20.63"/><path class="cls-16" d="M46.12,85.36c.37.21-.14,1.17-.89,1.36-1.13.28-2.94-.4-4.63-.76-2.82-.61-4.94-1.91-4.72-2.91s1.87-2.58,4.11-.77C42.5,84.31,44.71,84.6,46.12,85.36Z"/><path class="cls-16" d="M357.2,86.76h7.3a1,1,0,0,1,1,1v1.18a1,1,0,0,1-1,1h-7.43a1.29,1.29,0,0,1-1.29-1.29h0v-.44A1.42,1.42,0,0,1,357.2,86.76Z"/><ellipse class="cls-2" cx="256" cy="88.85" rx="16.95" ry="1.73"/><path class="cls-1" d="M223.87,91a28.5,28.5,0,0,1,6.4-18.89l.94.31a26.47,26.47,0,0,0-3.85,7,43.88,43.88,0,0,1,5.54-6.4l1.25.41a47.08,47.08,0,0,0-4.7,5.47,15.25,15.25,0,0,0,2.74,9.39l-2.05.68a16.67,16.67,0,0,1-2.22-7.82c-.65,1-1.28,2.1-1.88,3.25a27.75,27.75,0,0,0-.35,6Z"/><path class="cls-1" d="M233.34,77.28l1.18.14a21.13,21.13,0,0,0,0,10l-1.73.57A22.33,22.33,0,0,1,233.34,77.28Zm1.51-3.7.89.29a20.52,20.52,0,0,0-.85,2.26l-1.09-.2A24.73,24.73,0,0,1,234.85,73.58Z"/><path class="cls-17" d="M235.65,77.54l1.11.12c0,.35-.07.7-.09,1.06.43-.82.87-1.17,1.34-1.11a1.24,1.24,0,0,1,.8.46,3.71,3.71,0,0,1,.57,1,1.65,1.65,0,0,1,.45-.9.9.9,0,0,1,.78-.27,1.77,1.77,0,0,1,1,.53,5.13,5.13,0,0,1,.88,1.09c.13.21.31.57.57,1.07a14.59,14.59,0,0,0,2.35,3.23l-1.73.57a15.64,15.64,0,0,1-2.06-3.71c-.19-.49-.29-.78-.32-.85a1.54,1.54,0,0,0-.33-.44.71.71,0,0,0-.42-.17c-.33,0-.53.23-.61.75a4.62,4.62,0,0,0,.3,2,17.25,17.25,0,0,0,1.39,3.14l-1.72.57A17.92,17.92,0,0,1,238.46,81c-.09-.55-.13-.91-.17-1.08a1.3,1.3,0,0,0-.24-.52.52.52,0,0,0-.39-.22.57.57,0,0,0-.42.22,1.56,1.56,0,0,0-.32.61,3.68,3.68,0,0,0-.15,1,10,10,0,0,0,.11,1.34,18.57,18.57,0,0,0,1,4l-1.72.57A20.08,20.08,0,0,1,235.65,77.54Z"/><path class="cls-1" d="M122.67,91.73a28.5,28.5,0,0,1,6.4-18.89l.94.31a26.47,26.47,0,0,0-3.85,7,43.88,43.88,0,0,1,5.54-6.4l1.25.41a48.07,48.07,0,0,0-4.7,5.47A15.25,15.25,0,0,0,131,89l-2.05.68a16.67,16.67,0,0,1-2.22-7.82c-.65,1-1.28,2.1-1.88,3.25a27.75,27.75,0,0,0-.35,6Z"/><path class="cls-17" d="M132.14,78.06l1.18.13a21.17,21.17,0,0,0,0,10l-1.73.56A22.29,22.29,0,0,1,132.14,78.06Zm1.51-3.71.89.3a19.63,19.63,0,0,0-.85,2.25l-1.09-.2a24.73,24.73,0,0,1,1.05-2.35Z"/><path class="cls-17" d="M134.45,78.31l1.11.13q-.06.53-.09,1c.43-.82.87-1.17,1.34-1.11a1.24,1.24,0,0,1,.8.46,3.71,3.71,0,0,1,.57,1,1.65,1.65,0,0,1,.45-.9.9.9,0,0,1,.78-.27,1.77,1.77,0,0,1,1,.53,5.13,5.13,0,0,1,.88,1.09c.13.21.31.58.57,1.07a14.68,14.68,0,0,0,2.35,3.23l-1.73.57a15.77,15.77,0,0,1-2.06-3.7c-.19-.5-.29-.79-.32-.85a1.43,1.43,0,0,0-.32-.44.69.69,0,0,0-.43-.18c-.33,0-.53.24-.61.75a4.68,4.68,0,0,0,.3,2,16.26,16.26,0,0,0,1.4,3.13l-1.73.57a17.92,17.92,0,0,1-1.43-4.69c-.09-.55-.13-.91-.17-1.07a1.34,1.34,0,0,0-.24-.53.48.48,0,0,0-.39-.21.52.52,0,0,0-.42.21,1.63,1.63,0,0,0-.32.61,3.68,3.68,0,0,0-.15,1,10,10,0,0,0,.11,1.34,18.57,18.57,0,0,0,1,4l-1.72.57A20.08,20.08,0,0,1,134.45,78.31Z"/><rect class="cls-3" x="256.31" y="16.67" width="4.64" height="2.76" rx="1.13" transform="translate(141.46 249.32) rotate(-67.12)"/><path class="cls-4" d="M269.64,23.58a1.11,1.11,0,1,1-.71,2.11h0"/><path class="cls-5" d="M255.13,42.28a9.16,9.16,0,0,1-6.46-17.15h0"/><path class="cls-6" d="M267.33,47.41c0,11.63,9.43,21.43-1.12,21.43a17.82,17.82,0,0,1-10.68-3.6,20.57,20.57,0,0,1-1.76-1.48,22,22,0,0,1-6.66-16c0-11.63,8.71-23,19.1-21.06C278.25,29,267.33,35.78,267.33,47.41Z"/><path class="cls-7" d="M268.23,58.35c-.43.09-1.81,1-1.92.49-.8-3.54-.69-4.44-.69-10.3,0-10.67,3.09-14.55,5.11-12.72,2.34,2.13-2.38,1.55-2.38,12.22s1.94,10,.06,10.34"/><path class="cls-8" d="M242.68,84.42c.14,0-1.37.2-1.29.07,4.8-8.09,14.68-17.8,23.06-17.8"/><polygon class="cls-9" points="267.22 87.55 263.5 87.55 263.5 77.04 263.5 67.06 267.22 67.06 267.22 87.55"/><path class="cls-9" d="M270.49,61.07c.42,1.17,1.46,3.74.94,5.23-.66,1.94-3.7,2.84-6.24,2.84-4.5,0-11.45-4.76-12.81-6.69,0-.07-.24-.29-.28-.35-.48-.59-.86-.93-.53-1,1.39-.07,8.27-1.42,11.95-2.17,2.75-.56,4.85-1.39,5.9-1C270.17,58.24,270.07,59.9,270.49,61.07Z"/><rect class="cls-10" x="251.6" y="18.55" width="21.51" height="12.95" rx="6.48" transform="translate(130.84 253.42) rotate(-65.51)"/><path class="cls-11" d="M265.85,31.59A6.22,6.22,0,0,1,257.78,35h0a6.21,6.21,0,0,1-2.69-8.34"/><path class="cls-3" d="M256.27,26.7h0c.57-1.3,2.74-1.6,4.84-.67h0c2.1.93,3.34,2.73,2.77,4h0"/><path class="cls-12" d="M262.21,30.68h0a2.54,2.54,0,0,1-3.41,1.07h0a2.55,2.55,0,0,1-1.68-3.16h0"/><path class="cls-5" d="M272,33.84a9.16,9.16,0,0,1-1.62,18.25"/><path class="cls-7" d="M272.86,38.17c-4.91-.26-6-4.42-4.43-6.77s5.61-2.4,8.95-.11"/><rect class="cls-4" x="259.37" y="23.38" width="4.64" height="2.76" rx="1.13" transform="translate(137.13 256.23) rotate(-67.12)"/><rect class="cls-3" x="267.96" y="20.97" width="4.64" height="2.76" rx="1.13" transform="translate(144.61 262.67) rotate(-67.12)"/><path class="cls-13" d="M261.69,21.19a1.49,1.49,0,0,1-2.68-1.3h0"/><path class="cls-13" d="M267.15,24a1.49,1.49,0,0,1-2.49-1.62h0"/><rect class="cls-14" x="259.44" y="26.52" width="0.76" height="5.53" transform="translate(133.02 257.94) rotate(-67.42)"/><path class="cls-15" d="M259.87,32a2.93,2.93,0,0,1-1-.19,3,3,0,0,1-.91-.54c-.17-.12.75-.48,1.19-.34S260.07,32,259.87,32Z"/><path class="cls-16" d="M244.18,84.17c.42,0,.41,1.1-.18,1.61-.87.77-2.8,1-4.46,1.43-2.79.75-5.26.56-5.53-.43s.48-3.15,3.31-2.56C240.47,84.88,242.57,84.13,244.18,84.17Z"/><path class="cls-8" d="M138.76,85.45c-.22-.64,1.48-1.55,2.11-2.27C147,76.32,155,67.41,162.65,67.41"/><path class="cls-16" d="M140.33,84.12c.41-.09.64,1,.19,1.61-.68.94-2.51,1.58-4,2.39-2.54,1.35-5,1.72-5.48.81s-.23-3.18,2.65-3.23C136.87,85.64,138.75,84.44,140.33,84.12Z"/><path class="cls-16" d="M259.29,86.47h7.3a1,1,0,0,1,1,1v1.18a1,1,0,0,1-1,1h-7.43a1.29,1.29,0,0,1-1.29-1.29h0V87.9a1.42,1.42,0,0,1,1.42-1.43Z"/><ellipse class="cls-2" cx="155.16" cy="89.18" rx="16.95" ry="1.73"/><rect class="cls-3" x="155.47" y="17" width="4.64" height="2.76" rx="1.13" transform="translate(79.51 156.61) rotate(-67.12)"/><path class="cls-4" d="M168.8,23.92a1.11,1.11,0,1,1-.71,2.1"/><path class="cls-5" d="M152.58,43.29a9.16,9.16,0,1,1-4.32-17.81"/><path class="cls-6" d="M166.49,47.75c0,11.63,9.43,21.43-1.12,21.43a17.82,17.82,0,0,1-10.68-3.6,19.37,19.37,0,0,1-1.77-1.49,22,22,0,0,1-6.65-16c0-11.63,8.71-23.06,19.1-21.06C177.4,29.37,166.49,36.12,166.49,47.75Z"/><path class="cls-7" d="M167.39,58.69c-.44.08-1.82,1-1.93.49-.79-3.55-.69-4.44-.69-10.3,0-10.67,3.09-14.55,5.11-12.72,2.34,2.12-2.37,1.55-2.37,12.22s1.93,10,.06,10.33"/><polygon class="cls-9" points="166.38 87.88 162.66 87.88 162.66 77.38 162.66 67.39 166.38 67.39 166.38 87.88"/><path class="cls-9" d="M169.65,61.41c.42,1.16,1.45,3.74.94,5.23-.67,1.94-3.7,2.84-6.25,2.84-4.5,0-11.44-4.76-12.81-6.7,0-.06-.23-.28-.28-.34-.47-.6-.85-.93-.53-.95,1.4-.07,8.28-1.42,12-2.17,2.75-.57,4.84-1.39,5.9-1C169.33,58.57,169.23,60.23,169.65,61.41Z"/><rect class="cls-10" x="150.76" y="18.89" width="21.51" height="12.95" rx="6.48" transform="translate(71.49 161.84) rotate(-65.51)"/><path class="cls-11" d="M165,31.93a6.2,6.2,0,0,1-8.06,3.44h0A6.2,6.2,0,0,1,154.25,27"/><path class="cls-3" d="M155.43,27h0c.57-1.3,2.74-1.6,4.84-.67h0c2.1.93,3.34,2.73,2.76,4h0"/><path class="cls-12" d="M161.37,31h0A2.55,2.55,0,0,1,158,32.08h0a2.56,2.56,0,0,1-1.68-3.16h0"/><path class="cls-5" d="M170.46,34.51A9.16,9.16,0,0,1,158.74,48.6h0"/><path class="cls-7" d="M168.71,38.57c-3.89-3-2.44-7.06.22-8.08s6,1.22,7.42,5"/><rect class="cls-4" x="158.52" y="23.72" width="4.64" height="2.76" rx="1.13" transform="translate(75.19 163.53) rotate(-67.12)"/><rect class="cls-3" x="167.11" y="21.31" width="4.64" height="2.76" rx="1.13" transform="translate(82.66 169.97) rotate(-67.12)"/><path class="cls-13" d="M160.85,21.53a1.49,1.49,0,1,1-2.68-1.3"/><path class="cls-13" d="M166.31,24.34a1.49,1.49,0,0,1-2.5-1.62h0"/><rect class="cls-14" x="158.59" y="26.86" width="0.76" height="5.53" transform="translate(70.58 165.04) rotate(-67.42)"/><path class="cls-15" d="M159,32.34a3.28,3.28,0,0,1-1-.19,3.32,3.32,0,0,1-.9-.54c-.17-.12.74-.49,1.19-.34S159.22,32.35,159,32.34Z"/><path class="cls-16" d="M158.44,86.81h7.3a1,1,0,0,1,1,1h0V89a1,1,0,0,1-1,1h-7.42a1.3,1.3,0,0,1-1.3-1.29h0v-.44a1.43,1.43,0,0,1,1.42-1.42Z"/><ellipse class="cls-2" cx="50.26" cy="89.18" rx="16.95" ry="1.73"/><rect class="cls-3" x="50.57" y="17" width="4.64" height="2.76" rx="1.13" transform="translate(15.39 59.96) rotate(-67.12)"/><path class="cls-5" d="M48.17,39.07a9.15,9.15,0,0,1-11.06-6.74h0c-1.2-4.92,2.72-7,5.2-11.44"/><path class="cls-6" d="M61.59,47.75c0,11.63,9.43,21.43-1.12,21.43a17.8,17.8,0,0,1-10.68-3.6A19.37,19.37,0,0,1,48,64.09a22,22,0,0,1-6.65-16c0-11.63,8.71-23.06,19.1-21.06C72.5,29.37,61.59,36.12,61.59,47.75Z"/><path class="cls-7" d="M62.48,58.69c-.43.08-1.81,1-1.92.49-.79-3.55-.69-4.44-.69-10.3C59.87,38.21,63,34.33,65,36.16c2.34,2.12-2.37,1.55-2.37,12.22s1.93,10,.06,10.33"/><polygon class="cls-9" points="61.48 87.88 57.75 87.88 57.75 77.38 57.75 67.39 61.48 67.39 61.48 87.88"/><path class="cls-9" d="M64.75,61.41c.41,1.16,1.45,3.74.94,5.23-.67,1.94-3.7,2.84-6.25,2.84-4.5,0-11.44-4.76-12.81-6.7-.05-.06-.24-.28-.28-.34-.48-.6-.85-.93-.53-.95,1.39-.07,8.27-1.42,12-2.17,2.74-.57,4.84-1.39,5.9-1C64.42,58.57,64.33,60.23,64.75,61.41Z"/><rect class="cls-10" x="45.85" y="18.89" width="21.51" height="12.95" rx="6.48" transform="translate(10.06 66.37) rotate(-65.51)"/><path class="cls-11" d="M60.1,31.93A6.2,6.2,0,0,1,52,35.37h0A6.21,6.21,0,0,1,49.34,27"/><path class="cls-3" d="M50.52,27h0c.58-1.3,2.75-1.6,4.85-.67h0c2.1.93,3.33,2.73,2.76,4h0"/><path class="cls-12" d="M56.47,31h0a2.55,2.55,0,0,1-3.42,1.06h0a2.55,2.55,0,0,1-1.68-3.16h0"/><path class="cls-5" d="M64.78,35.29A9.16,9.16,0,0,1,49.94,46"/><rect class="cls-4" x="53.62" y="23.72" width="4.64" height="2.76" rx="1.13" transform="translate(11.07 66.88) rotate(-67.12)"/><path class="cls-13" d="M55.94,21.53a1.47,1.47,0,0,1-2,.69,1.49,1.49,0,0,1-.7-2h0"/><path class="cls-13" d="M61.41,24.34a1.49,1.49,0,1,1-2.5-1.61h0"/><rect class="cls-14" x="53.69" y="26.86" width="0.76" height="5.53" transform="translate(5.96 68.18) rotate(-67.42)"/><path class="cls-15" d="M54.12,32.34a3.21,3.21,0,0,1-1-.19,3.17,3.17,0,0,1-.9-.54c-.18-.12.74-.49,1.18-.34S54.32,32.35,54.12,32.34Z"/><path class="cls-16" d="M53.54,86.81h7.3a1,1,0,0,1,1,1h0V89a1,1,0,0,1-1,1H53.41a1.29,1.29,0,0,1-1.29-1.29v-.44A1.43,1.43,0,0,1,53.54,86.81Z"/><path class="cls-7" d="M62.1,38.8c-3-3.88-.61-7.45,2.21-7.78s5.49,2.66,6,6.68"/><rect class="cls-3" x="62.23" y="21.88" width="4.64" height="2.76" rx="1.13" transform="translate(18.03 73.69) rotate(-67.12)"/></svg>
