<svg id="Layer_1" data-name="Layer 1" xmlns="http://www.w3.org/2000/svg" width="6000" height="1000" viewBox="0 0 6000 1000"><defs><style>.cls-1{fill:#f4e662;}.cls-2{fill:#3a3a3a;}.cls-3{fill:#f2f2f2;}.cls-4{fill:#88eda0;}.cls-5{fill:#8aff6d;}.cls-6{fill:#144e71;}.cls-7,.cls-8{fill:none;stroke-miterlimit:10;}.cls-7{stroke:#144e71;stroke-width:2px;}.cls-8{stroke:#f2f2f2;}</style></defs><title>line_balance</title><rect class="cls-1" x="1497.5509" y="190.8119" width="50.9426" height="333.1962"/><rect class="cls-1" x="1497.5509" y="711.5063" width="50.9426" height="289.3774"/><path class="cls-2" d="M1611.4354,83.9507c0,90.5946-44.5764,164.036-99.5642,164.036s-99.26-73.442-99.5642-164.036"/><path class="cls-2" d="M1611.4354,87.5078c0-65.3717-44.5581-118.366-99.5233-118.366s-99.2194,52.9947-99.5232,118.366"/><path class="cls-2" d="M1605.8226,85.0678c0,81.0528-42.0977,146.7591-94.0278,146.7591s-94.0278-65.7063-94.0278-146.7591"/><polygon class="cls-2" points="1606.131 87.215 1417.782 87.162 1441.464 -130.486 1577.598 -130.738 1606.131 87.215"/><rect class="cls-2" x="1473.7232" y="-115.5324" width="70.3709" height="192.0741" rx="12" ry="12"/><rect class="cls-2" x="1487.3367" y="-103.4324" width="45.9531" height="168.2461" rx="12" ry="12"/><path class="cls-2" d="M1533.3259-4.4785l-49.2047-23.1624a3.9626,3.9626,0,0,0-5.2785,1.8253h0a3.96,3.96,0,0,0,1.9714,5.2238l52.8042,22.8941"/><path class="cls-2" d="M1487.3782,24.6375l47.4129-23.4586a3.9066,3.9066,0,0,1,5.215,1.7706h0a3.9036,3.9036,0,0,1-1.7713,5.2128l-50.94,23.2225"/><path class="cls-2" d="M1533.4427,27.1981,1484.238,4.0357A3.9626,3.9626,0,0,0,1478.96,5.861h0a3.96,3.96,0,0,0,1.9714,5.2238l52.8042,22.8941"/><path class="cls-2" d="M1487.2634,56.6081l47.4188-23.4467c1.9212-.9466,4.1367-.4161,4.9233,1.1789h0c.7866,1.5951-.1416,3.6747-2.0628,4.6214l-50.8132,23.48"/><path class="cls-2" d="M1528.2044,55.8655l-44.97-21.1766a3.7942,3.7942,0,0,0-4.9667,1.9715h0a3.7912,3.7912,0,0,0,1.66,5.0776l48.3249,20.7935"/><rect class="cls-2" x="1482.3687" y="56.7849" width="52.0563" height="6.6997" rx="3.3498" ry="3.3498"/><circle class="cls-2" cx="1481.7664" cy="106.7626" r="2.7388"/><circle class="cls-2" cx="1491.6594" cy="106.7626" r="2.7388"/><circle class="cls-2" cx="1501.2264" cy="106.7766" r="2.7388"/><circle class="cls-2" cx="1510.8881" cy="106.7766" r="2.7388"/><circle class="cls-2" cx="1521.1684" cy="106.7766" r="2.7388"/><circle class="cls-2" cx="1530.1725" cy="106.7766" r="2.7388"/><circle class="cls-2" cx="1539.9284" cy="107.0127" r="2.7388"/><circle class="cls-2" cx="1486.3966" cy="116.6918" r="2.7388"/><circle class="cls-2" cx="1495.9636" cy="116.7057" r="2.7388"/><circle class="cls-2" cx="1505.6254" cy="116.7057" r="2.7388"/><circle class="cls-2" cx="1515.9057" cy="116.7057" r="2.7388"/><circle class="cls-2" cx="1524.9098" cy="116.7057" r="2.7388"/><circle class="cls-2" cx="1534.6657" cy="116.9418" r="2.7388"/><circle class="cls-2" cx="1491.429" cy="128.1176" r="2.7388"/><circle class="cls-2" cx="1501.0907" cy="128.1176" r="2.7388"/><circle class="cls-2" cx="1511.371" cy="128.1176" r="2.7388"/><circle class="cls-2" cx="1520.3751" cy="128.1176" r="2.7388"/><circle class="cls-2" cx="1530.131" cy="128.3536" r="2.7388"/><circle class="cls-2" cx="1496.4993" cy="137.9751" r="2.7388"/><circle class="cls-2" cx="1506.0544" cy="137.9751" r="2.7388"/><circle class="cls-2" cx="1515.7838" cy="137.9751" r="2.7388"/><circle class="cls-2" cx="1525.5397" cy="138.2112" r="2.7388"/><path class="cls-3" d="M1592.0767,83.9874c0,90.5946-44.5764,164.0361-99.5642,164.0361s-99.26-73.442-99.5642-164.0361"/><path class="cls-3" d="M1592.0767,87.5446c0-65.3718-44.5581-118.366-99.5232-118.366s-99.2194,52.9946-99.5233,118.366"/><path class="cls-4" d="M1586.4639,85.1046c0,81.0528-42.0976,146.7591-94.0278,146.7591s-94.0278-65.7063-94.0278-146.7591"/><polygon class="cls-4" points="1586.773 87.252 1398.424 87.198 1422.105 -130.449 1558.24 -130.701 1586.773 87.252"/><path class="cls-3" d="M1471.8064,233.072c0-7.77,4.9811-14.128,11.0691-14.128h16.8984c6.088,0,11.0691,6.3576,11.0691,14.128"/><rect class="cls-5" x="1454.3645" y="-115.4956" width="70.3709" height="192.0741" rx="12" ry="12"/><rect class="cls-6" x="1467.9781" y="-103.3956" width="45.9531" height="168.2461" rx="12" ry="12"/><path class="cls-3" d="M1513.9673-4.4417l-49.2048-23.1624a3.9625,3.9625,0,0,0-5.2784,1.8252h0a3.96,3.96,0,0,0,1.9713,5.2238L1514.26,2.3391"/><path class="cls-3" d="M1468.02,24.6743l47.4129-23.4587a3.9067,3.9067,0,0,1,5.215,1.7706h0a3.9036,3.9036,0,0,1-1.7713,5.2129l-50.94,23.2225"/><path class="cls-3" d="M1514.0841,27.2349,1464.8793,4.0725a3.9626,3.9626,0,0,0-5.2785,1.8253h0a3.96,3.96,0,0,0,1.9714,5.2238l52.8042,22.8941"/><path class="cls-3" d="M1467.9047,56.6449l47.4188-23.4467c1.9212-.9467,4.1367-.4162,4.9233,1.1789h0c.7866,1.5951-.1417,3.6747-2.0629,4.6214l-50.8132,23.48"/><path class="cls-3" d="M1508.8457,55.9023l-44.97-21.1766a3.7942,3.7942,0,0,0-4.9667,1.9714h0a3.7913,3.7913,0,0,0,1.66,5.0776l48.3249,20.7935"/><rect class="cls-3" x="1463.01" y="56.8216" width="52.0563" height="6.6997" rx="3.3498" ry="3.3498"/><circle class="cls-6" cx="1462.4077" cy="106.7994" r="2.7388"/><circle class="cls-6" cx="1472.3007" cy="106.7994" r="2.7388"/><circle class="cls-6" cx="1481.8677" cy="106.8133" r="2.7388"/><circle class="cls-6" cx="1491.5294" cy="106.8133" r="2.7388"/><circle class="cls-6" cx="1501.8097" cy="106.8133" r="2.7388"/><circle class="cls-6" cx="1510.8139" cy="106.8133" r="2.7388"/><circle class="cls-6" cx="1520.5698" cy="107.0494" r="2.7388"/><circle class="cls-6" cx="1467.038" cy="116.7286" r="2.7388"/><circle class="cls-6" cx="1476.605" cy="116.7425" r="2.7388"/><circle class="cls-6" cx="1486.2667" cy="116.7425" r="2.7388"/><circle class="cls-6" cx="1496.547" cy="116.7425" r="2.7388"/><circle class="cls-6" cx="1505.5511" cy="116.7425" r="2.7388"/><circle class="cls-6" cx="1515.307" cy="116.9786" r="2.7388"/><circle class="cls-6" cx="1472.0703" cy="128.1543" r="2.7388"/><circle class="cls-6" cx="1481.732" cy="128.1543" r="2.7388"/><circle class="cls-6" cx="1492.0123" cy="128.1543" r="2.7388"/><circle class="cls-6" cx="1501.0165" cy="128.1543" r="2.7388"/><circle class="cls-6" cx="1510.7723" cy="128.3904" r="2.7388"/><circle class="cls-6" cx="1477.1407" cy="138.0118" r="2.7388"/><circle class="cls-6" cx="1486.6957" cy="138.0118" r="2.7388"/><circle class="cls-6" cx="1496.4251" cy="138.0118" r="2.7388"/><circle class="cls-6" cx="1506.181" cy="138.2479" r="2.7388"/><path class="cls-7" d="M1585.5607,69.8518c-14.8426,1.73-31.9083-26.51-36.1955-63.2875s4.27-67.9936,19.1123-69.7238"/><path class="cls-7" d="M1401.2787,66.4449c14.8743,1.4324,31.37-27.1446,34.92-64s-5.6316-67.8943-20.5059-69.3267"/><path class="cls-2" d="M1545.4659,474.3376c0,90.5946,44.5764,164.0361,99.5642,164.0361s99.26-73.442,99.5642-164.0361"/><path class="cls-2" d="M1545.4659,477.8947c0-65.3717,44.5581-118.366,99.5233-118.366s99.2194,52.9947,99.5232,118.366"/><path class="cls-2" d="M1551.0787,475.4547c0,81.0528,42.0977,146.7591,94.0278,146.7591s94.0278-65.7063,94.0278-146.7591"/><path class="cls-2" d="M1716.1561,264.727c0-37.0057-30.6782-67.0047-68.5216-67.0047s-68.5217,29.999-68.5217,67.0047"/><polygon class="cls-2" points="1550.77 477.602 1739.119 477.548 1715.437 259.901 1579.303 259.649 1550.77 477.602"/><path class="cls-2" d="M1682.4105,280.8389c0-27.6654-15.5658-50.0926-34.7672-50.0926s-34.7673,22.4272-34.7673,50.0926"/><rect class="cls-2" x="1628.3079" y="182.4655" width="36.4518" height="65.2296" rx="12" ry="12" transform="translate(3293.0677 430.1605) rotate(-180)"/><rect class="cls-2" x="1612.8072" y="274.8546" width="70.3709" height="192.0741" rx="12" ry="12" transform="translate(3295.9853 741.7833) rotate(-180)"/><rect class="cls-2" x="1623.6114" y="286.9546" width="45.9531" height="168.2461" rx="12" ry="12" transform="translate(3293.176 742.1552) rotate(-180)"/><path class="cls-2" d="M1682.08,285.2967a7.0754,7.0754,0,0,0-6.1582-10.52l-27.922.04-27.9221.04a6.965,6.965,0,0,0-5.937,10.5378l14.2162,24.2869,14.2163,24.2868a6.965,6.965,0,0,0,12.0952-.0173l13.7058-24.3268Z"/><path class="cls-2" d="M1669.578,324.4146l-47.4321-23.4777a3.9074,3.9074,0,0,0-5.217,1.772h0a3.9075,3.9075,0,0,0,1.772,5.2171l50.96,23.2413"/><path class="cls-2" d="M1623.4949,326.9773l49.2246-23.1812A3.9634,3.9634,0,0,1,1678,305.6228h0a3.9634,3.9634,0,0,1-1.9721,5.228l-52.8256,22.9127"/><path class="cls-2" d="M1669.64,383.3478l-47.4129-23.4586a3.9066,3.9066,0,0,0-5.215,1.7706h0a3.9036,3.9036,0,0,0,1.7713,5.2128l50.94,23.2225"/><path class="cls-2" d="M1623.5753,385.9084,1672.78,362.746a3.9625,3.9625,0,0,1,5.2784,1.8253h0a3.96,3.96,0,0,1-1.9713,5.2238l-52.8042,22.8941"/><path class="cls-2" d="M1669.5231,415.0245,1622.11,391.5658a3.9067,3.9067,0,0,0-5.215,1.7706h0a3.9037,3.9037,0,0,0,1.7713,5.2129l50.94,23.2224"/><path class="cls-2" d="M1623.4586,417.5851l49.2047-23.1624a3.9626,3.9626,0,0,1,5.2785,1.8252h0a3.96,3.96,0,0,1-1.9714,5.2238l-52.8042,22.8941"/><path class="cls-2" d="M1669.6379,446.995l-47.4188-23.4466c-1.9212-.9467-4.1367-.4162-4.9233,1.1789h0c-.7867,1.595.1416,3.6746,2.0628,4.6213l50.8132,23.48"/><path class="cls-2" d="M1628.6969,446.2524l44.97-21.1766a3.7942,3.7942,0,0,1,4.9667,1.9715h0a3.7914,3.7914,0,0,1-1.66,5.0777l-48.3249,20.7934"/><path class="cls-2" d="M1669.57,353.4635l-47.7094-23.6082a3.9952,3.9952,0,0,0-5.303,1.894h0a3.9924,3.9924,0,0,0,1.7272,5.3578l51.2837,23.3194"/><path class="cls-2" d="M1623.1873,355.8638l49.2048-23.1624a3.9624,3.9624,0,0,1,5.2784,1.8252h0a3.96,3.96,0,0,1-1.9714,5.2238l-52.8042,22.8942"/><rect class="cls-2" x="1622.4763" y="447.1718" width="52.0563" height="6.6997" rx="3.3498" ry="3.3498" transform="translate(3297.0089 901.0433) rotate(-180)"/><circle class="cls-2" cx="1675.1349" cy="497.1496" r="2.7388"/><circle class="cls-2" cx="1665.2419" cy="497.1496" r="2.7388"/><circle class="cls-2" cx="1655.6749" cy="497.1635" r="2.7388"/><circle class="cls-2" cx="1646.0132" cy="497.1635" r="2.7388"/><circle class="cls-2" cx="1635.7329" cy="497.1635" r="2.7388"/><circle class="cls-2" cx="1626.7287" cy="497.1635" r="2.7388"/><circle class="cls-2" cx="1616.9729" cy="497.3996" r="2.7388"/><circle class="cls-2" cx="1670.5047" cy="507.0787" r="2.7388"/><circle class="cls-2" cx="1660.9377" cy="507.0926" r="2.7388"/><circle class="cls-2" cx="1651.2759" cy="507.0926" r="2.7388"/><circle class="cls-2" cx="1640.9956" cy="507.0926" r="2.7388"/><circle class="cls-2" cx="1631.9915" cy="507.0926" r="2.7388"/><circle class="cls-2" cx="1622.2356" cy="507.3287" r="2.7388"/><circle class="cls-2" cx="1665.4723" cy="518.5045" r="2.7388"/><circle class="cls-2" cx="1655.8106" cy="518.5045" r="2.7388"/><circle class="cls-2" cx="1645.5303" cy="518.5045" r="2.7388"/><circle class="cls-2" cx="1636.5261" cy="518.5045" r="2.7388"/><circle class="cls-2" cx="1626.7703" cy="518.7406" r="2.7388"/><circle class="cls-2" cx="1660.402" cy="528.362" r="2.7388"/><circle class="cls-2" cx="1650.8469" cy="528.362" r="2.7388"/><circle class="cls-2" cx="1641.1175" cy="528.362" r="2.7388"/><circle class="cls-2" cx="1631.3616" cy="528.5981" r="2.7388"/><path class="cls-3" d="M1532.0586,473.0214c0,90.5946,44.5764,164.036,99.5642,164.036s99.26-73.442,99.5643-164.036"/><path class="cls-3" d="M1532.0586,476.5785c0-65.3717,44.5581-118.366,99.5233-118.366s99.2194,52.9947,99.5233,118.366"/><path class="cls-4" d="M1537.6714,474.1385c0,81.0528,42.0977,146.7591,94.0278,146.7591s94.0278-65.7063,94.0278-146.7591"/><path class="cls-4" d="M1702.7489,263.4107c0-37.0056-30.6782-67.0046-68.5217-67.0046s-68.5217,29.999-68.5217,67.0046"/><polygon class="cls-4" points="1537.363 476.286 1725.712 476.232 1702.03 258.584 1565.896 258.333 1537.363 476.286"/><path class="cls-3" d="M1652.3289,622.1059c0-7.77-4.9811-14.1279-11.0691-14.1279h-16.8984c-6.088,0-11.069,6.3576-11.069,14.1279"/><path class="cls-3" d="M1669.0032,279.5227c0-27.6654-15.5658-50.0926-34.7672-50.0926s-34.7672,22.4272-34.7672,50.0926"/><rect class="cls-3" x="1614.9007" y="181.1492" width="36.4518" height="65.2296" rx="12" ry="12" transform="translate(3266.2532 427.5281) rotate(-180)"/><rect class="cls-5" x="1599.3999" y="273.5384" width="70.3709" height="192.0741" rx="12" ry="12" transform="translate(3269.1708 739.1509) rotate(-180)"/><rect class="cls-6" x="1610.2042" y="285.6384" width="45.9531" height="168.2461" rx="12" ry="12" transform="translate(3266.3615 739.5228) rotate(-180)"/><path class="cls-6" d="M1668.6725,283.9805a7.0753,7.0753,0,0,0-6.1581-10.5205l-27.9221.04-27.922.04a6.9651,6.9651,0,0,0-5.9371,10.5378l14.2163,24.2869,14.2162,24.2868a6.965,6.965,0,0,0,12.0952-.0173l13.7058-24.3268Z"/><path class="cls-3" d="M1656.1708,323.0984l-47.4321-23.4777a3.9075,3.9075,0,0,0-5.2171,1.772h0a3.9075,3.9075,0,0,0,1.772,5.2171l50.9606,23.2413"/><path class="cls-3" d="M1610.0876,325.6611l49.2246-23.1812a3.9635,3.9635,0,0,1,5.2807,1.8267h0a3.9636,3.9636,0,0,1-1.9722,5.2281l-52.8256,22.9127"/><path class="cls-3" d="M1656.2326,382.0316,1608.82,358.573a3.9066,3.9066,0,0,0-5.215,1.7705h0a3.9036,3.9036,0,0,0,1.7713,5.2129l50.94,23.2225"/><path class="cls-3" d="M1610.1681,384.5922l49.2047-23.1624a3.9626,3.9626,0,0,1,5.2785,1.8253h0a3.96,3.96,0,0,1-1.9714,5.2238l-52.8042,22.8941"/><path class="cls-3" d="M1656.1158,413.7082,1608.7029,390.25a3.9067,3.9067,0,0,0-5.215,1.7706h0a3.9035,3.9035,0,0,0,1.7714,5.2128l50.94,23.2225"/><path class="cls-3" d="M1610.0513,416.2689l49.2047-23.1624a3.9626,3.9626,0,0,1,5.2785,1.8252h0a3.96,3.96,0,0,1-1.9714,5.2238L1609.7589,423.05"/><path class="cls-3" d="M1656.2306,445.6788l-47.4188-23.4466c-1.9212-.9467-4.1367-.4162-4.9233,1.1788h0c-.7866,1.595.1417,3.6746,2.0629,4.6213l50.8131,23.48"/><path class="cls-3" d="M1615.29,444.9362l44.97-21.1766a3.7942,3.7942,0,0,1,4.9667,1.9715h0a3.7912,3.7912,0,0,1-1.66,5.0776l-48.3249,20.7935"/><path class="cls-3" d="M1656.163,352.1473l-47.7094-23.6082a3.9953,3.9953,0,0,0-5.303,1.8939h0a3.9923,3.9923,0,0,0,1.7271,5.3578l51.2837,23.3194"/><path class="cls-3" d="M1609.78,354.5475l49.2047-23.1624a3.9626,3.9626,0,0,1,5.2785,1.8253h0a3.96,3.96,0,0,1-1.9714,5.2238l-52.8042,22.8941"/><rect class="cls-8" x="1615.5388" y="261.7545" width="36.4518" height="34.1835" transform="translate(3267.5295 557.6925) rotate(-180)"/><rect class="cls-3" x="1609.069" y="445.8556" width="52.0563" height="6.6997" rx="3.3498" ry="3.3498" transform="translate(3270.1944 898.4108) rotate(180)"/><circle class="cls-6" cx="1661.7276" cy="495.8333" r="2.7388"/><circle class="cls-6" cx="1651.8346" cy="495.8333" r="2.7388"/><circle class="cls-6" cx="1642.2677" cy="495.8473" r="2.7388"/><circle class="cls-6" cx="1632.6059" cy="495.8473" r="2.7388"/><circle class="cls-6" cx="1622.3256" cy="495.8473" r="2.7388"/><circle class="cls-6" cx="1613.3215" cy="495.8473" r="2.7388"/><circle class="cls-6" cx="1603.5656" cy="496.0834" r="2.7388"/><circle class="cls-6" cx="1657.0974" cy="505.7625" r="2.7388"/><circle class="cls-6" cx="1647.5304" cy="505.7764" r="2.7388"/><circle class="cls-6" cx="1637.8687" cy="505.7764" r="2.7388"/><circle class="cls-6" cx="1627.5884" cy="505.7764" r="2.7388"/><circle class="cls-6" cx="1618.5842" cy="505.7764" r="2.7388"/><circle class="cls-6" cx="1608.8283" cy="506.0125" r="2.7388"/><circle class="cls-6" cx="1652.0651" cy="517.1883" r="2.7388"/><circle class="cls-6" cx="1642.4033" cy="517.1883" r="2.7388"/><circle class="cls-6" cx="1632.123" cy="517.1883" r="2.7388"/><circle class="cls-6" cx="1623.1189" cy="517.1883" r="2.7388"/><circle class="cls-6" cx="1613.363" cy="517.4244" r="2.7388"/><circle class="cls-6" cx="1646.9947" cy="527.0458" r="2.7388"/><circle class="cls-6" cx="1637.4396" cy="527.0458" r="2.7388"/><circle class="cls-6" cx="1627.7103" cy="527.0458" r="2.7388"/><circle class="cls-6" cx="1617.9544" cy="527.2819" r="2.7388"/><path class="cls-7" d="M1538.5746,458.8857c14.8426,1.73,31.9083-26.51,36.1955-63.2875s-4.27-67.9936-19.1122-69.7238"/><path class="cls-7" d="M1722.8566,455.4788c-14.8743,1.4324-31.37-27.1446-34.92-64s5.6316-67.8943,20.506-69.3267"/><rect class="cls-1" x="500.2902" y="193.6884" width="50.9426" height="333.1962"/><rect class="cls-1" x="500.2902" y="714.3827" width="50.9426" height="289.3774"/><path class="cls-2" d="M614.1748,86.8271c0,90.5946-44.5765,164.0361-99.5643,164.0361s-99.26-73.442-99.5642-164.0361"/><path class="cls-2" d="M614.1748,90.3843c0-65.3718-44.5581-118.3661-99.5233-118.3661S415.4321,25.0129,415.1282,90.3843"/><path class="cls-2" d="M608.562,87.9443c0,81.0528-42.0977,146.759-94.0278,146.759s-94.0278-65.7062-94.0278-146.759"/><polygon class="cls-2" points="608.871 90.091 420.522 90.038 444.204 -127.61 580.338 -127.861 608.871 90.091"/><rect class="cls-2" x="476.4625" y="-112.6559" width="70.3709" height="192.0741" rx="12" ry="12"/><rect class="cls-2" x="490.0761" y="-100.5559" width="45.9531" height="168.2461" rx="12" ry="12"/><path class="cls-2" d="M490.0008-4.1627l47.4129-23.4586a3.9065,3.9065,0,0,1,5.2149,1.7706h0a3.9035,3.9035,0,0,1-1.7714,5.2128l-50.94,23.2225"/><path class="cls-2" d="M536.0653-1.602,486.8606-24.7644a3.9626,3.9626,0,0,0-5.2785,1.8252h0a3.96,3.96,0,0,0,1.9714,5.2238L536.3577,5.1788"/><path class="cls-2" d="M490.1176,27.514,537.5305,4.0553a3.9066,3.9066,0,0,1,5.2149,1.7706h0a3.9036,3.9036,0,0,1-1.7713,5.2129l-50.94,23.2224"/><path class="cls-2" d="M536.1821,30.0746,486.9774,6.9122a3.9626,3.9626,0,0,0-5.2785,1.8253h0a3.96,3.96,0,0,0,1.9714,5.2238l52.8041,22.8941"/><path class="cls-2" d="M490.0028,59.4846l47.4188-23.4467c1.9212-.9467,4.1367-.4162,4.9233,1.1789h0c.7866,1.5951-.1417,3.6747-2.0629,4.6213l-50.8131,23.48"/><path class="cls-2" d="M530.9438,58.742l-44.97-21.1767a3.7942,3.7942,0,0,0-4.9667,1.9715h0a3.7913,3.7913,0,0,0,1.66,5.0777L530.9913,65.408"/><rect class="cls-2" x="485.108" y="59.6613" width="52.0563" height="6.6997" rx="3.3498" ry="3.3498"/><circle class="cls-2" cx="484.5057" cy="109.6391" r="2.7388"/><circle class="cls-2" cx="494.3987" cy="109.6391" r="2.7388"/><circle class="cls-2" cx="503.9657" cy="109.653" r="2.7388"/><circle class="cls-2" cx="513.6275" cy="109.653" r="2.7388"/><circle class="cls-2" cx="523.9078" cy="109.653" r="2.7388"/><circle class="cls-2" cx="532.9119" cy="109.653" r="2.7388"/><circle class="cls-2" cx="542.6678" cy="109.8891" r="2.7388"/><circle class="cls-2" cx="489.136" cy="119.5682" r="2.7388"/><circle class="cls-2" cx="498.703" cy="119.5822" r="2.7388"/><circle class="cls-2" cx="508.3647" cy="119.5822" r="2.7388"/><circle class="cls-2" cx="518.645" cy="119.5822" r="2.7388"/><circle class="cls-2" cx="527.6492" cy="119.5822" r="2.7388"/><circle class="cls-2" cx="537.405" cy="119.8182" r="2.7388"/><circle class="cls-2" cx="494.1683" cy="130.994" r="2.7388"/><circle class="cls-2" cx="503.8301" cy="130.994" r="2.7388"/><circle class="cls-2" cx="514.1104" cy="130.994" r="2.7388"/><circle class="cls-2" cx="523.1145" cy="130.994" r="2.7388"/><circle class="cls-2" cx="532.8704" cy="131.2301" r="2.7388"/><circle class="cls-2" cx="499.2387" cy="140.8515" r="2.7388"/><circle class="cls-2" cx="508.7937" cy="140.8515" r="2.7388"/><circle class="cls-2" cx="518.5231" cy="140.8515" r="2.7388"/><circle class="cls-2" cx="528.279" cy="141.0876" r="2.7388"/><path class="cls-3" d="M594.8161,86.8639c0,90.5946-44.5764,164.036-99.5642,164.036s-99.26-73.442-99.5643-164.036"/><path class="cls-3" d="M594.8161,90.421c0-65.3717-44.5581-118.366-99.5233-118.366S396.0734,25.05,395.77,90.421"/><path class="cls-4" d="M589.2033,87.981c0,81.0528-42.0977,146.7591-94.0278,146.7591S401.1477,169.0338,401.1477,87.981"/><polygon class="cls-4" points="589.512 90.128 401.163 90.075 424.845 -127.573 560.979 -127.825 589.512 90.128"/><path class="cls-3" d="M474.5458,235.9484c0-7.77,4.9811-14.1279,11.0691-14.1279h16.8984c6.088,0,11.0691,6.3576,11.0691,14.1279"/><rect class="cls-5" x="457.1039" y="-112.6191" width="70.3709" height="192.0741" rx="12" ry="12"/><rect class="cls-6" x="470.7174" y="-100.5191" width="45.9531" height="168.2461" rx="12" ry="12"/><path class="cls-3" d="M470.6421-4.1259,518.055-27.5845a3.9066,3.9066,0,0,1,5.215,1.7706h0a3.9036,3.9036,0,0,1-1.7713,5.2128l-50.94,23.2225"/><path class="cls-3" d="M516.7066-1.5653,467.5019-24.7277a3.9626,3.9626,0,0,0-5.2785,1.8253h0a3.96,3.96,0,0,0,1.9714,5.2238L516.999,5.2155"/><path class="cls-3" d="M470.7589,27.5508,518.1718,4.0921a3.9066,3.9066,0,0,1,5.215,1.7706h0a3.9036,3.9036,0,0,1-1.7713,5.2128l-50.94,23.2225"/><path class="cls-3" d="M516.8234,30.1114,467.6187,6.949A3.9626,3.9626,0,0,0,462.34,8.7742h0a3.96,3.96,0,0,0,1.9714,5.2239l52.8042,22.8941"/><path class="cls-3" d="M470.6441,59.5213l47.4188-23.4466c1.9212-.9467,4.1367-.4162,4.9233,1.1789h0c.7866,1.595-.1417,3.6746-2.0629,4.6213L470.11,65.3545"/><path class="cls-3" d="M511.5851,58.7787l-44.97-21.1766a3.7942,3.7942,0,0,0-4.9667,1.9715h0a3.7914,3.7914,0,0,0,1.66,5.0777l48.3249,20.7934"/><rect class="cls-3" x="465.7494" y="59.6981" width="52.0563" height="6.6997" rx="3.3498" ry="3.3498"/><circle class="cls-6" cx="465.1471" cy="109.6759" r="2.7388"/><circle class="cls-6" cx="475.0401" cy="109.6759" r="2.7388"/><circle class="cls-6" cx="484.6071" cy="109.6898" r="2.7388"/><circle class="cls-6" cx="494.2688" cy="109.6898" r="2.7388"/><circle class="cls-6" cx="504.5491" cy="109.6898" r="2.7388"/><circle class="cls-6" cx="513.5532" cy="109.6898" r="2.7388"/><circle class="cls-6" cx="523.3091" cy="109.9259" r="2.7388"/><circle class="cls-6" cx="469.7773" cy="119.605" r="2.7388"/><circle class="cls-6" cx="479.3443" cy="119.6189" r="2.7388"/><circle class="cls-6" cx="489.006" cy="119.6189" r="2.7388"/><circle class="cls-6" cx="499.2863" cy="119.6189" r="2.7388"/><circle class="cls-6" cx="508.2905" cy="119.6189" r="2.7388"/><circle class="cls-6" cx="518.0464" cy="119.855" r="2.7388"/><circle class="cls-6" cx="474.8096" cy="131.0308" r="2.7388"/><circle class="cls-6" cx="484.4714" cy="131.0308" r="2.7388"/><circle class="cls-6" cx="494.7517" cy="131.0308" r="2.7388"/><circle class="cls-6" cx="503.7558" cy="131.0308" r="2.7388"/><circle class="cls-6" cx="513.5117" cy="131.2669" r="2.7388"/><circle class="cls-6" cx="479.88" cy="140.8883" r="2.7388"/><circle class="cls-6" cx="489.4351" cy="140.8883" r="2.7388"/><circle class="cls-6" cx="499.1645" cy="140.8883" r="2.7388"/><circle class="cls-6" cx="508.9203" cy="141.1244" r="2.7388"/><path class="cls-7" d="M588.3,72.7282c-14.8426,1.73-31.9083-26.51-36.1955-63.2875s4.27-67.9936,19.1122-69.7238"/><path class="cls-7" d="M404.0181,69.3213c14.8743,1.4324,31.37-27.1446,34.92-64s-5.6316-67.8943-20.5059-69.3267"/><rect class="cls-1" x="2497.5509" y="193.5146" width="50.9426" height="333.1962"/><rect class="cls-1" x="2497.5509" y="714.209" width="50.9426" height="289.3774"/><path class="cls-2" d="M2545.4659,477.04c0,90.5946,44.5764,164.0361,99.5642,164.0361s99.26-73.442,99.5642-164.0361"/><path class="cls-2" d="M2545.4659,480.5974c0-65.3717,44.5581-118.366,99.5233-118.366s99.2194,52.9947,99.5232,118.366"/><path class="cls-2" d="M2551.0787,478.1574c0,81.0528,42.0977,146.7591,94.0278,146.7591s94.0278-65.7063,94.0278-146.7591"/><path class="cls-2" d="M2716.1561,267.43c0-37.0057-30.6782-67.0047-68.5216-67.0047s-68.5217,29.999-68.5217,67.0047"/><polygon class="cls-2" points="2550.77 480.305 2739.119 480.251 2715.437 262.603 2579.303 262.352 2550.77 480.305"/><path class="cls-2" d="M2682.4105,283.5416c0-27.6654-15.5658-50.0926-34.7672-50.0926s-34.7673,22.4272-34.7673,50.0926"/><rect class="cls-2" x="2628.3079" y="185.1682" width="36.4518" height="65.2296" rx="12" ry="12" transform="translate(5293.0677 435.5659) rotate(-180)"/><rect class="cls-2" x="2612.8072" y="277.5573" width="70.3709" height="192.0741" rx="12" ry="12" transform="translate(5295.9853 747.1887) rotate(-180)"/><rect class="cls-2" x="2623.6114" y="289.6573" width="45.9531" height="168.2461" rx="12" ry="12" transform="translate(5293.176 747.5606) rotate(-180)"/><path class="cls-2" d="M2682.08,287.9994a7.0754,7.0754,0,0,0-6.1582-10.52l-27.922.04-27.9221.04a6.965,6.965,0,0,0-5.937,10.5378l14.2162,24.2869L2642.573,336.67a6.965,6.965,0,0,0,12.0952-.0173l13.7058-24.3268Z"/><path class="cls-2" d="M2669.578,327.1173,2622.1459,303.64a3.9074,3.9074,0,0,0-5.217,1.772h0a3.9075,3.9075,0,0,0,1.772,5.2171l50.9605,23.2413"/><path class="cls-2" d="M2623.4949,329.68l49.2246-23.1812A3.9634,3.9634,0,0,1,2678,308.3256h0a3.9633,3.9633,0,0,1-1.9721,5.228l-52.8256,22.9127"/><path class="cls-2" d="M2669.64,386.0505l-47.4129-23.4586a3.9066,3.9066,0,0,0-5.215,1.7706h0a3.9036,3.9036,0,0,0,1.7713,5.2128l50.94,23.2225"/><path class="cls-2" d="M2623.5753,388.6111l49.2048-23.1624a3.9625,3.9625,0,0,1,5.2784,1.8253h0a3.96,3.96,0,0,1-1.9713,5.2238l-52.8042,22.8941"/><path class="cls-2" d="M2669.5231,417.7272,2622.11,394.2685a3.9067,3.9067,0,0,0-5.215,1.7706h0a3.9037,3.9037,0,0,0,1.7713,5.2129l50.94,23.2224"/><path class="cls-2" d="M2623.4586,420.2878l49.2047-23.1624a3.9627,3.9627,0,0,1,5.2785,1.8252h0a3.96,3.96,0,0,1-1.9714,5.2238l-52.8042,22.8941"/><path class="cls-2" d="M2669.6379,449.6977l-47.4188-23.4466c-1.9212-.9467-4.1367-.4162-4.9233,1.1789h0c-.7867,1.595.1416,3.6746,2.0628,4.6213l50.8132,23.48"/><path class="cls-2" d="M2628.6969,448.9551l44.97-21.1766a3.7942,3.7942,0,0,1,4.9667,1.9715h0a3.7914,3.7914,0,0,1-1.66,5.0777l-48.3249,20.7935"/><path class="cls-2" d="M2669.57,356.1662l-47.7094-23.6082a3.9953,3.9953,0,0,0-5.303,1.894h0a3.9924,3.9924,0,0,0,1.7272,5.3578l51.2837,23.3194"/><path class="cls-2" d="M2623.1873,358.5665l49.2048-23.1624a3.9624,3.9624,0,0,1,5.2784,1.8252h0a3.96,3.96,0,0,1-1.9714,5.2239l-52.8042,22.8941"/><rect class="cls-2" x="2622.4763" y="449.8745" width="52.0563" height="6.6997" rx="3.3498" ry="3.3498" transform="translate(5297.0089 906.4487) rotate(-180)"/><circle class="cls-2" cx="2675.1349" cy="499.8523" r="2.7388"/><circle class="cls-2" cx="2665.2419" cy="499.8523" r="2.7388"/><circle class="cls-2" cx="2655.6749" cy="499.8662" r="2.7388"/><circle class="cls-2" cx="2646.0132" cy="499.8662" r="2.7388"/><circle class="cls-2" cx="2635.7329" cy="499.8662" r="2.7388"/><circle class="cls-2" cx="2626.7287" cy="499.8662" r="2.7388"/><circle class="cls-2" cx="2616.9729" cy="500.1023" r="2.7388"/><circle class="cls-2" cx="2670.5047" cy="509.7814" r="2.7388"/><circle class="cls-2" cx="2660.9377" cy="509.7954" r="2.7388"/><circle class="cls-2" cx="2651.2759" cy="509.7954" r="2.7388"/><circle class="cls-2" cx="2640.9956" cy="509.7954" r="2.7388"/><circle class="cls-2" cx="2631.9915" cy="509.7954" r="2.7388"/><circle class="cls-2" cx="2622.2356" cy="510.0314" r="2.7388"/><circle class="cls-2" cx="2665.4723" cy="521.2072" r="2.7388"/><circle class="cls-2" cx="2655.8106" cy="521.2072" r="2.7388"/><circle class="cls-2" cx="2645.5303" cy="521.2072" r="2.7388"/><circle class="cls-2" cx="2636.5261" cy="521.2072" r="2.7388"/><circle class="cls-2" cx="2626.7703" cy="521.4433" r="2.7388"/><circle class="cls-2" cx="2660.402" cy="531.0647" r="2.7388"/><circle class="cls-2" cx="2650.8469" cy="531.0647" r="2.7388"/><circle class="cls-2" cx="2641.1175" cy="531.0647" r="2.7388"/><circle class="cls-2" cx="2631.3616" cy="531.3008" r="2.7388"/><path class="cls-3" d="M2532.0586,475.7241c0,90.5946,44.5764,164.036,99.5642,164.036s99.26-73.442,99.5643-164.036"/><path class="cls-3" d="M2532.0586,479.2812c0-65.3717,44.5581-118.366,99.5233-118.366s99.2194,52.9947,99.5233,118.366"/><path class="cls-4" d="M2537.6714,476.8412c0,81.0528,42.0977,146.7591,94.0278,146.7591s94.0278-65.7063,94.0278-146.7591"/><path class="cls-4" d="M2702.7489,266.1134c0-37.0056-30.6782-67.0046-68.5217-67.0046s-68.5217,29.999-68.5217,67.0046"/><polygon class="cls-4" points="2537.363 478.988 2725.712 478.935 2702.03 261.287 2565.896 261.036 2537.363 478.988"/><path class="cls-3" d="M2652.3289,624.8086c0-7.77-4.9811-14.1279-11.0691-14.1279h-16.8984c-6.088,0-11.069,6.3576-11.069,14.1279"/><path class="cls-3" d="M2669.0032,282.2254c0-27.6654-15.5658-50.0926-34.7672-50.0926s-34.7672,22.4272-34.7672,50.0926"/><rect class="cls-3" x="2614.9007" y="183.8519" width="36.4518" height="65.2296" rx="12" ry="12" transform="translate(5266.2532 432.9335) rotate(-180)"/><rect class="cls-5" x="2599.3999" y="276.2411" width="70.3709" height="192.0741" rx="12" ry="12" transform="translate(5269.1708 744.5563) rotate(-180)"/><rect class="cls-6" x="2610.2042" y="288.3411" width="45.9531" height="168.2461" rx="12" ry="12" transform="translate(5266.3615 744.9282) rotate(-180)"/><path class="cls-6" d="M2668.6725,286.6832a7.0753,7.0753,0,0,0-6.1581-10.5205l-27.9221.04-27.922.04a6.9651,6.9651,0,0,0-5.9371,10.5378l14.2163,24.2869,14.2162,24.2868a6.965,6.965,0,0,0,12.0952-.0173l13.7058-24.3268Z"/><path class="cls-3" d="M2656.1708,325.8011l-47.4321-23.4777a3.9075,3.9075,0,0,0-5.2171,1.772h0a3.9075,3.9075,0,0,0,1.772,5.2171l50.9606,23.2413"/><path class="cls-3" d="M2610.0876,328.3638l49.2246-23.1812a3.9635,3.9635,0,0,1,5.2807,1.8267h0a3.9636,3.9636,0,0,1-1.9722,5.2281L2609.7951,335.15"/><path class="cls-3" d="M2656.2326,384.7343,2608.82,361.2757a3.9066,3.9066,0,0,0-5.215,1.7705h0a3.9036,3.9036,0,0,0,1.7713,5.2129l50.94,23.2225"/><path class="cls-3" d="M2610.1681,387.2949l49.2047-23.1624a3.9626,3.9626,0,0,1,5.2785,1.8253h0a3.96,3.96,0,0,1-1.9714,5.2238l-52.8042,22.8941"/><path class="cls-3" d="M2656.1158,416.4109l-47.4129-23.4586a3.9067,3.9067,0,0,0-5.215,1.7706h0a3.9035,3.9035,0,0,0,1.7714,5.2128l50.94,23.2225"/><path class="cls-3" d="M2610.0513,418.9716l49.2047-23.1624a3.9626,3.9626,0,0,1,5.2785,1.8252h0a3.96,3.96,0,0,1-1.9714,5.2238l-52.8042,22.8942"/><path class="cls-3" d="M2656.2306,448.3815l-47.4188-23.4466c-1.9212-.9467-4.1367-.4162-4.9233,1.1788h0c-.7866,1.595.1417,3.6746,2.0629,4.6213l50.8131,23.48"/><path class="cls-3" d="M2615.29,447.6389l44.97-21.1766a3.7942,3.7942,0,0,1,4.9667,1.9715h0a3.7912,3.7912,0,0,1-1.66,5.0776l-48.3249,20.7935"/><path class="cls-3" d="M2656.163,354.85l-47.7094-23.6082a3.9953,3.9953,0,0,0-5.303,1.8939h0a3.9923,3.9923,0,0,0,1.7271,5.3578l51.2837,23.3194"/><path class="cls-3" d="M2609.78,357.25l49.2047-23.1624a3.9626,3.9626,0,0,1,5.2785,1.8253h0a3.96,3.96,0,0,1-1.9714,5.2238l-52.8042,22.8941"/><rect class="cls-8" x="2615.5388" y="264.4572" width="36.4518" height="34.1835" transform="translate(5267.5295 563.0979) rotate(-180)"/><rect class="cls-3" x="2609.069" y="448.5583" width="52.0563" height="6.6997" rx="3.3498" ry="3.3498" transform="translate(5270.1944 903.8162) rotate(180)"/><circle class="cls-6" cx="2661.7276" cy="498.5361" r="2.7388"/><circle class="cls-6" cx="2651.8346" cy="498.5361" r="2.7388"/><circle class="cls-6" cx="2642.2677" cy="498.55" r="2.7388"/><circle class="cls-6" cx="2632.6059" cy="498.55" r="2.7388"/><circle class="cls-6" cx="2622.3256" cy="498.55" r="2.7388"/><circle class="cls-6" cx="2613.3215" cy="498.55" r="2.7388"/><circle class="cls-6" cx="2603.5656" cy="498.7861" r="2.7388"/><circle class="cls-6" cx="2657.0974" cy="508.4652" r="2.7388"/><circle class="cls-6" cx="2647.5304" cy="508.4791" r="2.7388"/><circle class="cls-6" cx="2637.8687" cy="508.4791" r="2.7388"/><circle class="cls-6" cx="2627.5884" cy="508.4791" r="2.7388"/><circle class="cls-6" cx="2618.5842" cy="508.4791" r="2.7388"/><circle class="cls-6" cx="2608.8283" cy="508.7152" r="2.7388"/><circle class="cls-6" cx="2652.0651" cy="519.891" r="2.7388"/><circle class="cls-6" cx="2642.4033" cy="519.891" r="2.7388"/><circle class="cls-6" cx="2632.123" cy="519.891" r="2.7388"/><circle class="cls-6" cx="2623.1189" cy="519.891" r="2.7388"/><circle class="cls-6" cx="2613.363" cy="520.1271" r="2.7388"/><circle class="cls-6" cx="2646.9947" cy="529.7485" r="2.7388"/><circle class="cls-6" cx="2637.4396" cy="529.7485" r="2.7388"/><circle class="cls-6" cx="2627.7103" cy="529.7485" r="2.7388"/><circle class="cls-6" cx="2617.9544" cy="529.9846" r="2.7388"/><path class="cls-7" d="M2538.5746,461.5884c14.8426,1.73,31.9083-26.51,36.1955-63.2875s-4.27-67.9936-19.1122-69.7238"/><path class="cls-7" d="M2722.8566,458.1815c-14.8743,1.4324-31.37-27.1446-34.92-64s5.6316-67.8943,20.506-69.3267"/><rect class="cls-1" x="2350.4546" y="567.8318" width="50.9426" height="111.7873"/><path class="cls-2" d="M2528.3392,807.1251c0,90.5946-44.5764,164.036-99.5642,164.036s-99.26-73.442-99.5643-164.036"/><path class="cls-2" d="M2528.3392,810.6822c0-65.3717-44.5581-118.366-99.5233-118.366s-99.2194,52.9947-99.5233,118.366"/><path class="cls-2" d="M2522.7264,808.2422c0,81.0528-42.0977,146.7591-94.0278,146.7591s-94.0278-65.7063-94.0278-146.7591"/><path class="cls-2" d="M2357.6489,597.5144c0-37.0056,30.6782-67.0046,68.5217-67.0046s68.5217,29.999,68.5217,67.0046"/><polygon class="cls-2" points="2523.035 810.389 2334.686 810.336 2358.368 592.688 2494.502 592.437 2523.035 810.389"/><path class="cls-2" d="M2391.3946,613.6264c0-27.6654,15.5658-50.0926,34.7672-50.0926s34.7672,22.4272,34.7672,50.0926"/><rect class="cls-2" x="2409.0453" y="515.2529" width="36.4518" height="65.2296" rx="12" ry="12"/><rect class="cls-2" x="2390.627" y="607.642" width="70.3709" height="192.0741" rx="12" ry="12"/><rect class="cls-2" x="2404.2405" y="619.742" width="45.9531" height="168.2461" rx="12" ry="12"/><path class="cls-2" d="M2391.7253,618.0842a7.0753,7.0753,0,0,1,6.1581-10.52l27.9221.04,27.922.04a6.9651,6.9651,0,0,1,5.9371,10.5378l-14.2163,24.2868-14.2162,24.2869a6.965,6.965,0,0,1-12.0952-.0173l-13.7058-24.3268Z"/><path class="cls-2" d="M2404.227,657.2021l47.4321-23.4777a3.9075,3.9075,0,0,1,5.2171,1.772h0a3.9075,3.9075,0,0,1-1.772,5.2171l-50.9605,23.2413"/><path class="cls-2" d="M2450.31,659.7648l-49.2246-23.1812a3.9635,3.9635,0,0,0-5.2807,1.8267h0a3.9636,3.9636,0,0,0,1.9722,5.2281l52.8256,22.9127"/><path class="cls-2" d="M2404.1652,716.1353l47.4129-23.4587a3.9067,3.9067,0,0,1,5.215,1.7706h0a3.9036,3.9036,0,0,1-1.7713,5.2129l-50.94,23.2225"/><path class="cls-2" d="M2450.23,718.6959l-49.2047-23.1624a3.9626,3.9626,0,0,0-5.2785,1.8253h0a3.96,3.96,0,0,0,1.9714,5.2238l52.8042,22.8941"/><path class="cls-2" d="M2404.282,747.8119l47.4129-23.4586a3.9066,3.9066,0,0,1,5.215,1.7706h0a3.9036,3.9036,0,0,1-1.7713,5.2128l-50.94,23.2225"/><path class="cls-2" d="M2450.3465,750.3725,2401.1418,727.21a3.9626,3.9626,0,0,0-5.2785,1.8253h0a3.96,3.96,0,0,0,1.9714,5.2238l52.8042,22.8941"/><path class="cls-2" d="M2404.1672,779.7825l47.4188-23.4467c1.9212-.9466,4.1367-.4161,4.9233,1.1789h0c.7866,1.5951-.1417,3.6747-2.0629,4.6214l-50.8131,23.48"/><path class="cls-2" d="M2445.1082,779.04l-44.97-21.1766a3.7942,3.7942,0,0,0-4.9667,1.9715h0a3.7912,3.7912,0,0,0,1.66,5.0776l48.3249,20.7935"/><path class="cls-2" d="M2404.2348,686.2509l47.7094-23.6081a3.9953,3.9953,0,0,1,5.303,1.8939h0a3.9922,3.9922,0,0,1-1.7271,5.3578l-51.2837,23.32"/><path class="cls-2" d="M2450.6177,688.6512l-49.2047-23.1624a3.9626,3.9626,0,0,0-5.2785,1.8253h0a3.96,3.96,0,0,0,1.9714,5.2238L2450.91,695.432"/><rect class="cls-2" x="2399.2725" y="779.9593" width="52.0563" height="6.6997" rx="3.3498" ry="3.3498"/><circle class="cls-2" cx="2398.6702" cy="829.937" r="2.7388"/><circle class="cls-2" cx="2408.5632" cy="829.937" r="2.7388"/><circle class="cls-2" cx="2418.1302" cy="829.951" r="2.7388"/><circle class="cls-2" cx="2427.7919" cy="829.951" r="2.7388"/><circle class="cls-2" cx="2438.0722" cy="829.951" r="2.7388"/><circle class="cls-2" cx="2447.0763" cy="829.951" r="2.7388"/><circle class="cls-2" cx="2456.8322" cy="830.1871" r="2.7388"/><circle class="cls-2" cx="2403.3004" cy="839.8662" r="2.7388"/><circle class="cls-2" cx="2412.8674" cy="839.8801" r="2.7388"/><circle class="cls-2" cx="2422.5291" cy="839.8801" r="2.7388"/><circle class="cls-2" cx="2432.8094" cy="839.8801" r="2.7388"/><circle class="cls-2" cx="2441.8136" cy="839.8801" r="2.7388"/><circle class="cls-2" cx="2451.5695" cy="840.1162" r="2.7388"/><circle class="cls-2" cx="2408.3327" cy="851.292" r="2.7388"/><circle class="cls-2" cx="2417.9945" cy="851.292" r="2.7388"/><circle class="cls-2" cx="2428.2748" cy="851.292" r="2.7388"/><circle class="cls-2" cx="2437.2789" cy="851.292" r="2.7388"/><circle class="cls-2" cx="2447.0348" cy="851.528" r="2.7388"/><circle class="cls-2" cx="2413.4031" cy="861.1495" r="2.7388"/><circle class="cls-2" cx="2422.9582" cy="861.1495" r="2.7388"/><circle class="cls-2" cx="2432.6875" cy="861.1495" r="2.7388"/><circle class="cls-2" cx="2442.4434" cy="861.3856" r="2.7388"/><path class="cls-3" d="M2508.9805,807.1618c0,90.5946-44.5764,164.0361-99.5642,164.0361s-99.26-73.442-99.5642-164.0361"/><path class="cls-3" d="M2508.9805,810.719c0-65.3718-44.5581-118.366-99.5233-118.366s-99.2194,52.9946-99.5232,118.366"/><path class="cls-4" d="M2503.3677,808.279c0,81.0528-42.0977,146.7591-94.0278,146.7591s-94.0278-65.7063-94.0278-146.7591"/><path class="cls-4" d="M2338.29,597.5512c0-37.0056,30.6782-67.0047,68.5217-67.0047s68.5217,29.9991,68.5217,67.0047"/><polygon class="cls-4" points="2503.677 810.426 2315.327 810.373 2339.009 592.725 2475.143 592.473 2503.677 810.426"/><path class="cls-3" d="M2388.71,956.2464c0-7.77,4.9811-14.128,11.0691-14.128h16.8984c6.088,0,11.0691,6.3576,11.0691,14.128"/><path class="cls-3" d="M2372.0359,613.6632c0-27.6654,15.5658-50.0926,34.7672-50.0926s34.7673,22.4272,34.7673,50.0926"/><rect class="cls-3" x="2389.6866" y="515.2897" width="36.4518" height="65.2296" rx="12" ry="12"/><rect class="cls-5" x="2371.2683" y="607.6788" width="70.3709" height="192.0741" rx="12" ry="12"/><rect class="cls-6" x="2384.8818" y="619.7788" width="45.9531" height="168.2461" rx="12" ry="12"/><path class="cls-6" d="M2372.3666,618.121a7.0753,7.0753,0,0,1,6.1582-10.52l27.922.04,27.9221.04a6.9651,6.9651,0,0,1,5.937,10.5378L2426.09,642.505l-14.2162,24.2869a6.9651,6.9651,0,0,1-12.0952-.0173l-13.7058-24.3268Z"/><path class="cls-3" d="M2384.8683,657.2388,2432.3,633.7612a3.9075,3.9075,0,0,1,5.2171,1.772h0a3.9075,3.9075,0,0,1-1.772,5.2171l-50.9605,23.2413"/><path class="cls-3" d="M2430.9515,659.8015,2381.7269,636.62a3.9635,3.9635,0,0,0-5.2806,1.8268h0a3.9633,3.9633,0,0,0,1.9721,5.228l52.8256,22.9127"/><path class="cls-3" d="M2384.8065,716.1721l47.4129-23.4587a3.9067,3.9067,0,0,1,5.215,1.7706h0a3.9037,3.9037,0,0,1-1.7713,5.2129l-50.94,23.2224"/><path class="cls-3" d="M2430.871,718.7327,2381.6663,695.57a3.9626,3.9626,0,0,0-5.2785,1.8253h0a3.96,3.96,0,0,0,1.9714,5.2238l52.8042,22.8941"/><path class="cls-3" d="M2384.9233,747.8487l47.4129-23.4587a3.9067,3.9067,0,0,1,5.215,1.7706h0a3.9036,3.9036,0,0,1-1.7713,5.2129l-50.94,23.2225"/><path class="cls-3" d="M2430.9878,750.4093l-49.2047-23.1624a3.9626,3.9626,0,0,0-5.2785,1.8253h0a3.96,3.96,0,0,0,1.9714,5.2238L2431.28,757.19"/><path class="cls-3" d="M2384.8085,779.8193l47.4188-23.4467c1.9212-.9467,4.1367-.4162,4.9233,1.1789h0c.7867,1.5951-.1416,3.6747-2.0628,4.6214l-50.8132,23.48"/><path class="cls-3" d="M2425.75,779.0767l-44.97-21.1766a3.7941,3.7941,0,0,0-4.9667,1.9714h0a3.7912,3.7912,0,0,0,1.66,5.0776l48.3249,20.7935"/><path class="cls-3" d="M2384.8761,686.2877l47.7094-23.6082a3.9954,3.9954,0,0,1,5.303,1.894h0a3.9922,3.9922,0,0,1-1.7271,5.3578l-51.2837,23.32"/><path class="cls-3" d="M2431.259,688.688l-49.2047-23.1624a3.9626,3.9626,0,0,0-5.2785,1.8253h0a3.96,3.96,0,0,0,1.9714,5.2238l52.8042,22.8941"/><rect class="cls-8" x="2389.0484" y="595.895" width="36.4518" height="34.1835"/><rect class="cls-3" x="2379.9138" y="779.996" width="52.0563" height="6.6997" rx="3.3498" ry="3.3498"/><circle class="cls-6" cx="2379.3115" cy="829.9738" r="2.7388"/><circle class="cls-6" cx="2389.2045" cy="829.9738" r="2.7388"/><circle class="cls-6" cx="2398.7715" cy="829.9877" r="2.7388"/><circle class="cls-6" cx="2408.4332" cy="829.9877" r="2.7388"/><circle class="cls-6" cx="2418.7135" cy="829.9877" r="2.7388"/><circle class="cls-6" cx="2427.7177" cy="829.9877" r="2.7388"/><circle class="cls-6" cx="2437.4735" cy="830.2238" r="2.7388"/><circle class="cls-6" cx="2383.9417" cy="839.903" r="2.7388"/><circle class="cls-6" cx="2393.5087" cy="839.9169" r="2.7388"/><circle class="cls-6" cx="2403.1705" cy="839.9169" r="2.7388"/><circle class="cls-6" cx="2413.4508" cy="839.9169" r="2.7388"/><circle class="cls-6" cx="2422.4549" cy="839.9169" r="2.7388"/><circle class="cls-6" cx="2432.2108" cy="840.153" r="2.7388"/><circle class="cls-6" cx="2388.9741" cy="851.3287" r="2.7388"/><circle class="cls-6" cx="2398.6358" cy="851.3287" r="2.7388"/><circle class="cls-6" cx="2408.9161" cy="851.3287" r="2.7388"/><circle class="cls-6" cx="2417.9202" cy="851.3287" r="2.7388"/><circle class="cls-6" cx="2427.6761" cy="851.5648" r="2.7388"/><circle class="cls-6" cx="2394.0444" cy="861.1862" r="2.7388"/><circle class="cls-6" cx="2403.5995" cy="861.1862" r="2.7388"/><circle class="cls-6" cx="2413.3289" cy="861.1862" r="2.7388"/><circle class="cls-6" cx="2423.0848" cy="861.4223" r="2.7388"/><path class="cls-7" d="M2502.4645,793.0262c-14.8426,1.73-31.9083-26.51-36.1955-63.2875s4.27-67.9936,19.1123-69.7238"/><path class="cls-7" d="M2318.1825,789.6193c14.8743,1.4324,31.37-27.1446,34.92-64s-5.6316-67.8943-20.5059-69.3267"/><rect class="cls-1" x="3490.7905" y="196.8423" width="50.9426" height="333.1962"/><rect class="cls-1" x="3490.7905" y="717.5366" width="50.9426" height="289.3774"/><path class="cls-2" d="M3513.7051,1095.4878c0-65.3717,44.5581-118.366,99.5232-118.366s99.2194,52.9947,99.5233,118.366"/><path class="cls-2" d="M3684.3953,882.32c0-37.0056-30.6782-67.0046-68.5216-67.0046s-68.5217,29.999-68.5217,67.0046"/><polygon class="cls-2" points="3519.009 1095.195 3707.358 1095.142 3683.676 877.494 3547.542 877.242 3519.009 1095.195"/><path class="cls-2" d="M3650.65,898.432c0-27.6654-15.5659-50.0926-34.7673-50.0926s-34.7672,22.4272-34.7672,50.0926"/><rect class="cls-2" x="3596.5471" y="800.0585" width="36.4518" height="65.2296" rx="12" ry="12" transform="translate(7229.5461 1665.3467) rotate(-180)"/><rect class="cls-2" x="3581.0464" y="892.4477" width="70.3709" height="192.0741" rx="12" ry="12" transform="translate(7232.4637 1976.9694) rotate(-180)"/><rect class="cls-2" x="3591.8506" y="904.5477" width="45.9531" height="168.2461" rx="12" ry="12" transform="translate(7229.6544 1977.3414) rotate(-180)"/><path class="cls-2" d="M3650.3189,902.89a7.0753,7.0753,0,0,0-6.1581-10.5205l-27.922.04-27.9221.04a6.965,6.965,0,0,0-5.937,10.5378l14.2162,24.2868,14.2163,24.2869a6.965,6.965,0,0,0,12.0951-.0173l13.7058-24.3268Z"/><path class="cls-2" d="M3637.8172,942.0077,3590.3851,918.53a3.9073,3.9073,0,0,0-5.217,1.772h0a3.9075,3.9075,0,0,0,1.772,5.2171l50.9605,23.2413"/><path class="cls-2" d="M3591.7341,944.57l49.2246-23.1812a3.9633,3.9633,0,0,1,5.2806,1.8267h0a3.9635,3.9635,0,0,1-1.9722,5.2281l-52.8255,22.9127"/><path class="cls-2" d="M3637.8791,1000.9409l-47.4129-23.4587a3.9067,3.9067,0,0,0-5.215,1.7706h0a3.9036,3.9036,0,0,0,1.7713,5.2129l50.94,23.2225"/><path class="cls-2" d="M3591.8145,1003.5015l49.2048-23.1624a3.9625,3.9625,0,0,1,5.2784,1.8253h0a3.96,3.96,0,0,1-1.9713,5.2238l-52.8042,22.8941"/><path class="cls-2" d="M3637.81,971.0566,3590.1,947.4484a3.9954,3.9954,0,0,0-5.3031,1.8939h0a3.9924,3.9924,0,0,0,1.7271,5.3578l51.2838,23.3195"/><path class="cls-2" d="M3591.4265,973.4568l49.2048-23.1624a3.9625,3.9625,0,0,1,5.2784,1.8253h0a3.96,3.96,0,0,1-1.9713,5.2238l-52.8042,22.8941"/><path class="cls-3" d="M3500.2978,1094.1716c0-65.3718,44.5581-118.366,99.5233-118.366s99.2194,52.9946,99.5233,118.366"/><path class="cls-4" d="M3670.9881,881.0038c0-37.0056-30.6782-67.0046-68.5217-67.0046s-68.5217,29.999-68.5217,67.0046"/><polygon class="cls-4" points="3505.602 1093.879 3693.951 1093.825 3670.269 876.178 3534.135 875.926 3505.602 1093.879"/><path class="cls-3" d="M3637.2424,897.1158c0-27.6654-15.5658-50.0926-34.7672-50.0926s-34.7672,22.4272-34.7672,50.0926"/><rect class="cls-3" x="3583.1399" y="798.7423" width="36.4518" height="65.2296" rx="12" ry="12" transform="translate(7202.7316 1662.7142) rotate(-180)"/><rect class="cls-5" x="3567.6391" y="891.1314" width="70.3709" height="192.0741" rx="12" ry="12" transform="translate(7205.6492 1974.337) rotate(-180)"/><rect class="cls-6" x="3578.4434" y="903.2314" width="45.9531" height="168.2461" rx="12" ry="12" transform="translate(7202.8398 1974.7089) rotate(-180)"/><path class="cls-6" d="M3636.9117,901.5736a7.0753,7.0753,0,0,0-6.1582-10.5205l-27.922.04-27.922.04a6.9651,6.9651,0,0,0-5.9371,10.5378l14.2163,24.2868,14.2162,24.2869a6.9651,6.9651,0,0,0,12.0952-.0173L3623.2059,925.9Z"/><path class="cls-3" d="M3624.41,940.6915l-47.4321-23.4777a3.9075,3.9075,0,0,0-5.2171,1.772h0a3.9075,3.9075,0,0,0,1.772,5.2171l50.9605,23.2413"/><path class="cls-3" d="M3578.3268,943.2541l49.2246-23.1812a3.9636,3.9636,0,0,1,5.2807,1.8268h0a3.9636,3.9636,0,0,1-1.9722,5.2281L3578.0343,950.04"/><path class="cls-3" d="M3624.4718,999.6247l-47.4129-23.4587a3.9067,3.9067,0,0,0-5.215,1.7706h0a3.9037,3.9037,0,0,0,1.7713,5.2129l50.94,23.2224"/><path class="cls-3" d="M3578.4073,1002.1853l49.2047-23.1624a3.9626,3.9626,0,0,1,5.2785,1.8253h0a3.96,3.96,0,0,1-1.9714,5.2238l-52.8042,22.8941"/><path class="cls-3" d="M3624.4022,969.74l-47.7094-23.6081a3.9953,3.9953,0,0,0-5.303,1.8939h0a3.9922,3.9922,0,0,0,1.7271,5.3578l51.2837,23.3195"/><path class="cls-3" d="M3578.0193,972.1406l49.2047-23.1624a3.9626,3.9626,0,0,1,5.2785,1.8253h0a3.96,3.96,0,0,1-1.9714,5.2238l-52.8042,22.8941"/><rect class="cls-8" x="3583.778" y="879.3476" width="36.4518" height="34.1835" transform="translate(7204.0079 1792.8787) rotate(-180)"/><path class="cls-7" d="M3506.8138,1076.4788c14.8426,1.73,31.9083-26.51,36.1955-63.2875s-4.27-67.9936-19.1122-69.7238"/><path class="cls-7" d="M3691.0958,1073.0719c-14.8743,1.4324-31.37-27.1446-34.92-64s5.6316-67.8943,20.506-69.3267"/><rect class="cls-1" x="3343.6943" y="571.1594" width="50.9426" height="111.7873"/><path class="cls-2" d="M3521.5788,810.4527c0,90.5946-44.5764,164.036-99.5642,164.036s-99.26-73.442-99.5642-164.036"/><path class="cls-2" d="M3521.5788,814.01c0-65.3717-44.5581-118.366-99.5233-118.366s-99.2194,52.9947-99.5232,118.366"/><path class="cls-2" d="M3515.966,811.57c0,81.0528-42.0977,146.7591-94.0278,146.7591S3327.91,892.6226,3327.91,811.57"/><path class="cls-2" d="M3350.8885,600.842c0-37.0056,30.6782-67.0046,68.5217-67.0046s68.5217,29.999,68.5217,67.0046"/><polygon class="cls-2" points="3516.275 813.717 3327.926 813.664 3351.608 596.016 3487.742 595.764 3516.275 813.717"/><path class="cls-2" d="M3384.6342,616.954c0-27.6654,15.5658-50.0926,34.7672-50.0926s34.7672,22.4272,34.7672,50.0926"/><rect class="cls-2" x="3402.2849" y="518.5805" width="36.4518" height="65.2296" rx="12" ry="12"/><rect class="cls-2" x="3383.8666" y="610.9697" width="70.3709" height="192.0741" rx="12" ry="12"/><rect class="cls-2" x="3397.4801" y="623.0697" width="45.9531" height="168.2461" rx="12" ry="12"/><path class="cls-2" d="M3384.9649,621.4118a7.0753,7.0753,0,0,1,6.1582-10.52l27.922.04,27.9221.04a6.9651,6.9651,0,0,1,5.937,10.5378l-14.2163,24.2869-14.2162,24.2868a6.965,6.965,0,0,1-12.0952-.0173l-13.7058-24.3268Z"/><path class="cls-2" d="M3397.4666,660.53l47.4321-23.4777a3.9075,3.9075,0,0,1,5.2171,1.772h0a3.9075,3.9075,0,0,1-1.772,5.2171l-50.9605,23.2413"/><path class="cls-2" d="M3443.55,663.0924l-49.2246-23.1812a3.9634,3.9634,0,0,0-5.2806,1.8267h0a3.9636,3.9636,0,0,0,1.9722,5.2281l52.8256,22.9127"/><path class="cls-2" d="M3397.4048,719.4629l47.4129-23.4586a3.9066,3.9066,0,0,1,5.215,1.7705h0a3.9036,3.9036,0,0,1-1.7713,5.2128l-50.94,23.2225"/><path class="cls-2" d="M3443.4693,722.0235l-49.2047-23.1624a3.9626,3.9626,0,0,0-5.2785,1.8253h0a3.96,3.96,0,0,0,1.9714,5.2238l52.8042,22.8941"/><path class="cls-2" d="M3397.5216,751.14l47.4129-23.4587a3.9066,3.9066,0,0,1,5.215,1.7706h0a3.9036,3.9036,0,0,1-1.7713,5.2128l-50.94,23.2225"/><path class="cls-2" d="M3443.5861,753.7l-49.2047-23.1624a3.9626,3.9626,0,0,0-5.2785,1.8252h0a3.96,3.96,0,0,0,1.9714,5.2238l52.8042,22.8942"/><path class="cls-2" d="M3397.4068,783.11l47.4188-23.4466c1.9212-.9467,4.1367-.4162,4.9233,1.1789h0c.7866,1.595-.1416,3.6746-2.0628,4.6213l-50.8132,23.48"/><path class="cls-2" d="M3438.3478,782.3675l-44.97-21.1766a3.7942,3.7942,0,0,0-4.9667,1.9715h0a3.7912,3.7912,0,0,0,1.66,5.0776l48.3249,20.7935"/><path class="cls-2" d="M3397.4744,689.5786l47.7094-23.6082a3.9953,3.9953,0,0,1,5.303,1.894h0a3.9923,3.9923,0,0,1-1.7271,5.3578l-51.2837,23.3194"/><path class="cls-2" d="M3443.8573,691.9788l-49.2047-23.1624a3.9626,3.9626,0,0,0-5.2785,1.8253h0a3.96,3.96,0,0,0,1.9714,5.2238L3444.15,698.76"/><rect class="cls-2" x="3392.5121" y="783.2869" width="52.0563" height="6.6997" rx="3.3498" ry="3.3498"/><circle class="cls-2" cx="3391.9098" cy="833.2647" r="2.7388"/><circle class="cls-2" cx="3401.8028" cy="833.2647" r="2.7388"/><circle class="cls-2" cx="3411.3698" cy="833.2786" r="2.7388"/><circle class="cls-2" cx="3421.0315" cy="833.2786" r="2.7388"/><circle class="cls-2" cx="3431.3118" cy="833.2786" r="2.7388"/><circle class="cls-2" cx="3440.3159" cy="833.2786" r="2.7388"/><circle class="cls-2" cx="3450.0718" cy="833.5147" r="2.7388"/><circle class="cls-2" cx="3396.54" cy="843.1938" r="2.7388"/><circle class="cls-2" cx="3406.107" cy="843.2077" r="2.7388"/><circle class="cls-2" cx="3415.7688" cy="843.2077" r="2.7388"/><circle class="cls-2" cx="3426.0491" cy="843.2077" r="2.7388"/><circle class="cls-2" cx="3435.0532" cy="843.2077" r="2.7388"/><circle class="cls-2" cx="3444.8091" cy="843.4438" r="2.7388"/><circle class="cls-2" cx="3401.5724" cy="854.6196" r="2.7388"/><circle class="cls-2" cx="3411.2341" cy="854.6196" r="2.7388"/><circle class="cls-2" cx="3421.5144" cy="854.6196" r="2.7388"/><circle class="cls-2" cx="3430.5185" cy="854.6196" r="2.7388"/><circle class="cls-2" cx="3440.2744" cy="854.8557" r="2.7388"/><circle class="cls-2" cx="3406.6427" cy="864.4771" r="2.7388"/><circle class="cls-2" cx="3416.1978" cy="864.4771" r="2.7388"/><circle class="cls-2" cx="3425.9272" cy="864.4771" r="2.7388"/><circle class="cls-2" cx="3435.6831" cy="864.7132" r="2.7388"/><path class="cls-3" d="M3502.22,810.49c0,90.5946-44.5764,164.036-99.5642,164.036s-99.26-73.442-99.5642-164.036"/><path class="cls-3" d="M3502.22,814.0466c0-65.3717-44.5581-118.366-99.5232-118.366s-99.2194,52.9947-99.5233,118.366"/><path class="cls-4" d="M3496.6073,811.6066c0,81.0528-42.0976,146.7591-94.0278,146.7591s-94.0278-65.7063-94.0278-146.7591"/><path class="cls-4" d="M3331.53,600.8788c0-37.0056,30.6782-67.0046,68.5216-67.0046s68.5217,29.999,68.5217,67.0046"/><polygon class="cls-4" points="3496.916 813.754 3308.567 813.7 3332.249 596.053 3468.383 595.801 3496.916 813.754"/><path class="cls-3" d="M3381.95,959.574c0-7.77,4.9811-14.128,11.0691-14.128h16.8984c6.088,0,11.0691,6.3576,11.0691,14.128"/><path class="cls-3" d="M3365.2755,616.9908c0-27.6654,15.5659-50.0926,34.7673-50.0926s34.7672,22.4272,34.7672,50.0926"/><rect class="cls-3" x="3382.9262" y="518.6173" width="36.4518" height="65.2296" rx="12" ry="12"/><rect class="cls-5" x="3364.5079" y="611.0064" width="70.3709" height="192.0741" rx="12" ry="12"/><rect class="cls-6" x="3378.1215" y="623.1064" width="45.9531" height="168.2461" rx="12" ry="12"/><path class="cls-6" d="M3365.6063,621.4486a7.0753,7.0753,0,0,1,6.1581-10.5205l27.922.04,27.9221.04a6.965,6.965,0,0,1,5.937,10.5378l-14.2162,24.2868L3405.113,670.12a6.965,6.965,0,0,1-12.0951-.0173l-13.7058-24.3268Z"/><path class="cls-3" d="M3378.108,660.5665l47.4321-23.4777a3.9073,3.9073,0,0,1,5.217,1.772h0a3.9075,3.9075,0,0,1-1.772,5.2171l-50.96,23.2413"/><path class="cls-3" d="M3424.1911,663.1292l-49.2246-23.1812a3.9633,3.9633,0,0,0-5.2806,1.8267h0a3.9635,3.9635,0,0,0,1.9721,5.2281l52.8256,22.9127"/><path class="cls-3" d="M3378.0461,719.5l47.4129-23.4587a3.9067,3.9067,0,0,1,5.215,1.7706h0a3.9036,3.9036,0,0,1-1.7713,5.2129l-50.94,23.2225"/><path class="cls-3" d="M3424.1107,722.06l-49.2048-23.1624a3.9625,3.9625,0,0,0-5.2784,1.8253h0a3.96,3.96,0,0,0,1.9713,5.2238l52.8042,22.8941"/><path class="cls-3" d="M3378.1629,751.1763l47.4129-23.4586a3.9065,3.9065,0,0,1,5.215,1.7706h0a3.9036,3.9036,0,0,1-1.7713,5.2128l-50.94,23.2225"/><path class="cls-3" d="M3424.2275,753.7369l-49.2048-23.1624a3.9626,3.9626,0,0,0-5.2785,1.8253h0a3.96,3.96,0,0,0,1.9714,5.2238l52.8042,22.8941"/><path class="cls-3" d="M3378.0481,783.1469,3425.4669,759.7c1.9212-.9466,4.1367-.4161,4.9233,1.1789h0c.7867,1.5951-.1416,3.6747-2.0628,4.6214l-50.8132,23.48"/><path class="cls-3" d="M3418.9891,782.4043l-44.97-21.1766a3.7942,3.7942,0,0,0-4.9667,1.9715h0a3.7913,3.7913,0,0,0,1.66,5.0776l48.3249,20.7935"/><path class="cls-3" d="M3378.1157,689.6153l47.7094-23.6081a3.9954,3.9954,0,0,1,5.3031,1.8939h0a3.9924,3.9924,0,0,1-1.7271,5.3578l-51.2838,23.3195"/><path class="cls-3" d="M3424.4987,692.0156l-49.2048-23.1624a3.9625,3.9625,0,0,0-5.2784,1.8253h0a3.96,3.96,0,0,0,1.9713,5.2238l52.8042,22.8941"/><rect class="cls-8" x="3382.2881" y="599.2226" width="36.4518" height="34.1835"/><rect class="cls-3" x="3373.1534" y="783.3237" width="52.0563" height="6.6997" rx="3.3498" ry="3.3498"/><circle class="cls-6" cx="3372.5511" cy="833.3014" r="2.7388"/><circle class="cls-6" cx="3382.4441" cy="833.3014" r="2.7388"/><circle class="cls-6" cx="3392.0111" cy="833.3154" r="2.7388"/><circle class="cls-6" cx="3401.6728" cy="833.3154" r="2.7388"/><circle class="cls-6" cx="3411.9531" cy="833.3154" r="2.7388"/><circle class="cls-6" cx="3420.9573" cy="833.3154" r="2.7388"/><circle class="cls-6" cx="3430.7132" cy="833.5514" r="2.7388"/><circle class="cls-6" cx="3377.1814" cy="843.2306" r="2.7388"/><circle class="cls-6" cx="3386.7483" cy="843.2445" r="2.7388"/><circle class="cls-6" cx="3396.4101" cy="843.2445" r="2.7388"/><circle class="cls-6" cx="3406.6904" cy="843.2445" r="2.7388"/><circle class="cls-6" cx="3415.6945" cy="843.2445" r="2.7388"/><circle class="cls-6" cx="3425.4504" cy="843.4806" r="2.7388"/><circle class="cls-6" cx="3382.2137" cy="854.6564" r="2.7388"/><circle class="cls-6" cx="3391.8754" cy="854.6564" r="2.7388"/><circle class="cls-6" cx="3402.1557" cy="854.6564" r="2.7388"/><circle class="cls-6" cx="3411.1599" cy="854.6564" r="2.7388"/><circle class="cls-6" cx="3420.9157" cy="854.8924" r="2.7388"/><circle class="cls-6" cx="3387.2841" cy="864.5139" r="2.7388"/><circle class="cls-6" cx="3396.8391" cy="864.5139" r="2.7388"/><circle class="cls-6" cx="3406.5685" cy="864.5139" r="2.7388"/><circle class="cls-6" cx="3416.3244" cy="864.75" r="2.7388"/><path class="cls-7" d="M3495.7041,796.3538c-14.8426,1.73-31.9083-26.51-36.1955-63.2875s4.27-67.9936,19.1123-69.7238"/><path class="cls-7" d="M3311.4221,792.9469c14.8743,1.4324,31.3705-27.1446,34.92-64s-5.6316-67.8943-20.5059-69.3267"/><rect class="cls-1" x="4497.6192" y="199.4125" width="50.9426" height="333.1962"/><rect class="cls-1" x="4497.6192" y="720.1068" width="50.9426" height="289.3774"/><rect class="cls-1" x="5502.0772" y="195.4125" width="50.9426" height="333.1962"/><rect class="cls-1" x="5502.0772" y="716.1068" width="50.9426" height="289.3774"/><path class="cls-2" d="M4520.5338,1098.058c0-65.3717,44.5581-118.366,99.5233-118.366s99.2194,52.9947,99.5233,118.366"/><path class="cls-2" d="M4691.2241,884.89c0-37.0057-30.6782-67.0047-68.5217-67.0047s-68.5216,29.999-68.5216,67.0047"/><polygon class="cls-2" points="4525.838 1097.765 4714.187 1097.712 4690.505 880.064 4554.371 879.812 4525.838 1097.765"/><path class="cls-2" d="M4657.4784,901.0022c0-27.6654-15.5658-50.0926-34.7672-50.0926s-34.7672,22.4272-34.7672,50.0926"/><rect class="cls-2" x="4603.3759" y="802.6288" width="36.4518" height="65.2296" rx="12" ry="12" transform="translate(9243.2036 1670.4871) rotate(-180)"/><rect class="cls-2" x="4587.8752" y="895.0179" width="70.3709" height="192.0741" rx="12" ry="12" transform="translate(9246.1212 1982.1099) rotate(-180)"/><rect class="cls-2" x="4598.6794" y="907.1179" width="45.9531" height="168.2461" rx="12" ry="12" transform="translate(9243.3119 1982.4818) rotate(-180)"/><path class="cls-2" d="M4657.1477,905.46A7.0753,7.0753,0,0,0,4650.99,894.94l-27.9221.04-27.922.04a6.965,6.965,0,0,0-5.937,10.5378l14.2162,24.2869,14.2162,24.2868a6.965,6.965,0,0,0,12.0952-.0173l13.7058-24.3268Z"/><path class="cls-2" d="M4644.646,944.5779,4597.2139,921.1a3.9075,3.9075,0,0,0-5.2171,1.772h0a3.9075,3.9075,0,0,0,1.772,5.2171l50.9606,23.2413"/><path class="cls-2" d="M4598.5628,947.1406l49.2247-23.1812a3.9634,3.9634,0,0,1,5.2806,1.8268h0a3.9634,3.9634,0,0,1-1.9722,5.228L4598.27,953.9269"/><path class="cls-2" d="M4644.7078,1003.5111l-47.4129-23.4586a3.9065,3.9065,0,0,0-5.2149,1.7706h0a3.9035,3.9035,0,0,0,1.7714,5.2128l50.94,23.2225"/><path class="cls-2" d="M4598.6433,1006.0717l49.2047-23.1624a3.9626,3.9626,0,0,1,5.2785,1.8253h0a3.96,3.96,0,0,1-1.9714,5.2238l-52.8042,22.8941"/><path class="cls-2" d="M4644.6382,973.6268l-47.7093-23.6082a3.9955,3.9955,0,0,0-5.3031,1.894h0a3.9923,3.9923,0,0,0,1.7271,5.3578l51.2837,23.3194"/><path class="cls-2" d="M4598.2553,976.0271l49.2047-23.1624a3.9625,3.9625,0,0,1,5.2785,1.8252h0a3.96,3.96,0,0,1-1.9714,5.2239l-52.8042,22.8941"/><path class="cls-3" d="M4507.1266,1096.7418c0-65.3717,44.5581-118.366,99.5233-118.366s99.2194,52.9947,99.5232,118.366"/><path class="cls-4" d="M4677.8168,883.574c0-37.0056-30.6782-67.0046-68.5216-67.0046s-68.5217,29.999-68.5217,67.0046"/><polygon class="cls-4" points="4512.431 1096.449 4700.78 1096.396 4677.098 878.748 4540.964 878.496 4512.431 1096.449"/><path class="cls-3" d="M4644.0712,899.686c0-27.6654-15.5658-50.0926-34.7672-50.0926s-34.7673,22.4272-34.7673,50.0926"/><rect class="cls-3" x="4589.9686" y="801.3125" width="36.4518" height="65.2296" rx="12" ry="12" transform="translate(9216.3891 1667.8547) rotate(-180)"/><rect class="cls-5" x="4574.4679" y="893.7017" width="70.3709" height="192.0741" rx="12" ry="12" transform="translate(9219.3067 1979.4775) rotate(-180)"/><rect class="cls-6" x="4585.2721" y="905.8017" width="45.9531" height="168.2461" rx="12" ry="12" transform="translate(9216.4974 1979.8494) rotate(-180)"/><path class="cls-6" d="M4643.7405,904.1438a7.0754,7.0754,0,0,0-6.1582-10.5205l-27.922.04-27.9221.04a6.9651,6.9651,0,0,0-5.937,10.5378l14.2162,24.2869,14.2163,24.2868a6.965,6.965,0,0,0,12.0952-.0173l13.7058-24.3268Z"/><path class="cls-3" d="M4631.2387,943.2617l-47.4321-23.4777a3.9074,3.9074,0,0,0-5.217,1.772h0a3.9075,3.9075,0,0,0,1.772,5.2171l50.9605,23.2413"/><path class="cls-3" d="M4585.1556,945.8244l49.2246-23.1812a3.9634,3.9634,0,0,1,5.2806,1.8267h0a3.9634,3.9634,0,0,1-1.9721,5.2281l-52.8256,22.9127"/><path class="cls-3" d="M4631.3006,1002.1949l-47.4129-23.4586a3.9066,3.9066,0,0,0-5.215,1.77h0a3.9036,3.9036,0,0,0,1.7713,5.2128l50.94,23.2225"/><path class="cls-3" d="M4585.236,1004.7555l49.2048-23.1624a3.9625,3.9625,0,0,1,5.2784,1.8253h0a3.96,3.96,0,0,1-1.9713,5.2238l-52.8042,22.8941"/><path class="cls-3" d="M4631.231,972.3106l-47.7094-23.6082a3.9953,3.9953,0,0,0-5.303,1.8939h0a3.9923,3.9923,0,0,0,1.7271,5.3578l51.2837,23.3194"/><path class="cls-3" d="M4584.848,974.7108l49.2048-23.1624a3.9626,3.9626,0,0,1,5.2785,1.8253h0a3.96,3.96,0,0,1-1.9714,5.2238l-52.8042,22.8941"/><rect class="cls-8" x="4590.6068" y="881.9178" width="36.4518" height="34.1835" transform="translate(9217.6654 1798.0191) rotate(-180)"/><path class="cls-7" d="M4513.6426,1079.049c14.8426,1.73,31.9083-26.51,36.1955-63.2875s-4.27-67.9936-19.1123-69.7238"/><path class="cls-7" d="M4697.9246,1075.6421c-14.8743,1.4324-31.37-27.1446-34.92-64s5.6316-67.8943,20.5059-69.3267"/></svg>
