<svg id="Layer_1" data-name="Layer 1" xmlns="http://www.w3.org/2000/svg" viewBox="0 0 600 100"><defs><style>.cls-1{fill:#f4e662;}.cls-2{fill:#3a3a3a;}.cls-3{fill:#f2f2f2;}.cls-4{fill:#88eda0;}.cls-5{fill:#8aff6d;}.cls-6{fill:#144e71;}.cls-7,.cls-8{fill:none;stroke-miterlimit:10;}.cls-7{stroke:#144e71;stroke-width:2px;}.cls-8{stroke:#f2f2f2;}</style></defs><title>line_balancelille</title><rect class="cls-1" x="149.81" y="19.16" width="5.09" height="33.43"/><rect class="cls-1" x="149.81" y="71.4" width="5.09" height="29.03"/><path class="cls-2" d="M161.19,8.44c0,9.09-4.45,16.46-9.95,16.46s-9.92-7.37-10-16.46"/><path class="cls-2" d="M161.19,8.8c0-6.56-4.45-11.88-9.95-11.88s-9.92,5.32-10,11.88"/><path class="cls-2" d="M160.63,8.55c0,8.13-4.21,14.72-9.4,14.72s-9.4-6.59-9.4-14.72"/><polygon class="cls-2" points="160.66 8.77 141.83 8.76 144.2 -13.08 157.81 -13.1 160.66 8.77"/><path class="cls-2" d="M148.63-11.58h4.63a1.21,1.21,0,0,1,1.2,1.21V6.49a1.2,1.2,0,0,1-1.2,1.2h-4.63a1.19,1.19,0,0,1-1.2-1.2V-10.37A1.2,1.2,0,0,1,148.63-11.58Z"/><path class="cls-2" d="M150-10.36h2.19a1.2,1.2,0,0,1,1.2,1.2V5.31a1.21,1.21,0,0,1-1.2,1.21H150a1.2,1.2,0,0,1-1.2-1.21V-9.16A1.2,1.2,0,0,1,150-10.36Z"/><path class="cls-2" d="M153.39-.43l-4.92-2.33a.4.4,0,0,0-.53.19h0a.39.39,0,0,0,.2.52l5.27,2.3"/><path class="cls-2" d="M148.79,2.49,153.53.13a.4.4,0,0,1,.52.18h0a.38.38,0,0,1-.17.52l-5.1,2.33"/><path class="cls-2" d="M153.4,2.74,148.48.42A.41.41,0,0,0,148,.6h0a.4.4,0,0,0,.2.53l5.28,2.29"/><path class="cls-2" d="M148.78,5.69l4.74-2.35a.36.36,0,0,1,.49.12h0a.36.36,0,0,1-.2.46l-5.08,2.36"/><path class="cls-2" d="M152.87,5.62,148.38,3.5a.37.37,0,0,0-.5.19h0a.38.38,0,0,0,.17.51l4.83,2.09"/><path class="cls-2" d="M148.63,5.71h4.53a.34.34,0,0,1,.34.34V6a.33.33,0,0,1-.33.33h-4.53a.34.34,0,0,1-.34-.34V6A.34.34,0,0,1,148.63,5.71Z"/><circle class="cls-2" cx="148.23" cy="10.73" r="0.27"/><circle class="cls-2" cx="149.22" cy="10.73" r="0.27"/><circle class="cls-2" cx="150.18" cy="10.73" r="0.27"/><circle class="cls-2" cx="151.14" cy="10.73" r="0.27"/><circle class="cls-2" cx="152.17" cy="10.73" r="0.27"/><circle class="cls-2" cx="153.07" cy="10.73" r="0.27"/><circle class="cls-2" cx="154.05" cy="10.75" r="0.27"/><circle class="cls-2" cx="148.69" cy="11.72" r="0.27"/><circle class="cls-2" cx="149.65" cy="11.72" r="0.27"/><circle class="cls-2" cx="150.62" cy="11.72" r="0.27"/><circle class="cls-2" cx="151.64" cy="11.72" r="0.27"/><circle class="cls-2" cx="152.54" cy="11.72" r="0.27"/><circle class="cls-2" cx="153.52" cy="11.75" r="0.27"/><circle class="cls-2" cx="149.2" cy="12.87" r="0.27"/><circle class="cls-2" cx="150.16" cy="12.87" r="0.27"/><circle class="cls-2" cx="151.19" cy="12.87" r="0.27"/><circle class="cls-2" cx="152.09" cy="12.87" r="0.27"/><circle class="cls-2" cx="153.07" cy="12.89" r="0.27"/><circle class="cls-2" cx="149.7" cy="13.86" r="0.27"/><circle class="cls-2" cx="150.66" cy="13.86" r="0.27"/><circle class="cls-2" cx="151.63" cy="13.86" r="0.27"/><circle class="cls-2" cx="152.61" cy="13.88" r="0.27"/><path class="cls-3" d="M159.26,8.44c0,9.09-4.46,16.46-10,16.46s-9.92-7.37-10-16.46"/><path class="cls-3" d="M159.26,8.8c0-6.56-4.46-11.88-9.95-11.88s-9.92,5.32-9.95,11.88"/><path class="cls-4" d="M158.7,8.55c0,8.14-4.21,14.73-9.4,14.73s-9.4-6.59-9.4-14.73"/><polygon class="cls-4" points="158.73 8.77 139.9 8.76 142.27 -13.07 155.88 -13.1 158.73 8.77"/><path class="cls-3" d="M147.23,23.4A1.3,1.3,0,0,1,148.34,22H150a1.3,1.3,0,0,1,1.11,1.42"/><path class="cls-5" d="M146.69-11.57h4.64a1.2,1.2,0,0,1,1.2,1.2V6.49a1.21,1.21,0,0,1-1.2,1.21h-4.64a1.21,1.21,0,0,1-1.2-1.21V-10.37A1.2,1.2,0,0,1,146.69-11.57Z"/><path class="cls-6" d="M148.05-10.36h2.2a1.21,1.21,0,0,1,1.2,1.21V5.32a1.2,1.2,0,0,1-1.2,1.2h-2.2a1.2,1.2,0,0,1-1.2-1.2V-9.15A1.21,1.21,0,0,1,148.05-10.36Z"/><path class="cls-3" d="M151.45-.43l-4.92-2.32a.39.39,0,0,0-.53.18h0a.39.39,0,0,0,.2.52l5.28,2.3"/><path class="cls-3" d="M146.86,2.49,151.6.14a.39.39,0,0,1,.52.17h0a.41.41,0,0,1-.18.53l-5.09,2.33"/><path class="cls-3" d="M151.46,2.75,146.54.42a.41.41,0,0,0-.53.19h0a.4.4,0,0,0,.2.52l5.28,2.3"/><path class="cls-3" d="M146.84,5.7l4.75-2.35a.35.35,0,0,1,.49.11h0a.38.38,0,0,1-.21.47l-5.08,2.35"/><path class="cls-3" d="M150.94,5.62l-4.5-2.12a.37.37,0,0,0-.49.2h0a.38.38,0,0,0,.16.51l4.83,2.08"/><rect class="cls-3" x="146.36" y="5.72" width="5.2" height="0.67" rx="0.33"/><circle class="cls-6" cx="146.29" cy="10.73" r="0.27"/><circle class="cls-6" cx="147.28" cy="10.73" r="0.27"/><circle class="cls-6" cx="148.24" cy="10.73" r="0.27"/><circle class="cls-6" cx="149.21" cy="10.73" r="0.27"/><circle class="cls-6" cx="150.23" cy="10.73" r="0.27"/><circle class="cls-6" cx="151.13" cy="10.73" r="0.27"/><circle class="cls-6" cx="152.11" cy="10.76" r="0.27"/><circle class="cls-6" cx="146.76" cy="11.73" r="0.27"/><circle class="cls-6" cx="147.71" cy="11.73" r="0.27"/><circle class="cls-6" cx="148.68" cy="11.73" r="0.27"/><circle class="cls-6" cx="149.71" cy="11.73" r="0.27"/><circle class="cls-6" cx="150.61" cy="11.73" r="0.27"/><circle class="cls-6" cx="151.58" cy="11.75" r="0.27"/><circle class="cls-6" cx="147.26" cy="12.87" r="0.27"/><circle class="cls-6" cx="148.23" cy="12.87" r="0.27"/><circle class="cls-6" cx="149.25" cy="12.87" r="0.27"/><circle class="cls-6" cx="150.15" cy="12.87" r="0.27"/><circle class="cls-6" cx="151.13" cy="12.9" r="0.27"/><circle class="cls-6" cx="147.77" cy="13.86" r="0.27"/><circle class="cls-6" cx="148.72" cy="13.86" r="0.27"/><circle class="cls-6" cx="149.7" cy="13.86" r="0.27"/><circle class="cls-6" cx="150.67" cy="13.89" r="0.27"/><path class="cls-7" d="M158.61,7c-1.49.18-3.19-2.66-3.62-6.35s.43-6.82,1.91-7"/><path class="cls-7" d="M140.18,6.68c1.49.15,3.14-2.72,3.49-6.42s-.56-6.81-2-7"/><path class="cls-2" d="M154.6,47.61c0,9.09,4.46,16.45,10,16.45s9.93-7.36,10-16.45"/><path class="cls-2" d="M154.6,48c0-6.56,4.45-11.87,10-11.87S174.47,41.4,174.5,48"/><path class="cls-2" d="M155.16,47.72c0,8.13,4.21,14.72,9.4,14.72s9.4-6.59,9.4-14.72"/><path class="cls-2" d="M171.66,26.58a6.85,6.85,0,0,0-13.7,0"/><polygon class="cls-2" points="155.13 47.93 173.96 47.93 171.59 26.09 157.98 26.07 155.13 47.93"/><path class="cls-2" d="M168.29,28.19c0-2.77-1.56-5-3.48-5s-3.47,2.25-3.47,5"/><path class="cls-2" d="M165.33,24.87h-1.25a1.21,1.21,0,0,1-1.2-1.21V19.53a1.21,1.21,0,0,1,1.2-1.21h1.25a1.21,1.21,0,0,1,1.2,1.21v4.13A1.21,1.21,0,0,1,165.33,24.87Z"/><path class="cls-2" d="M167.17,46.86h-4.64a1.2,1.2,0,0,1-1.2-1.2V28.8a1.21,1.21,0,0,1,1.2-1.21h4.64a1.21,1.21,0,0,1,1.2,1.21V45.66A1.2,1.2,0,0,1,167.17,46.86Z"/><path class="cls-2" d="M165.81,45.69h-2.2a1.21,1.21,0,0,1-1.2-1.21V30a1.2,1.2,0,0,1,1.2-1.2h2.2A1.2,1.2,0,0,1,167,30V44.48A1.21,1.21,0,0,1,165.81,45.69Z"/><path class="cls-2" d="M168.26,28.64a.72.72,0,0,0-.28-1,.78.78,0,0,0-.34-.09h-5.58a.69.69,0,0,0-.69.71.73.73,0,0,0,.09.35l1.43,2.44,1.42,2.43a.69.69,0,0,0,.95.26.65.65,0,0,0,.26-.26l1.37-2.44Z"/><path class="cls-2" d="M167,32.56l-4.74-2.35a.39.39,0,0,0-.53.18h0a.4.4,0,0,0,.18.52l5.1,2.33"/><path class="cls-2" d="M162.4,32.82l4.92-2.32a.39.39,0,0,1,.53.18h0a.39.39,0,0,1-.2.52l-5.28,2.3"/><path class="cls-2" d="M167,38.48l-4.74-2.36a.4.4,0,0,0-.52.18h0a.4.4,0,0,0,.18.52L167,39.15"/><path class="cls-2" d="M162.41,38.73l4.92-2.32a.41.41,0,0,1,.53.18h0a.41.41,0,0,1-.2.53l-5.28,2.29"/><path class="cls-2" d="M167,41.66l-4.74-2.36a.4.4,0,0,0-.52.18h0a.39.39,0,0,0,.18.52L167,42.33"/><path class="cls-2" d="M162.4,41.91l4.92-2.32a.39.39,0,0,1,.52.18h0a.41.41,0,0,1-.19.53l-5.28,2.29"/><path class="cls-2" d="M167,44.86l-4.74-2.35a.36.36,0,0,0-.49.12h0a.35.35,0,0,0,.21.46l5.08,2.36"/><path class="cls-2" d="M162.92,44.79l4.5-2.13a.37.37,0,0,1,.49.2h0a.38.38,0,0,1-.16.51l-4.83,2.09"/><path class="cls-2" d="M167,35.48l-4.77-2.37a.4.4,0,0,0-.53.19h0a.4.4,0,0,0,.17.54L167,36.18"/><path class="cls-2" d="M162.37,35.72l4.92-2.32a.39.39,0,0,1,.53.18h0a.39.39,0,0,1-.2.52l-5.28,2.3"/><path class="cls-2" d="M162.63,44.88h4.53a.33.33,0,0,1,.33.33v0a.33.33,0,0,1-.33.33h-4.53a.34.34,0,0,1-.34-.34v0A.34.34,0,0,1,162.63,44.88Z"/><circle class="cls-2" cx="167.56" cy="49.9" r="0.27"/><circle class="cls-2" cx="166.57" cy="49.9" r="0.27"/><circle class="cls-2" cx="165.62" cy="49.9" r="0.27"/><circle class="cls-2" cx="164.65" cy="49.9" r="0.27"/><circle class="cls-2" cx="163.62" cy="49.9" r="0.27"/><circle class="cls-2" cx="162.72" cy="49.9" r="0.27"/><circle class="cls-2" cx="161.75" cy="49.92" r="0.27"/><circle class="cls-2" cx="167.1" cy="50.89" r="0.27"/><circle class="cls-2" cx="166.14" cy="50.89" r="0.27"/><circle class="cls-2" cx="165.18" cy="50.89" r="0.27"/><circle class="cls-2" cx="164.15" cy="50.89" r="0.27"/><circle class="cls-2" cx="163.25" cy="50.89" r="0.27"/><circle class="cls-2" cx="162.27" cy="50.92" r="0.27"/><circle class="cls-2" cx="166.6" cy="52.04" r="0.27"/><circle class="cls-2" cx="165.63" cy="52.04" r="0.27"/><circle class="cls-2" cx="164.6" cy="52.04" r="0.27"/><circle class="cls-2" cx="163.7" cy="52.04" r="0.27"/><circle class="cls-2" cx="162.73" cy="52.06" r="0.27"/><circle class="cls-2" cx="166.09" cy="53.03" r="0.27"/><circle class="cls-2" cx="165.13" cy="53.03" r="0.27"/><circle class="cls-2" cx="164.16" cy="53.03" r="0.27"/><circle class="cls-2" cx="163.19" cy="53.05" r="0.27"/><path class="cls-3" d="M153.26,47.47c0,9.09,4.46,16.46,10,16.46s9.93-7.37,10-16.46"/><path class="cls-3" d="M153.26,47.83c0-6.56,4.45-11.87,10-11.87s9.92,5.31,9.95,11.87"/><path class="cls-4" d="M153.82,47.59c0,8.13,4.21,14.72,9.4,14.72s9.4-6.59,9.4-14.72"/><path class="cls-4" d="M170.32,26.44a6.85,6.85,0,0,0-13.7,0"/><polygon class="cls-4" points="153.79 47.8 172.62 47.8 170.25 25.96 156.64 25.93 153.79 47.8"/><path class="cls-3" d="M165.28,62.43a1.3,1.3,0,0,0-1.1-1.42h-1.69a1.3,1.3,0,0,0-1.11,1.42"/><path class="cls-3" d="M167,28.06c0-2.78-1.56-5-3.48-5s-3.47,2.25-3.47,5"/><path class="cls-3" d="M164,24.73h-1.25a1.2,1.2,0,0,1-1.2-1.2V19.39a1.2,1.2,0,0,1,1.2-1.2H164a1.2,1.2,0,0,1,1.2,1.2v4.14A1.2,1.2,0,0,1,164,24.73Z"/><path class="cls-5" d="M165.83,46.73h-4.64a1.2,1.2,0,0,1-1.2-1.2V28.66a1.2,1.2,0,0,1,1.2-1.2h4.64a1.2,1.2,0,0,1,1.2,1.2V45.53A1.2,1.2,0,0,1,165.83,46.73Z"/><path class="cls-6" d="M164.47,45.55h-2.2a1.2,1.2,0,0,1-1.2-1.2V29.88a1.21,1.21,0,0,1,1.2-1.21h2.2a1.21,1.21,0,0,1,1.2,1.21V44.35A1.2,1.2,0,0,1,164.47,45.55Z"/><path class="cls-6" d="M166.92,28.51a.72.72,0,0,0-.28-1,.67.67,0,0,0-.34-.09h-5.58a.69.69,0,0,0-.69.7.74.74,0,0,0,.09.36L161.55,31,163,33.39a.69.69,0,0,0,.95.26.72.72,0,0,0,.26-.26L165.55,31Z"/><path class="cls-3" d="M165.67,32.43l-4.75-2.35a.39.39,0,0,0-.52.17h0a.41.41,0,0,0,.18.53l5.1,2.33"/><path class="cls-3" d="M161.06,32.69,166,30.36a.4.4,0,0,1,.53.19h0a.39.39,0,0,1-.2.52L161,33.37"/><path class="cls-3" d="M165.67,38.35,160.93,36a.4.4,0,0,0-.52.18h0a.4.4,0,0,0,.18.52L165.68,39"/><path class="cls-3" d="M161.07,38.6,166,36.28a.38.38,0,0,1,.52.18h0a.4.4,0,0,1-.19.53L161,39.28"/><path class="cls-3" d="M165.66,41.52l-4.74-2.35a.38.38,0,0,0-.52.18h0a.39.39,0,0,0,.18.52l5.09,2.33"/><path class="cls-3" d="M161.06,41.78,166,39.46a.38.38,0,0,1,.52.18h0a.4.4,0,0,1-.19.52L161,42.46"/><path class="cls-3" d="M165.67,44.73l-4.74-2.35a.36.36,0,0,0-.49.12h0a.35.35,0,0,0,.21.46l5.08,2.36"/><path class="cls-3" d="M161.58,44.66l4.5-2.13a.37.37,0,0,1,.49.2h0a.38.38,0,0,1-.16.51l-4.84,2.09"/><path class="cls-3" d="M165.67,35.35,160.9,33a.39.39,0,0,0-.53.19h0a.4.4,0,0,0,.17.54l5.13,2.34"/><path class="cls-3" d="M161,35.59,166,33.26a.41.41,0,0,1,.53.19h0a.4.4,0,0,1-.2.52L161,36.27"/><rect class="cls-8" x="161.6" y="26.28" width="3.64" height="3.43"/><rect class="cls-3" x="160.96" y="44.75" width="5.2" height="0.67" rx="0.33"/><circle class="cls-6" cx="166.22" cy="49.76" r="0.27"/><circle class="cls-6" cx="165.23" cy="49.76" r="0.27"/><circle class="cls-6" cx="164.28" cy="49.76" r="0.27"/><circle class="cls-6" cx="163.31" cy="49.76" r="0.27"/><circle class="cls-6" cx="162.28" cy="49.76" r="0.27"/><circle class="cls-6" cx="161.38" cy="49.76" r="0.27"/><circle class="cls-6" cx="160.41" cy="49.79" r="0.27"/><circle class="cls-6" cx="165.76" cy="50.76" r="0.27"/><circle class="cls-6" cx="164.8" cy="50.76" r="0.27"/><circle class="cls-6" cx="163.84" cy="50.76" r="0.27"/><circle class="cls-6" cx="162.81" cy="50.76" r="0.27"/><circle class="cls-6" cx="161.91" cy="50.76" r="0.27"/><circle class="cls-6" cx="160.93" cy="50.78" r="0.27"/><circle class="cls-6" cx="165.26" cy="51.91" r="0.27"/><circle class="cls-6" cx="164.29" cy="51.91" r="0.27"/><circle class="cls-6" cx="163.26" cy="51.91" r="0.27"/><circle class="cls-6" cx="162.36" cy="51.91" r="0.27"/><circle class="cls-6" cx="161.39" cy="51.93" r="0.27"/><circle class="cls-6" cx="164.75" cy="52.89" r="0.27"/><circle class="cls-6" cx="163.79" cy="52.89" r="0.27"/><circle class="cls-6" cx="162.82" cy="52.89" r="0.27"/><circle class="cls-6" cx="161.85" cy="52.92" r="0.27"/><path class="cls-7" d="M153.91,46.06c1.48.17,3.19-2.66,3.62-6.35s-.43-6.83-1.91-7"/><path class="cls-7" d="M172.33,45.71c-1.48.15-3.13-2.72-3.49-6.42s.57-6.81,2-6.95"/><rect class="cls-1" x="49.88" y="19.55" width="5.09" height="33.43"/><rect class="cls-1" x="49.88" y="71.8" width="5.09" height="29.03"/><path class="cls-2" d="M61.27,8.83c0,9.09-4.46,16.46-10,16.46s-9.93-7.37-10-16.46"/><path class="cls-2" d="M61.27,9.19c0-6.56-4.46-11.88-10-11.88s-9.92,5.32-10,11.88"/><path class="cls-2" d="M60.71,8.94c0,8.14-4.21,14.73-9.4,14.73s-9.4-6.59-9.4-14.73"/><polygon class="cls-2" points="60.74 9.16 41.91 9.15 44.28 -12.68 57.89 -12.71 60.74 9.16"/><path class="cls-2" d="M48.7-11.18h4.64a1.2,1.2,0,0,1,1.2,1.2V6.88a1.21,1.21,0,0,1-1.2,1.21H48.7a1.21,1.21,0,0,1-1.2-1.21V-10A1.2,1.2,0,0,1,48.7-11.18Z"/><path class="cls-2" d="M50.06-10h2.2a1.21,1.21,0,0,1,1.2,1.21V5.71a1.2,1.2,0,0,1-1.2,1.2h-2.2a1.2,1.2,0,0,1-1.2-1.2V-8.76A1.21,1.21,0,0,1,50.06-10Z"/><path class="cls-2" d="M48.85-.3,53.6-2.65a.38.38,0,0,1,.52.18h0a.4.4,0,0,1-.18.52L48.85.38"/><path class="cls-2" d="M53.46,0,48.54-2.36a.39.39,0,0,0-.53.18h0a.39.39,0,0,0,.2.52L53.49.64"/><path class="cls-2" d="M48.87,2.88,53.61.53a.39.39,0,0,1,.52.17h0a.41.41,0,0,1-.18.53L48.86,3.56"/><path class="cls-2" d="M53.47,3.14,48.55.81A.41.41,0,0,0,48,1h0a.4.4,0,0,0,.2.52l5.28,2.3"/><path class="cls-2" d="M48.86,6.09,53.6,3.74a.35.35,0,0,1,.49.11h0a.38.38,0,0,1-.21.47L48.8,6.67"/><path class="cls-2" d="M53,6l-4.5-2.12a.37.37,0,0,0-.49.2h0a.38.38,0,0,0,.16.51L53,6.68"/><path class="cls-2" d="M48.7,6.11h4.53a.33.33,0,0,1,.33.33v0a.33.33,0,0,1-.33.33H48.7a.34.34,0,0,1-.34-.34v0a.34.34,0,0,1,.34-.34Z"/><circle class="cls-2" cx="48.31" cy="11.12" r="0.27"/><circle class="cls-2" cx="49.29" cy="11.12" r="0.27"/><circle class="cls-2" cx="50.25" cy="11.12" r="0.27"/><circle class="cls-2" cx="51.22" cy="11.12" r="0.27"/><circle class="cls-2" cx="52.24" cy="11.12" r="0.27"/><circle class="cls-2" cx="53.15" cy="11.12" r="0.27"/><circle class="cls-2" cx="54.12" cy="11.15" r="0.27"/><circle class="cls-2" cx="48.77" cy="12.12" r="0.27"/><circle class="cls-2" cx="49.73" cy="12.12" r="0.27"/><circle class="cls-2" cx="50.69" cy="12.12" r="0.27"/><circle class="cls-2" cx="51.72" cy="12.12" r="0.27"/><circle class="cls-2" cx="52.62" cy="12.12" r="0.27"/><circle class="cls-2" cx="53.59" cy="12.14" r="0.27"/><circle class="cls-2" cx="49.27" cy="13.26" r="0.27"/><circle class="cls-2" cx="50.24" cy="13.26" r="0.27"/><circle class="cls-2" cx="51.27" cy="13.26" r="0.27"/><circle class="cls-2" cx="52.17" cy="13.26" r="0.27"/><circle class="cls-2" cx="53.14" cy="13.29" r="0.27"/><circle class="cls-2" cx="49.78" cy="14.25" r="0.27"/><circle class="cls-2" cx="50.73" cy="14.25" r="0.27"/><circle class="cls-2" cx="51.71" cy="14.25" r="0.27"/><circle class="cls-2" cx="52.68" cy="14.28" r="0.27"/><path class="cls-3" d="M59.33,8.84c0,9.08-4.45,16.45-9.95,16.45s-9.92-7.37-10-16.45"/><path class="cls-3" d="M59.33,9.19c0-6.56-4.45-11.87-9.95-11.87s-9.92,5.31-10,11.87"/><path class="cls-4" d="M58.77,9c0,8.13-4.21,14.72-9.4,14.72S40,17.08,40,9"/><polygon class="cls-4" points="58.8 9.16 39.97 9.16 42.34 -12.68 55.95 -12.71 58.8 9.16"/><path class="cls-3" d="M47.31,23.79a1.29,1.29,0,0,1,1.11-1.41h1.69a1.29,1.29,0,0,1,1.1,1.41"/><path class="cls-5" d="M46.77-11.18H51.4A1.2,1.2,0,0,1,52.6-10V6.89a1.2,1.2,0,0,1-1.2,1.2H46.77a1.2,1.2,0,0,1-1.2-1.2V-10A1.2,1.2,0,0,1,46.77-11.18Z"/><path class="cls-6" d="M48.13-10h2.19a1.21,1.21,0,0,1,1.2,1.21V5.71a1.21,1.21,0,0,1-1.2,1.21H48.13a1.2,1.2,0,0,1-1.2-1.21V-8.76A1.2,1.2,0,0,1,48.13-10Z"/><path class="cls-3" d="M46.92-.29l4.74-2.36a.4.4,0,0,1,.52.18h0a.38.38,0,0,1-.18.52L46.91.38"/><path class="cls-3" d="M51.52,0,46.61-2.36a.39.39,0,0,0-.53.18h0a.41.41,0,0,0,.19.53L51.55.64"/><path class="cls-3" d="M46.93,2.88,51.67.53a.4.4,0,0,1,.52.18h0a.38.38,0,0,1-.17.52l-5.1,2.33"/><path class="cls-3" d="M51.54,3.14,46.62.82a.39.39,0,0,0-.53.18h0a.39.39,0,0,0,.2.52l5.28,2.3"/><path class="cls-3" d="M46.92,6.09l4.74-2.35a.36.36,0,0,1,.49.12h0a.36.36,0,0,1-.2.46L46.87,6.68"/><path class="cls-3" d="M51,6,46.52,3.89a.39.39,0,0,0-.5.2h0a.38.38,0,0,0,.17.51L51,6.69"/><path class="cls-3" d="M46.77,6.11H51.3a.34.34,0,0,1,.34.34v0a.34.34,0,0,1-.34.34H46.77a.33.33,0,0,1-.33-.33v0a.33.33,0,0,1,.33-.33Z"/><circle class="cls-6" cx="46.37" cy="11.12" r="0.27"/><circle class="cls-6" cx="47.36" cy="11.12" r="0.27"/><circle class="cls-6" cx="48.32" cy="11.13" r="0.27"/><circle class="cls-6" cx="49.28" cy="11.13" r="0.27"/><circle class="cls-6" cx="50.31" cy="11.13" r="0.27"/><circle class="cls-6" cx="51.21" cy="11.13" r="0.27"/><circle class="cls-6" cx="52.19" cy="11.15" r="0.27"/><circle class="cls-6" cx="46.83" cy="12.12" r="0.27"/><circle class="cls-6" cx="47.79" cy="12.12" r="0.27"/><circle class="cls-6" cx="48.76" cy="12.12" r="0.27"/><circle class="cls-6" cx="49.78" cy="12.12" r="0.27"/><circle class="cls-6" cx="50.68" cy="12.12" r="0.27"/><circle class="cls-6" cx="51.66" cy="12.15" r="0.27"/><circle class="cls-6" cx="47.34" cy="13.27" r="0.27"/><circle class="cls-6" cx="48.3" cy="13.27" r="0.27"/><circle class="cls-6" cx="49.33" cy="13.27" r="0.27"/><circle class="cls-6" cx="50.23" cy="13.27" r="0.27"/><circle class="cls-6" cx="51.21" cy="13.29" r="0.27"/><circle class="cls-6" cx="47.84" cy="14.26" r="0.27"/><circle class="cls-6" cx="48.8" cy="14.26" r="0.27"/><circle class="cls-6" cx="49.77" cy="14.26" r="0.27"/><circle class="cls-6" cx="50.75" cy="14.28" r="0.27"/><path class="cls-7" d="M58.68,7.42c-1.48.17-3.19-2.66-3.62-6.35s.43-6.82,1.91-7"/><path class="cls-7" d="M40.26,7.08c1.49.14,3.13-2.73,3.49-6.43s-.56-6.81-2-6.95"/><rect class="cls-1" x="249.56" y="19" width="5.09" height="33.43"/><rect class="cls-1" x="249.56" y="71.24" width="5.09" height="29.03"/><path class="cls-2" d="M254.35,47.45c0,9.09,4.46,16.46,10,16.46s9.92-7.37,9.95-16.46"/><path class="cls-2" d="M254.35,47.81c0-6.56,4.46-11.88,10-11.88s9.92,5.32,9.95,11.88"/><path class="cls-2" d="M254.92,47.56c0,8.13,4.2,14.73,9.4,14.73s9.4-6.6,9.4-14.73"/><path class="cls-2" d="M271.42,26.42a6.85,6.85,0,0,0-13.7,0"/><polygon class="cls-2" points="254.88 47.78 273.71 47.77 271.35 25.93 257.74 25.91 254.88 47.78"/><path class="cls-2" d="M268.05,28c0-2.78-1.56-5-3.48-5s-3.48,2.25-3.48,5"/><path class="cls-2" d="M265.08,24.71h-1.24a1.2,1.2,0,0,1-1.2-1.2V19.37a1.19,1.19,0,0,1,1.2-1.2h1.24a1.2,1.2,0,0,1,1.2,1.2v4.14A1.2,1.2,0,0,1,265.08,24.71Z"/><path class="cls-2" d="M266.92,46.71h-4.63a1.2,1.2,0,0,1-1.2-1.21V28.64a1.2,1.2,0,0,1,1.2-1.21h4.63a1.2,1.2,0,0,1,1.2,1.21V45.5A1.2,1.2,0,0,1,266.92,46.71Z"/><path class="cls-2" d="M265.56,45.53h-2.19a1.2,1.2,0,0,1-1.2-1.2V29.85a1.2,1.2,0,0,1,1.2-1.2h2.19a1.2,1.2,0,0,1,1.2,1.2V44.33A1.2,1.2,0,0,1,265.56,45.53Z"/><path class="cls-2" d="M268,28.48a.71.71,0,0,0-.27-1,.69.69,0,0,0-.34-.09h-5.59a.69.69,0,0,0-.69.7.71.71,0,0,0,.1.35l1.42,2.44,1.42,2.44a.69.69,0,0,0,.95.25.65.65,0,0,0,.26-.26l1.37-2.44Z"/><path class="cls-2" d="M266.76,32.41,262,30.05a.4.4,0,0,0-.52.18h0a.38.38,0,0,0,.18.52l5.09,2.33"/><path class="cls-2" d="M262.16,32.66l4.92-2.32a.39.39,0,0,1,.52.18h0a.4.4,0,0,1-.19.53l-5.28,2.3"/><path class="cls-2" d="M266.77,38.32,262,36a.38.38,0,0,0-.52.17h0a.39.39,0,0,0,.17.53l5.1,2.33"/><path class="cls-2" d="M262.16,38.58l4.92-2.33a.4.4,0,0,1,.53.19h0a.39.39,0,0,1-.2.52l-5.28,2.3"/><path class="cls-2" d="M266.76,41.5,262,39.14a.39.39,0,0,0-.52.18h0a.39.39,0,0,0,.17.53l5.1,2.33"/><path class="cls-2" d="M262.15,41.76l4.92-2.33a.41.41,0,0,1,.53.18h0a.4.4,0,0,1-.2.53l-5.28,2.3"/><path class="cls-2" d="M266.77,44.71,262,42.35a.36.36,0,0,0-.49.12h0a.37.37,0,0,0,.2.47l5.08,2.35"/><path class="cls-2" d="M262.68,44.63l4.49-2.12a.38.38,0,0,1,.5.19h0a.38.38,0,0,1-.17.51l-4.83,2.09"/><path class="cls-2" d="M266.76,35.32,262,33a.4.4,0,0,0-.53.19h0a.41.41,0,0,0,.17.54L266.76,36"/><path class="cls-2" d="M262.12,35.56,267,33.24a.39.39,0,0,1,.53.18h0a.4.4,0,0,1-.2.53l-5.27,2.29"/><rect class="cls-2" x="262.05" y="44.72" width="5.2" height="0.67" rx="0.33"/><circle class="cls-2" cx="267.32" cy="49.74" r="0.27"/><circle class="cls-2" cx="266.33" cy="49.74" r="0.27"/><circle class="cls-2" cx="265.37" cy="49.74" r="0.27"/><circle class="cls-2" cx="264.41" cy="49.74" r="0.27"/><circle class="cls-2" cx="263.38" cy="49.74" r="0.27"/><circle class="cls-2" cx="262.48" cy="49.74" r="0.27"/><circle class="cls-2" cx="261.5" cy="49.76" r="0.27"/><circle class="cls-2" cx="266.86" cy="50.73" r="0.27"/><circle class="cls-2" cx="265.9" cy="50.74" r="0.27"/><circle class="cls-2" cx="264.93" cy="50.74" r="0.27"/><circle class="cls-2" cx="263.91" cy="50.74" r="0.27"/><circle class="cls-2" cx="263.01" cy="50.74" r="0.27"/><circle class="cls-2" cx="262.03" cy="50.76" r="0.27"/><circle class="cls-2" cx="266.35" cy="51.88" r="0.27"/><circle class="cls-2" cx="265.39" cy="51.88" r="0.27"/><circle class="cls-2" cx="264.36" cy="51.88" r="0.27"/><circle class="cls-2" cx="263.46" cy="51.88" r="0.27"/><circle class="cls-2" cx="262.48" cy="51.9" r="0.27"/><circle class="cls-2" cx="265.85" cy="52.87" r="0.27"/><circle class="cls-2" cx="264.89" cy="52.87" r="0.27"/><circle class="cls-2" cx="263.92" cy="52.87" r="0.27"/><circle class="cls-2" cx="262.94" cy="52.89" r="0.27"/><path class="cls-3" d="M253,47.32c0,9.09,4.46,16.46,10,16.46s9.92-7.37,9.95-16.46"/><path class="cls-3" d="M253,47.67c0-6.55,4.46-11.87,9.95-11.87s9.92,5.32,10,11.87"/><path class="cls-4" d="M253.58,47.43c0,8.13,4.2,14.72,9.4,14.72s9.4-6.59,9.4-14.72"/><path class="cls-4" d="M270.08,26.29a6.85,6.85,0,0,0-13.7,0"/><polygon class="cls-4" points="253.54 47.65 272.38 47.64 270.01 25.8 256.4 25.78 253.54 47.65"/><path class="cls-3" d="M265,62.28a1.3,1.3,0,0,0-1.11-1.42h-1.69a1.29,1.29,0,0,0-1.1,1.42"/><path class="cls-3" d="M266.71,27.9c0-2.77-1.56-5-3.48-5s-3.48,2.25-3.48,5"/><path class="cls-3" d="M263.74,24.58H262.5a1.2,1.2,0,0,1-1.2-1.21V19.24A1.2,1.2,0,0,1,262.5,18h1.24a1.21,1.21,0,0,1,1.2,1.21v4.13A1.21,1.21,0,0,1,263.74,24.58Z"/><path class="cls-5" d="M265.58,46.57H261a1.2,1.2,0,0,1-1.2-1.2V28.51A1.2,1.2,0,0,1,261,27.3h4.63a1.21,1.21,0,0,1,1.2,1.21V45.37A1.2,1.2,0,0,1,265.58,46.57Z"/><path class="cls-6" d="M264.22,45.4H262a1.2,1.2,0,0,1-1.2-1.21V29.72a1.2,1.2,0,0,1,1.2-1.2h2.19a1.2,1.2,0,0,1,1.2,1.2V44.19A1.21,1.21,0,0,1,264.22,45.4Z"/><path class="cls-6" d="M266.67,28.35a.72.72,0,0,0-.27-1,1,1,0,0,0-.34-.09h-5.59a.71.71,0,0,0-.69.71.74.74,0,0,0,.1.35l1.42,2.44,1.42,2.43a.69.69,0,0,0,.95.26.65.65,0,0,0,.26-.26l1.37-2.44Z"/><path class="cls-3" d="M265.42,32.28l-4.74-2.36a.38.38,0,0,0-.52.18h0a.38.38,0,0,0,.18.52L265.43,33"/><path class="cls-3" d="M260.82,32.53l4.92-2.32a.38.38,0,0,1,.52.18h0a.39.39,0,0,1-.19.52l-5.28,2.3"/><path class="cls-3" d="M265.43,38.19l-4.74-2.36a.4.4,0,0,0-.52.18h0a.39.39,0,0,0,.17.53l5.1,2.33"/><path class="cls-3" d="M260.82,38.44l4.92-2.32a.41.41,0,0,1,.53.18h0a.4.4,0,0,1-.2.53l-5.28,2.3"/><path class="cls-3" d="M265.42,41.37,260.68,39a.39.39,0,0,0-.52.18h0a.38.38,0,0,0,.17.52l5.1,2.33"/><path class="cls-3" d="M260.81,41.62l4.92-2.32a.4.4,0,0,1,.53.18h0a.4.4,0,0,1-.2.53l-5.28,2.29"/><path class="cls-3" d="M265.43,44.57l-4.74-2.35a.36.36,0,0,0-.49.12h0a.36.36,0,0,0,.2.46l5.08,2.36"/><path class="cls-3" d="M261.34,44.5l4.49-2.13a.39.39,0,0,1,.5.2h0a.38.38,0,0,1-.17.51l-4.83,2.09"/><path class="cls-3" d="M265.42,35.19l-4.77-2.37a.4.4,0,0,0-.53.19h0a.41.41,0,0,0,.17.54l5.13,2.34"/><path class="cls-3" d="M260.78,35.43l4.92-2.32a.39.39,0,0,1,.53.18h0a.39.39,0,0,1-.2.52l-5.27,2.3"/><rect class="cls-8" x="261.36" y="26.12" width="3.64" height="3.43"/><path class="cls-3" d="M261,44.59h4.53a.33.33,0,0,1,.33.33v0a.33.33,0,0,1-.33.33H261a.33.33,0,0,1-.33-.33v0a.34.34,0,0,1,.34-.34Z"/><circle class="cls-6" cx="265.98" cy="49.61" r="0.27"/><circle class="cls-6" cx="264.99" cy="49.61" r="0.27"/><circle class="cls-6" cx="264.03" cy="49.61" r="0.27"/><circle class="cls-6" cx="263.07" cy="49.61" r="0.27"/><circle class="cls-6" cx="262.04" cy="49.61" r="0.27"/><circle class="cls-6" cx="261.14" cy="49.61" r="0.27"/><circle class="cls-6" cx="260.16" cy="49.63" r="0.27"/><circle class="cls-6" cx="265.52" cy="50.6" r="0.27"/><circle class="cls-6" cx="264.56" cy="50.6" r="0.27"/><circle class="cls-6" cx="263.59" cy="50.6" r="0.27"/><circle class="cls-6" cx="262.56" cy="50.6" r="0.27"/><circle class="cls-6" cx="261.66" cy="50.6" r="0.27"/><circle class="cls-6" cx="260.69" cy="50.63" r="0.27"/><circle class="cls-6" cx="265.01" cy="51.75" r="0.27"/><circle class="cls-6" cx="264.05" cy="51.75" r="0.27"/><circle class="cls-6" cx="263.02" cy="51.75" r="0.27"/><circle class="cls-6" cx="262.12" cy="51.75" r="0.27"/><circle class="cls-6" cx="261.14" cy="51.77" r="0.27"/><circle class="cls-6" cx="264.5" cy="52.74" r="0.27"/><circle class="cls-6" cx="263.55" cy="52.74" r="0.27"/><circle class="cls-6" cx="262.58" cy="52.74" r="0.27"/><circle class="cls-6" cx="261.6" cy="52.76" r="0.27"/><path class="cls-7" d="M253.67,45.9c1.48.17,3.19-2.66,3.61-6.35s-.42-6.82-1.91-7"/><path class="cls-7" d="M272.09,45.56c-1.49.14-3.14-2.73-3.49-6.42s.56-6.82,2-7"/><rect class="cls-1" x="234.86" y="56.56" width="5.09" height="11.22"/><path class="cls-2" d="M252.64,80.57c0,9.09-4.45,16.46-9.95,16.46s-9.93-7.37-10-16.46"/><path class="cls-2" d="M252.64,80.92c0-6.55-4.45-11.87-9.95-11.87s-9.92,5.32-9.95,11.87"/><path class="cls-2" d="M252.08,80.68c0,8.13-4.21,14.72-9.4,14.72s-9.4-6.59-9.4-14.72"/><path class="cls-2" d="M235.58,59.54a6.85,6.85,0,0,1,13.7,0"/><polygon class="cls-2" points="252.11 80.89 233.28 80.89 235.65 59.05 249.26 59.03 252.11 80.89"/><path class="cls-2" d="M239,61.15c0-2.77,1.56-5,3.48-5s3.47,2.25,3.47,5"/><path class="cls-2" d="M241.92,51.28h1.24a1.21,1.21,0,0,1,1.2,1.21v4.13a1.21,1.21,0,0,1-1.2,1.21h-1.24a1.2,1.2,0,0,1-1.2-1.21V52.49A1.2,1.2,0,0,1,241.92,51.28Z"/><path class="cls-2" d="M240.07,60.55h4.64a1.21,1.21,0,0,1,1.2,1.21V78.62a1.2,1.2,0,0,1-1.2,1.2h-4.64a1.2,1.2,0,0,1-1.2-1.2V61.76A1.21,1.21,0,0,1,240.07,60.55Z"/><path class="cls-2" d="M241.43,61.77h2.2a1.2,1.2,0,0,1,1.2,1.2V77.44a1.21,1.21,0,0,1-1.2,1.21h-2.2a1.2,1.2,0,0,1-1.19-1.21V63A1.19,1.19,0,0,1,241.43,61.77Z"/><path class="cls-2" d="M239,61.6a.72.72,0,0,1,.28-1,1,1,0,0,1,.34-.09h5.58a.7.7,0,0,1,.69.71.73.73,0,0,1-.09.35l-1.43,2.44-1.42,2.43a.69.69,0,0,1-1,.26.81.81,0,0,1-.26-.26L240.35,64Z"/><path class="cls-2" d="M240.23,65.53,245,63.17a.38.38,0,0,1,.52.18h0a.4.4,0,0,1-.18.52l-5.09,2.33"/><path class="cls-2" d="M244.84,65.78l-4.92-2.32a.39.39,0,0,0-.53.18h0a.39.39,0,0,0,.2.52l5.28,2.3"/><path class="cls-2" d="M240.23,71.44,245,69.08a.4.4,0,0,1,.52.18h0a.41.41,0,0,1-.18.53l-5.09,2.33"/><path class="cls-2" d="M244.83,71.69l-4.92-2.32a.4.4,0,0,0-.52.18h0a.4.4,0,0,0,.19.53l5.28,2.3"/><path class="cls-2" d="M240.24,74.62,245,72.26a.4.4,0,0,1,.52.18h0a.38.38,0,0,1-.18.52l-5.09,2.33"/><path class="cls-2" d="M244.84,74.87l-4.91-2.32a.39.39,0,0,0-.53.18h0a.41.41,0,0,0,.19.53l5.28,2.29"/><path class="cls-2" d="M240.23,77.82,245,75.47a.36.36,0,0,1,.49.12h0a.35.35,0,0,1-.21.46l-5.08,2.36"/><path class="cls-2" d="M244.32,77.75l-4.5-2.13a.37.37,0,0,0-.49.2h0a.38.38,0,0,0,.16.51l4.84,2.09"/><path class="cls-2" d="M240.23,68.44,245,66.07a.4.4,0,0,1,.53.19h0a.4.4,0,0,1-.17.54l-5.13,2.34"/><path class="cls-2" d="M244.87,68.68,240,66.36a.39.39,0,0,0-.53.18h0a.4.4,0,0,0,.2.52l5.28,2.3"/><path class="cls-2" d="M240.07,77.84h4.53a.33.33,0,0,1,.33.33v0a.33.33,0,0,1-.33.33h-4.53a.33.33,0,0,1-.33-.33v0a.34.34,0,0,1,.34-.34Z"/><circle class="cls-2" cx="239.68" cy="82.86" r="0.27"/><circle class="cls-2" cx="240.67" cy="82.86" r="0.27"/><circle class="cls-2" cx="241.62" cy="82.86" r="0.27"/><circle class="cls-2" cx="242.59" cy="82.86" r="0.27"/><circle class="cls-2" cx="243.62" cy="82.86" r="0.27"/><circle class="cls-2" cx="244.52" cy="82.86" r="0.27"/><circle class="cls-2" cx="245.49" cy="82.88" r="0.27"/><circle class="cls-2" cx="240.14" cy="83.85" r="0.27"/><circle class="cls-2" cx="241.1" cy="83.85" r="0.27"/><circle class="cls-2" cx="242.06" cy="83.85" r="0.27"/><circle class="cls-2" cx="243.09" cy="83.85" r="0.27"/><circle class="cls-2" cx="243.99" cy="83.85" r="0.27"/><circle class="cls-2" cx="244.97" cy="83.88" r="0.27"/><circle class="cls-2" cx="240.64" cy="85" r="0.27"/><circle class="cls-2" cx="241.61" cy="85" r="0.27"/><circle class="cls-2" cx="242.64" cy="85" r="0.27"/><circle class="cls-2" cx="243.54" cy="85" r="0.27"/><circle class="cls-2" cx="244.51" cy="85.02" r="0.27"/><circle class="cls-2" cx="241.15" cy="85.99" r="0.27"/><circle class="cls-2" cx="242.11" cy="85.99" r="0.27"/><circle class="cls-2" cx="243.08" cy="85.99" r="0.27"/><circle class="cls-2" cx="244.05" cy="86.01" r="0.27"/><path class="cls-3" d="M250.71,80.57c0,9.09-4.46,16.46-10,16.46s-9.92-7.37-9.95-16.46"/><path class="cls-3" d="M250.71,80.93c0-6.56-4.46-11.88-10-11.88s-9.92,5.32-9.95,11.88"/><path class="cls-4" d="M250.15,80.68c0,8.14-4.21,14.73-9.41,14.73s-9.4-6.59-9.4-14.73"/><path class="cls-4" d="M233.64,59.54a6.85,6.85,0,0,1,13.7,0"/><polygon class="cls-4" points="250.18 80.9 231.35 80.89 233.71 59.06 247.32 59.03 250.18 80.9"/><path class="cls-3" d="M238.68,95.53a1.3,1.3,0,0,1,1.11-1.42h1.69a1.3,1.3,0,0,1,1.11,1.42"/><path class="cls-3" d="M237,61.16c0-2.78,1.55-5,3.47-5s3.48,2.25,3.48,5"/><path class="cls-3" d="M240,51.29h1.24a1.2,1.2,0,0,1,1.2,1.2v4.14a1.2,1.2,0,0,1-1.2,1.2H240a1.2,1.2,0,0,1-1.2-1.2V52.49A1.2,1.2,0,0,1,240,51.29Z"/><path class="cls-5" d="M238.14,60.56h4.63a1.2,1.2,0,0,1,1.2,1.2V78.62a1.2,1.2,0,0,1-1.2,1.21h-4.63a1.21,1.21,0,0,1-1.2-1.21V61.76A1.2,1.2,0,0,1,238.14,60.56Z"/><path class="cls-6" d="M239.5,61.77h2.19a1.2,1.2,0,0,1,1.2,1.2V77.45a1.2,1.2,0,0,1-1.2,1.2H239.5a1.2,1.2,0,0,1-1.2-1.2V63A1.2,1.2,0,0,1,239.5,61.77Z"/><path class="cls-6" d="M237.05,61.6a.71.71,0,0,1,.27-1,.69.69,0,0,1,.34-.09h5.59a.69.69,0,0,1,.69.7.71.71,0,0,1-.1.35l-1.42,2.44L241,66.49a.7.7,0,0,1-.95.26.81.81,0,0,1-.26-.26L238.42,64Z"/><path class="cls-3" d="M238.3,65.53,243,63.17a.4.4,0,0,1,.52.18h0a.38.38,0,0,1-.18.52l-5.09,2.34"/><path class="cls-3" d="M242.91,65.79,238,63.46a.4.4,0,0,0-.52.18h0a.41.41,0,0,0,.19.53l5.28,2.3"/><path class="cls-3" d="M238.29,71.44,243,69.09a.38.38,0,0,1,.52.18h0a.39.39,0,0,1-.17.52l-5.1,2.33"/><path class="cls-3" d="M242.9,71.7,238,69.37a.4.4,0,0,0-.53.19h0a.39.39,0,0,0,.2.52l5.28,2.3"/><path class="cls-3" d="M238.3,74.62,243,72.27a.39.39,0,0,1,.53.17h0a.41.41,0,0,1-.18.53L238.3,75.3"/><path class="cls-3" d="M242.91,74.88,238,72.55a.4.4,0,0,0-.53.19h0a.39.39,0,0,0,.2.52l5.28,2.3"/><path class="cls-3" d="M238.29,77.83,243,75.48a.36.36,0,0,1,.5.11h0a.39.39,0,0,1-.21.47l-5.08,2.35"/><path class="cls-3" d="M242.39,77.75l-4.5-2.12a.38.38,0,0,0-.5.2h0a.39.39,0,0,0,.17.51l4.83,2.08"/><path class="cls-3" d="M238.3,68.44l4.77-2.37a.41.41,0,0,1,.53.19h0a.41.41,0,0,1-.17.54l-5.13,2.34"/><path class="cls-3" d="M242.94,68.68,238,66.36a.41.41,0,0,0-.53.18h0a.4.4,0,0,0,.2.53L243,69.36"/><rect class="cls-8" x="238.72" y="59.37" width="3.64" height="3.43"/><rect class="cls-3" x="237.8" y="77.85" width="5.2" height="0.67" rx="0.33"/><circle class="cls-6" cx="237.74" cy="82.86" r="0.27"/><circle class="cls-6" cx="238.73" cy="82.86" r="0.27"/><circle class="cls-6" cx="239.69" cy="82.86" r="0.27"/><circle class="cls-6" cx="240.65" cy="82.86" r="0.27"/><circle class="cls-6" cx="241.68" cy="82.86" r="0.27"/><circle class="cls-6" cx="242.58" cy="82.86" r="0.27"/><circle class="cls-6" cx="243.56" cy="82.88" r="0.27"/><circle class="cls-6" cx="238.21" cy="83.86" r="0.27"/><circle class="cls-6" cx="239.16" cy="83.86" r="0.27"/><circle class="cls-6" cx="240.13" cy="83.86" r="0.27"/><circle class="cls-6" cx="241.16" cy="83.86" r="0.27"/><circle class="cls-6" cx="242.06" cy="83.86" r="0.27"/><circle class="cls-6" cx="243.03" cy="83.88" r="0.27"/><circle class="cls-6" cx="238.71" cy="85" r="0.27"/><circle class="cls-6" cx="239.67" cy="85" r="0.27"/><circle class="cls-6" cx="240.7" cy="85" r="0.27"/><circle class="cls-6" cx="241.6" cy="85" r="0.27"/><circle class="cls-6" cx="242.58" cy="85.03" r="0.27"/><circle class="cls-6" cx="239.22" cy="85.99" r="0.27"/><circle class="cls-6" cx="240.17" cy="85.99" r="0.27"/><circle class="cls-6" cx="241.14" cy="85.99" r="0.27"/><circle class="cls-6" cx="242.12" cy="86.01" r="0.27"/><path class="cls-7" d="M250.06,79.15c-1.49.18-3.19-2.66-3.62-6.35s.42-6.82,1.91-7"/><path class="cls-7" d="M231.63,78.81c1.49.14,3.14-2.72,3.49-6.42s-.56-6.81-2.05-7"/><rect class="cls-1" x="348.87" y="19.13" width="5.09" height="33.43"/><rect class="cls-1" x="348.83" y="71.48" width="5.09" height="29.03"/><path class="cls-2" d="M351.12,109.4c0-6.55,4.45-11.87,9.95-11.87S371,102.85,371,109.4"/><path class="cls-2" d="M368.22,87.9a6.85,6.85,0,0,0-13.7,0"/><polygon class="cls-2" points="351.65 109.37 370.48 109.37 368.11 87.53 354.5 87.51 351.65 109.37"/><path class="cls-2" d="M364.85,89.52c0-2.78-1.56-5-3.48-5s-3.47,2.25-3.47,5"/><path class="cls-2" d="M361.88,86.19h-1.24a1.2,1.2,0,0,1-1.2-1.2V80.85a1.2,1.2,0,0,1,1.2-1.2h1.24a1.2,1.2,0,0,1,1.2,1.2V85A1.2,1.2,0,0,1,361.88,86.19Z"/><path class="cls-2" d="M363.69,108.3h-4.64a1.2,1.2,0,0,1-1.2-1.2V90.24a1.21,1.21,0,0,1,1.2-1.21h4.64a1.21,1.21,0,0,1,1.2,1.21V107.1A1.2,1.2,0,0,1,363.69,108.3Z"/><path class="cls-2" d="M362.32,107.13h-2.19a1.21,1.21,0,0,1-1.2-1.21V91.45a1.2,1.2,0,0,1,1.2-1.2h2.19a1.2,1.2,0,0,1,1.2,1.2v14.47A1.2,1.2,0,0,1,362.32,107.13Z"/><path class="cls-2" d="M364.81,90a.71.71,0,0,0-.27-1,.67.67,0,0,0-.34-.09h-5.58a.7.7,0,0,0-.7.7.75.75,0,0,0,.1.36l1.42,2.43,1.42,2.44a.71.71,0,0,0,1,.26.69.69,0,0,0,.25-.26l1.37-2.44Z"/><path class="cls-2" d="M363.56,93.89l-4.74-2.36a.4.4,0,0,0-.52.18h0a.41.41,0,0,0,.18.53l5.09,2.33"/><path class="cls-2" d="M359,94.15l4.92-2.33a.41.41,0,0,1,.53.18h0a.4.4,0,0,1-.2.53l-5.28,2.3"/><path class="cls-2" d="M363.53,99.92l-4.74-2.36a.4.4,0,0,0-.52.18h0a.39.39,0,0,0,.18.52l5.09,2.33"/><path class="cls-2" d="M358.93,100.17l4.92-2.32a.4.4,0,0,1,.52.18h0a.41.41,0,0,1-.19.53l-5.28,2.3"/><path class="cls-2" d="M363.56,96.8l-4.77-2.36a.4.4,0,0,0-.53.19h0a.39.39,0,0,0,.18.53l5.12,2.34"/><path class="cls-2" d="M358.89,97.16l4.92-2.32a.38.38,0,0,1,.52.18h0a.39.39,0,0,1-.19.52l-5.28,2.3"/><path class="cls-3" d="M349.78,109.27c0-6.56,4.45-11.87,10-11.87s9.92,5.31,9.95,11.87"/><path class="cls-4" d="M366.88,87.77a6.85,6.85,0,0,0-13.7,0"/><polygon class="cls-4" points="350.31 109.24 369.14 109.24 366.77 87.4 353.16 87.38 350.31 109.24"/><path class="cls-3" d="M363.51,89.39c0-2.78-1.56-5-3.48-5s-3.47,2.25-3.47,5"/><path class="cls-3" d="M360.54,86.06H359.3a1.2,1.2,0,0,1-1.2-1.2V80.72a1.2,1.2,0,0,1,1.2-1.2h1.24a1.2,1.2,0,0,1,1.2,1.2v4.14A1.2,1.2,0,0,1,360.54,86.06Z"/><path class="cls-5" d="M362.35,108.17h-4.64a1.2,1.2,0,0,1-1.2-1.2V90.1a1.2,1.2,0,0,1,1.2-1.2h4.64a1.2,1.2,0,0,1,1.2,1.2V107A1.2,1.2,0,0,1,362.35,108.17Z"/><path class="cls-6" d="M361,107h-2.19a1.2,1.2,0,0,1-1.2-1.2V91.32a1.21,1.21,0,0,1,1.2-1.21H361a1.2,1.2,0,0,1,1.2,1.21v14.47A1.19,1.19,0,0,1,361,107Z"/><path class="cls-6" d="M363.47,89.83a.71.71,0,0,0-.27-1,.67.67,0,0,0-.34-.09h-5.58a.7.7,0,0,0-.7.7.71.71,0,0,0,.1.35l1.42,2.44,1.42,2.44a.7.7,0,0,0,1,.26.75.75,0,0,0,.26-.27l1.37-2.44Z"/><path class="cls-3" d="M362.22,93.76l-4.74-2.36a.4.4,0,0,0-.52.18h0a.4.4,0,0,0,.18.52l5.09,2.34"/><path class="cls-3" d="M357.62,94l4.92-2.33a.4.4,0,0,1,.53.18h0a.4.4,0,0,1-.2.53l-5.28,2.3"/><path class="cls-3" d="M362.19,99.79l-4.74-2.36a.4.4,0,0,0-.52.18h0a.39.39,0,0,0,.18.52l5.09,2.33"/><path class="cls-3" d="M357.59,100l4.92-2.32a.39.39,0,0,1,.52.18h0a.41.41,0,0,1-.19.53l-5.28,2.29"/><path class="cls-3" d="M362.22,96.67l-4.77-2.37a.41.41,0,0,0-.53.19h0a.4.4,0,0,0,.18.54l5.12,2.34"/><path class="cls-3" d="M357.59,96.91l4.92-2.32a.39.39,0,0,1,.52.18h0a.41.41,0,0,1-.19.53l-5.28,2.29"/><rect class="cls-8" x="358.16" y="87.6" width="3.64" height="3.43"/><path class="cls-7" d="M350.43,107.5c1.48.17,3.19-2.66,3.62-6.35s-.43-6.82-1.91-7"/><path class="cls-7" d="M368.85,107.15c-1.48.15-3.13-2.72-3.49-6.42s.56-6.81,2.05-7"/><rect class="cls-1" x="334.16" y="56.68" width="5.09" height="11.22"/><path class="cls-2" d="M351.94,80.69c0,9.09-4.45,16.46-9.95,16.46s-9.92-7.37-9.95-16.46"/><path class="cls-2" d="M351.94,81.05c0-6.56-4.45-11.88-9.95-11.88s-9.92,5.32-9.95,11.88"/><path class="cls-2" d="M351.38,80.8c0,8.14-4.21,14.73-9.4,14.73s-9.4-6.59-9.4-14.73"/><path class="cls-2" d="M334.88,59.66a6.85,6.85,0,0,1,13.7,0"/><polygon class="cls-2" points="351.41 81.02 332.58 81.01 334.95 59.18 348.56 59.15 351.41 81.02"/><path class="cls-2" d="M338.25,61.28c0-2.78,1.56-5,3.48-5s3.47,2.25,3.47,5"/><path class="cls-2" d="M341.22,51.41h1.24a1.2,1.2,0,0,1,1.2,1.2v4.14a1.2,1.2,0,0,1-1.2,1.2h-1.24a1.2,1.2,0,0,1-1.2-1.2V52.61A1.2,1.2,0,0,1,341.22,51.41Z"/><path class="cls-2" d="M339.38,60.68H344a1.2,1.2,0,0,1,1.2,1.2V78.74A1.21,1.21,0,0,1,344,80h-4.63a1.2,1.2,0,0,1-1.2-1.21V61.88A1.2,1.2,0,0,1,339.38,60.68Z"/><path class="cls-2" d="M340.74,61.89h2.19a1.2,1.2,0,0,1,1.2,1.2V77.57a1.2,1.2,0,0,1-1.2,1.2h-2.19a1.2,1.2,0,0,1-1.2-1.2V63.09A1.2,1.2,0,0,1,340.74,61.89Z"/><path class="cls-2" d="M338.29,61.72a.7.7,0,0,1,.27-1,.67.67,0,0,1,.34-.09h5.58a.7.7,0,0,1,.7.7.71.71,0,0,1-.1.35l-1.42,2.44-1.43,2.44a.7.7,0,0,1-1,.26.88.88,0,0,1-.25-.26l-1.37-2.44Z"/><path class="cls-2" d="M339.53,65.65l4.75-2.36a.4.4,0,0,1,.52.18h0a.4.4,0,0,1-.18.52l-5.09,2.34"/><path class="cls-2" d="M344.14,65.91l-4.92-2.33a.41.41,0,0,0-.53.18h0a.4.4,0,0,0,.2.53l5.28,2.3"/><path class="cls-2" d="M339.53,71.56l4.74-2.35a.38.38,0,0,1,.52.18h0a.39.39,0,0,1-.18.52l-5.09,2.33"/><path class="cls-2" d="M344.13,71.82l-4.92-2.33a.39.39,0,0,0-.52.19h0a.4.4,0,0,0,.19.52l5.28,2.3"/><path class="cls-2" d="M339.54,74.74l4.74-2.35a.38.38,0,0,1,.52.17h0a.39.39,0,0,1-.18.53l-5.09,2.33"/><path class="cls-2" d="M344.15,75l-4.92-2.33a.4.4,0,0,0-.53.19h0a.39.39,0,0,0,.2.52l5.28,2.3"/><path class="cls-2" d="M339.53,78l4.74-2.35a.35.35,0,0,1,.49.11h0a.37.37,0,0,1-.2.47l-5.08,2.35"/><path class="cls-2" d="M343.62,77.87l-4.49-2.12a.37.37,0,0,0-.5.2h0a.39.39,0,0,0,.17.51l4.83,2.08"/><path class="cls-2" d="M339.54,68.56l4.77-2.37a.41.41,0,0,1,.53.19h0a.4.4,0,0,1-.18.54l-5.12,2.34"/><path class="cls-2" d="M344.17,68.8l-4.92-2.32a.4.4,0,0,0-.52.18h0a.4.4,0,0,0,.19.53l5.28,2.29"/><path class="cls-2" d="M339.38,78h4.53a.33.33,0,0,1,.33.33v0a.33.33,0,0,1-.33.33h-4.53a.34.34,0,0,1-.34-.34v0a.34.34,0,0,1,.34-.34Z"/><circle class="cls-2" cx="338.98" cy="82.98" r="0.27"/><circle class="cls-2" cx="339.97" cy="82.98" r="0.27"/><circle class="cls-2" cx="340.93" cy="82.98" r="0.27"/><circle class="cls-2" cx="341.89" cy="82.98" r="0.27"/><circle class="cls-2" cx="342.92" cy="82.98" r="0.27"/><circle class="cls-2" cx="343.82" cy="82.98" r="0.27"/><circle class="cls-2" cx="344.79" cy="83" r="0.27"/><circle class="cls-2" cx="339.44" cy="83.98" r="0.27"/><circle class="cls-2" cx="340.4" cy="83.98" r="0.27"/><circle class="cls-2" cx="341.36" cy="83.98" r="0.27"/><circle class="cls-2" cx="342.39" cy="83.98" r="0.27"/><circle class="cls-2" cx="343.29" cy="83.98" r="0.27"/><circle class="cls-2" cx="344.27" cy="84" r="0.27"/><circle class="cls-2" cx="339.95" cy="85.12" r="0.27"/><circle class="cls-2" cx="340.91" cy="85.12" r="0.27"/><circle class="cls-2" cx="341.94" cy="85.12" r="0.27"/><circle class="cls-2" cx="342.84" cy="85.12" r="0.27"/><circle class="cls-2" cx="343.81" cy="85.15" r="0.27"/><circle class="cls-2" cx="340.45" cy="86.11" r="0.27"/><circle class="cls-2" cx="341.41" cy="86.11" r="0.27"/><circle class="cls-2" cx="342.38" cy="86.11" r="0.27"/><circle class="cls-2" cx="343.36" cy="86.14" r="0.27"/><path class="cls-3" d="M350,80.69c0,9.09-4.46,16.46-10,16.46s-9.92-7.37-9.95-16.46"/><path class="cls-3" d="M350,81.05c0-6.56-4.46-11.87-9.95-11.87s-9.92,5.31-9.95,11.87"/><path class="cls-4" d="M349.45,80.81c0,8.13-4.21,14.72-9.4,14.72s-9.4-6.59-9.4-14.72"/><path class="cls-4" d="M332.94,59.66a6.85,6.85,0,0,1,13.7,0"/><polygon class="cls-4" points="349.48 81.02 330.65 81.02 333.01 59.18 346.63 59.16 349.48 81.02"/><path class="cls-3" d="M338,95.65a1.29,1.29,0,0,1,1.11-1.41h1.69a1.29,1.29,0,0,1,1.11,1.41"/><path class="cls-3" d="M336.32,61.28c0-2.78,1.55-5,3.47-5s3.48,2.25,3.48,5"/><path class="cls-3" d="M339.28,51.41h1.25a1.2,1.2,0,0,1,1.2,1.2v4.14a1.21,1.21,0,0,1-1.2,1.21h-1.25a1.21,1.21,0,0,1-1.2-1.21V52.61A1.2,1.2,0,0,1,339.28,51.41Z"/><path class="cls-5" d="M337.44,60.68h4.64a1.2,1.2,0,0,1,1.2,1.2V78.75a1.2,1.2,0,0,1-1.2,1.2h-4.64a1.2,1.2,0,0,1-1.2-1.2V61.88A1.2,1.2,0,0,1,337.44,60.68Z"/><path class="cls-6" d="M338.8,61.89H341a1.21,1.21,0,0,1,1.2,1.21V77.57a1.2,1.2,0,0,1-1.2,1.2h-2.2a1.2,1.2,0,0,1-1.2-1.2V63.1A1.21,1.21,0,0,1,338.8,61.89Z"/><path class="cls-6" d="M336.35,61.73a.72.72,0,0,1,.27-1,.73.73,0,0,1,.35-.09h5.58a.7.7,0,0,1,.69.7.65.65,0,0,1-.1.36l-1.42,2.43-1.42,2.44a.69.69,0,0,1-.95.26.65.65,0,0,1-.26-.26l-1.37-2.44Z"/><path class="cls-3" d="M337.6,65.65l4.74-2.35a.38.38,0,0,1,.52.17h0a.39.39,0,0,1-.17.53l-5.1,2.33"/><path class="cls-3" d="M342.21,65.91l-4.92-2.33a.4.4,0,0,0-.53.19h0a.4.4,0,0,0,.19.52l5.29,2.3"/><path class="cls-3" d="M337.59,71.57l4.74-2.36a.39.39,0,0,1,.52.18h0a.38.38,0,0,1-.17.52l-5.09,2.33"/><path class="cls-3" d="M342.2,71.82l-4.92-2.32a.4.4,0,0,0-.53.18h0a.4.4,0,0,0,.2.53l5.28,2.29"/><path class="cls-3" d="M337.61,74.74l4.74-2.35a.39.39,0,0,1,.52.18h0a.4.4,0,0,1-.18.52l-5.09,2.33"/><path class="cls-3" d="M342.21,75l-4.92-2.32a.39.39,0,0,0-.53.18h0a.39.39,0,0,0,.2.52l5.28,2.3"/><path class="cls-3" d="M337.59,78l4.74-2.35a.37.37,0,0,1,.5.12h0a.36.36,0,0,1-.21.46l-5.08,2.36"/><path class="cls-3" d="M341.69,77.88l-4.5-2.13a.39.39,0,0,0-.5.2h0a.38.38,0,0,0,.17.51l4.83,2.09"/><path class="cls-3" d="M337.6,68.57l4.77-2.37a.39.39,0,0,1,.53.19h0a.41.41,0,0,1-.17.54l-5.13,2.34"/><path class="cls-3" d="M342.24,68.81l-4.92-2.33a.4.4,0,0,0-.53.19h0a.39.39,0,0,0,.2.52l5.28,2.3"/><rect class="cls-8" x="338.02" y="59.5" width="3.64" height="3.43"/><path class="cls-3" d="M337.44,78H342a.34.34,0,0,1,.34.34v0a.34.34,0,0,1-.34.34h-4.53a.33.33,0,0,1-.33-.33v0a.33.33,0,0,1,.33-.33Z"/><circle class="cls-6" cx="337.04" cy="82.98" r="0.27"/><circle class="cls-6" cx="338.03" cy="82.98" r="0.27"/><circle class="cls-6" cx="338.99" cy="82.98" r="0.27"/><circle class="cls-6" cx="339.96" cy="82.98" r="0.27"/><circle class="cls-6" cx="340.98" cy="82.98" r="0.27"/><circle class="cls-6" cx="341.88" cy="82.98" r="0.27"/><circle class="cls-6" cx="342.86" cy="83.01" r="0.27"/><circle class="cls-6" cx="337.51" cy="83.98" r="0.27"/><circle class="cls-6" cx="338.46" cy="83.98" r="0.27"/><circle class="cls-6" cx="339.43" cy="83.98" r="0.27"/><circle class="cls-6" cx="340.46" cy="83.98" r="0.27"/><circle class="cls-6" cx="341.36" cy="83.98" r="0.27"/><circle class="cls-6" cx="342.33" cy="84" r="0.27"/><circle class="cls-6" cx="338.01" cy="85.13" r="0.27"/><circle class="cls-6" cx="338.98" cy="85.13" r="0.27"/><circle class="cls-6" cx="340" cy="85.13" r="0.27"/><circle class="cls-6" cx="340.9" cy="85.13" r="0.27"/><circle class="cls-6" cx="341.88" cy="85.15" r="0.27"/><circle class="cls-6" cx="338.52" cy="86.12" r="0.27"/><circle class="cls-6" cx="339.47" cy="86.12" r="0.27"/><circle class="cls-6" cx="340.44" cy="86.12" r="0.27"/><circle class="cls-6" cx="341.42" cy="86.14" r="0.27"/><path class="cls-7" d="M349.36,79.28c-1.49.17-3.19-2.66-3.62-6.35s.42-6.83,1.91-7"/><path class="cls-7" d="M330.93,78.93c1.49.15,3.14-2.72,3.49-6.42s-.56-6.81-2.05-7"/><rect class="cls-1" x="449.53" y="19.51" width="5.09" height="33.43"/><rect class="cls-1" x="449.49" y="71.87" width="5.09" height="29.03"/><rect class="cls-1" x="549.95" y="19.1" width="5.09" height="33.43"/><rect class="cls-1" x="549.95" y="71.34" width="5.09" height="29.03"/><path class="cls-2" d="M451.78,109.79c0-6.56,4.45-11.88,10-11.88s9.92,5.32,9.95,11.88"/><path class="cls-2" d="M468.88,88.28a6.85,6.85,0,0,0-13.7,0"/><polygon class="cls-2" points="452.31 109.76 471.14 109.75 468.77 87.92 455.16 87.89 452.31 109.76"/><path class="cls-2" d="M465.51,89.9c0-2.77-1.56-5-3.48-5s-3.47,2.25-3.47,5"/><path class="cls-2" d="M462.54,86.58H461.3a1.21,1.21,0,0,1-1.2-1.21V81.23a1.2,1.2,0,0,1,1.2-1.2h1.24a1.2,1.2,0,0,1,1.2,1.2v4.14A1.2,1.2,0,0,1,462.54,86.58Z"/><path class="cls-2" d="M464.35,108.69h-4.64a1.21,1.21,0,0,1-1.2-1.21V90.62a1.2,1.2,0,0,1,1.2-1.2h4.64a1.2,1.2,0,0,1,1.2,1.2v16.86A1.21,1.21,0,0,1,464.35,108.69Z"/><path class="cls-2" d="M463,107.51h-2.19a1.2,1.2,0,0,1-1.2-1.2V91.83a1.2,1.2,0,0,1,1.2-1.2H463a1.2,1.2,0,0,1,1.2,1.2v14.48A1.2,1.2,0,0,1,463,107.51Z"/><path class="cls-2" d="M465.47,90.35a.72.72,0,0,0-.27-1,.67.67,0,0,0-.34-.09h-5.58a.7.7,0,0,0-.7.7.75.75,0,0,0,.1.36l1.42,2.43,1.42,2.44a.7.7,0,0,0,1,.26.69.69,0,0,0,.25-.26l1.37-2.44Z"/><path class="cls-2" d="M464.22,94.27l-4.74-2.35a.38.38,0,0,0-.52.18h0a.4.4,0,0,0,.18.52L464.23,95"/><path class="cls-2" d="M459.62,94.53l4.92-2.33a.41.41,0,0,1,.53.19h0a.39.39,0,0,1-.2.52l-5.28,2.3"/><path class="cls-2" d="M464.19,100.3,459.45,98a.39.39,0,0,0-.52.17h0a.41.41,0,0,0,.18.53L464.2,101"/><path class="cls-2" d="M459.59,100.56l4.92-2.33a.39.39,0,0,1,.52.19h0a.4.4,0,0,1-.19.52l-5.28,2.3"/><path class="cls-2" d="M464.18,97.3l-4.76-2.37a.41.41,0,0,0-.54.19h0a.41.41,0,0,0,.18.54L464.18,98"/><path class="cls-2" d="M459.55,97.54l4.92-2.32a.39.39,0,0,1,.52.18h0a.4.4,0,0,1-.19.53l-5.28,2.29"/><path class="cls-3" d="M450.44,109.65c0-6.55,4.45-11.87,9.95-11.87s9.92,5.32,9.95,11.87"/><path class="cls-4" d="M467.54,88.15a6.85,6.85,0,0,0-13.7,0"/><polygon class="cls-4" points="450.97 109.63 469.8 109.62 467.43 87.78 453.82 87.76 450.97 109.63"/><path class="cls-3" d="M464.17,89.77c0-2.78-1.56-5-3.48-5s-3.47,2.25-3.47,5"/><path class="cls-3" d="M461.2,86.44H460a1.2,1.2,0,0,1-1.2-1.2V81.1a1.2,1.2,0,0,1,1.2-1.2h1.24a1.2,1.2,0,0,1,1.2,1.2v4.14A1.2,1.2,0,0,1,461.2,86.44Z"/><path class="cls-5" d="M463,108.55h-4.64a1.2,1.2,0,0,1-1.2-1.2V90.49a1.21,1.21,0,0,1,1.2-1.21H463a1.2,1.2,0,0,1,1.19,1.21v16.86A1.19,1.19,0,0,1,463,108.55Z"/><path class="cls-6" d="M461.64,107.38h-2.19a1.21,1.21,0,0,1-1.2-1.21V91.7a1.2,1.2,0,0,1,1.2-1.2h2.19a1.2,1.2,0,0,1,1.2,1.2v14.47A1.2,1.2,0,0,1,461.64,107.38Z"/><path class="cls-6" d="M464.13,90.22a.71.71,0,0,0-.27-1,.67.67,0,0,0-.34-.09h-5.58a.7.7,0,0,0-.7.7.75.75,0,0,0,.1.36l1.42,2.43,1.42,2.44a.7.7,0,0,0,.95.26.65.65,0,0,0,.26-.26l1.37-2.44Z"/><path class="cls-3" d="M462.88,94.14l-4.74-2.35a.39.39,0,0,0-.52.17h0a.4.4,0,0,0,.18.53l5.09,2.33"/><path class="cls-3" d="M458.28,94.4l4.92-2.33a.41.41,0,0,1,.53.19h0a.39.39,0,0,1-.2.52l-5.28,2.3"/><path class="cls-3" d="M462.85,100.17l-4.74-2.36a.4.4,0,0,0-.52.18h0a.4.4,0,0,0,.18.53l5.09,2.33"/><path class="cls-3" d="M458.25,100.43l4.92-2.33a.4.4,0,0,1,.52.18h0a.41.41,0,0,1-.19.53l-5.28,2.3"/><path class="cls-3" d="M462.88,97.06l-4.77-2.37a.39.39,0,0,0-.53.19h0a.39.39,0,0,0,.18.53l5.12,2.34"/><path class="cls-3" d="M458.21,97.41l4.92-2.32a.38.38,0,0,1,.52.18h0a.39.39,0,0,1-.19.52l-5.28,2.3"/><rect class="cls-8" x="458.82" y="87.99" width="3.64" height="3.43"/><path class="cls-7" d="M451.09,107.88c1.48.17,3.19-2.66,3.62-6.35s-.43-6.82-1.91-7"/><path class="cls-7" d="M469.51,107.54c-1.48.14-3.13-2.73-3.49-6.42s.56-6.82,2.05-7"/></svg>
