<svg id="Layer_1" data-name="Layer 1" xmlns="http://www.w3.org/2000/svg" width="4000" height="1000" viewBox="0 0 4000 1000"><defs><style>.cls-1{opacity:0.15;}.cls-12,.cls-14,.cls-2,.cls-6,.cls-9{fill:none;}.cls-3{opacity:0.42;}.cls-4{fill:#f0edeb;}.cls-5{fill:#f9a06e;}.cls-6{stroke:#ffb384;stroke-linecap:round;stroke-width:100px;}.cls-12,.cls-14,.cls-6,.cls-9{stroke-miterlimit:10;}.cls-7{fill:#5ba8a1;}.cls-8{fill:#478981;}.cls-9{stroke:#3c3c82;stroke-width:40px;}.cls-10{fill:#3b5385;}.cls-11{fill:#ffb384;}.cls-12{stroke:#f0edeb;stroke-width:15px;}.cls-13{fill:#7a4429;}.cls-14{stroke:#ef7f48;stroke-width:3px;}.cls-15{fill:#fff;}.cls-16{fill:#f27a55;}.cls-17{fill:#88eda0;}.cls-18{opacity:0;}</style></defs><title>navne_balance</title><path class="cls-1" d="M3103.8767,963.9124c-2.3164-87.2061,26.981-168.471,78.074-230.4426l11.3972,3.766a323.7567,323.7567,0,0,0-46.9521,84.8848,534.8779,534.8779,0,0,1,67.6325-78.0513l15.2464,5.0379a565.5488,565.5488,0,0,0-57.36,66.705,186.0877,186.0877,0,0,0,33.4224,114.5742q-12.4907,4.1271-24.98,8.2542a202.5618,202.5618,0,0,1-27.1638-95.3679c-7.9216,12.404-15.6165,25.591-22.9358,39.5974a337.4425,337.4425,0,0,0-4.1843,73.7078Q3114.9755,960.2453,3103.8767,963.9124Z"/><path class="cls-1" d="M3219.3369,797.0947l14.4353,1.6031a258.199,258.199,0,0,0-.45,122.4416l-21.0246,6.9473A272.0317,272.0317,0,0,1,3219.3369,797.0947Zm18.4668-45.1692,10.8306,3.5787a256.3268,256.3268,0,0,0-10.438,27.4735l-13.208-2.4A267.2879,267.2879,0,0,1,3237.8037,751.9255Z"/><path class="cls-1" d="M3247.5042,800.2227l13.5808,1.5081q-.7512,6.3958-1.1553,12.8383c5.2231-10.0174,10.6274-14.1992,16.32-13.4894a14.8185,14.8185,0,0,1,9.8232,5.6412,45.4816,45.4816,0,0,1,6.97,12.482,19.7738,19.7738,0,0,1,5.41-10.9206,10.9023,10.9023,0,0,1,9.5237-3.3034c4.1936.5173,8.0441,2.7574,12.0109,6.4248a61.6635,61.6635,0,0,1,10.699,13.3608c1.5628,2.5695,3.7849,6.9682,7.02,12.9721a180.4983,180.4983,0,0,0,28.575,39.4685q-10.5125,3.4734-21.0237,6.9469a190.9975,190.9975,0,0,1-25.1091-45.2134c-2.3775-6.0512-3.5528-9.5691-3.96-10.3759a16.5427,16.5427,0,0,0-3.9595-5.3612,8.201,8.201,0,0,0-5.2376-2.1282c-3.9179-.129-6.4189,2.8505-7.4289,9.1758-.7066,4.5085.0625,12.6557,3.7192,23.9375a202.58,202.58,0,0,0,16.9951,38.22q-10.5128,3.4735-21.0249,6.9472a215.8879,215.8879,0,0,1-17.4536-57.1458c-1.0783-6.7407-1.6408-11.1351-2.1108-13.15a15.5146,15.5146,0,0,0-2.9287-6.38,6.273,6.273,0,0,0-4.7779-2.6456c-1.7329-.0516-3.4.7842-5.0419,2.5665a19.4726,19.4726,0,0,0-3.9805,7.54,48.0943,48.0943,0,0,0-1.761,12.6339,131.38,131.38,0,0,0,1.2844,16.3559,230.0982,230.0982,0,0,0,11.8628,48.4546l-21.0249,6.9473A245.5994,245.5994,0,0,1,3247.5042,800.2227Z"/><rect class="cls-2" x="1687.2989" y="-455.4474" width="1000" height="1000"/><ellipse class="cls-3" cx="3535.3233" cy="937.348" rx="206.7207" ry="21.1534"/><rect class="cls-4" x="3550.6364" y="45.3662" width="33.6066" height="56.6524" rx="13.7928" ry="13.7928" transform="translate(309.319 -1381.1979) rotate(22.8794)"/><path class="cls-5" d="M3701.7037,141.2676a13.53,13.53,0,1,1-8.6353,25.6452"/><path class="cls-6" d="M3551.861,332.1067A111.7817,111.7817,0,0,1,3392.72,175.0881"/><path class="cls-7" d="M3673.5492,431.8867c0,141.8658,115.0284,261.4173-13.6541,261.4173-48.256,0-93.0856-16.1726-130.2727-43.87a237.9686,237.9686,0,0,1-21.5464-18.139c-49.7032-47.1084-81.1813-116.9327-81.1813-194.8623,0-141.8658,106.2294-281.2324,233-256.8708C3806.6774,207.77,3673.5492,290.0209,3673.5492,431.8867Z"/><path class="cls-8" d="M3684.4611,565.3911c-5.26,1.0071-22.1056,11.889-23.4374,5.9339-9.6669-43.2246-8.4025-54.1071-8.4025-125.6117,0-130.17,37.6656-177.5015,62.3215-155.1484,28.5479,25.8816-28.9515,18.8952-28.9515,149.0647s23.5612,121.8584.7,126.04"/><path class="cls-9" d="M3450.271,870.1756c0-112.1874,84.2309-203.1332,188.135-203.1332"/><polygon class="cls-10" points="3672.191 921.48 3626.763 921.48 3626.763 793.322 3626.763 671.567 3672.191 671.567 3672.191 921.48"/><path class="cls-10" d="M3712.1012,598.576c5.0805,14.167,17.732,45.5854,11.4678,63.7512-8.1537,23.6447-45.1669,34.63-76.2084,34.63-54.89,0-139.5731-58.0364-156.2663-81.648-.5747-.8128-2.8721-3.4983-3.4111-4.1749-5.8126-7.2956-10.42-11.4022-6.4437-11.6075,16.9632-.876,100.9126-17.3132,145.8339-26.5119,33.4975-6.8594,59.0869-16.8945,71.9354-12.32C3708.1554,563.9512,3706.9532,584.221,3712.1012,598.576Z"/><rect class="cls-11" x="3533.8188" y="27.7221" width="157.9656" height="262.3592" rx="78.9827" ry="78.9827" transform="translate(390.762 -1483.0624) rotate(24.4852)"/><path class="cls-12" d="M3655.3948,238.9805c-18.079,39.698-62.1044,58.5045-98.3333,42.0053h0c-36.229-16.4992-50.9424-62.056-32.8633-101.7541"/><path class="cls-4" d="M3538.6014,179.3166h0c6.9923-15.8314,33.4287-19.4927,59.0474-8.1778h0c25.6188,11.3149,40.7185,33.3214,33.7263,49.1529h0"/><path class="cls-13" d="M3611.0857,227.8805h0c-5.8519,14.2225-24.5138,20.0257-41.6826,12.9616h0c-17.1688-7.0641-26.3429-24.32-20.4911-38.543h0"/><path class="cls-6" d="M3719.4012,262.0693a111.7818,111.7818,0,0,1,136.9247,176.7266"/><path class="cls-8" d="M3760.6928,294.03c-45.9482,38.29-90.3138,10.3644-95.4177-23.79s30.1981-67.7365,78.8493-75.0066"/><rect class="cls-5" x="3587.8734" y="127.2846" width="33.6066" height="56.6524" rx="13.7928" ry="13.7928" transform="matrix(0.9213, 0.3888, -0.3888, 0.9213, 344.0979, -1389.2305)"/><rect class="cls-4" x="3692.6702" y="97.8477" width="33.6066" height="56.6524" rx="13.7928" ry="13.7928" transform="translate(340.8979 -1432.2907) rotate(22.8794)"/><path class="cls-14" d="M3604.6926,112.0582a18.156,18.156,0,0,1-32.6874-15.8144"/><path class="cls-14" d="M3671.3449,146.4487a18.156,18.156,0,0,1-30.4058-19.8507"/><rect class="cls-15" x="3548.1709" y="206.1672" width="67.4185" height="9.3081" transform="translate(355.5118 -1359.1655) rotate(22.5797)"/><path class="cls-16" d="M3582.4923,243.9716a40.6237,40.6237,0,0,1-11.8594-2.2987c-5.6408-1.95-8.6243-5.0023-11.0038-6.6241-2.12-1.4452,9.07-5.9172,14.4728-4.183S3584.911,244.144,3582.4923,243.9716Z"/><path class="cls-17" d="M3469.6806,853.9268c5.17-.089,5.5533,13.207-1.3085,19.7578-10.2157,9.7529-33.6085,13.3534-53.69,19.6807-33.5706,10.5772-63.8309,9.4844-67.5882-2.4408s4.2942-38.6589,39.0154-32.8882C3424.9022,864.4837,3450.1168,854.2636,3469.6806,853.9268Z"/><path class="cls-9" d="M433.997,909.3494c54.22-120.6241,45.0433-185.0312,130.402-251.5768"/><path class="cls-17" d="M451.0209,909.219c4.5422,2.4709-1.6781,14.2283-10.8773,16.5459-13.6958,3.45-35.8241-4.9475-56.4158-9.3408-34.4227-7.3443-60.213-23.2106-57.6041-35.4385s22.7916-31.52,50.1575-9.3844C406.8565,896.3326,433.8328,899.8688,451.0209,909.219Z"/><path class="cls-17" d="M3575.4039,908.384h89.04a12,12,0,0,1,12,12v14.4089a12,12,0,0,1-12,12H3573.829a15.769,15.769,0,0,1-15.769-15.769v-5.2961A17.3438,17.3438,0,0,1,3575.4039,908.384Z"/><ellipse class="cls-3" cx="2535.5717" cy="937.6719" rx="206.7207" ry="21.1534"/><path class="cls-1" d="M2143.6785,963.44c-2.3164-87.2061,26.9809-168.471,78.0739-230.4426q5.6991,1.883,11.3973,3.766a323.7567,323.7567,0,0,0-46.9522,84.8848,534.9042,534.9042,0,0,1,67.6326-78.0514l15.2463,5.038a565.4949,565.4949,0,0,0-57.36,66.705,186.0872,186.0872,0,0,0,33.4224,114.5742l-24.98,8.2542A202.5606,202.5606,0,0,1,2192.9954,842.8c-7.9217,12.4039-15.6165,25.5909-22.9358,39.5973a337.474,337.474,0,0,0-4.1844,73.7079Q2154.7773,959.7725,2143.6785,963.44Z"/><path class="cls-1" d="M2259.1387,796.6221l14.4353,1.603a258.1913,258.1913,0,0,0-.45,122.4416l-21.0247,6.9473A272.0448,272.0448,0,0,1,2259.1387,796.6221Zm18.4668-45.1692q5.4144,1.7894,10.8305,3.5787a256.2255,256.2255,0,0,0-10.438,27.4735l-13.208-2.4A267.287,267.287,0,0,1,2277.6055,751.4529Z"/><path class="cls-18" d="M2287.3059,799.75q6.79.7542,13.5808,1.5081-.751,6.396-1.1553,12.8383c5.2254-10.0175,10.6258-14.1991,16.32-13.4893a14.8147,14.8147,0,0,1,9.8233,5.6411,45.4807,45.4807,0,0,1,6.97,12.4821,19.7843,19.7843,0,0,1,5.41-10.9206,10.9009,10.9009,0,0,1,9.5237-3.3034c4.1963.5173,8.0425,2.7573,12.011,6.4248a61.6814,61.6814,0,0,1,10.699,13.3608c1.562,2.5694,3.7856,6.968,7.02,12.972a180.4988,180.4988,0,0,0,28.5749,39.4685l-21.0236,6.9469a191.029,191.029,0,0,1-25.1092-45.2133c-2.3769-6.0512-3.5517-9.5693-3.96-10.376a16.5645,16.5645,0,0,0-3.9595-5.3611,8.2017,8.2017,0,0,0-5.2375-2.1283c-3.9192-.1292-6.4172,2.8505-7.429,9.1758-.7038,4.5085.0623,12.6556,3.7193,23.9375a202.6251,202.6251,0,0,0,16.9951,38.22l-21.0249,6.9473a215.9259,215.9259,0,0,1-17.4536-57.1458c-1.0774-6.7408-1.6419-11.1352-2.1109-13.15a15.4828,15.4828,0,0,0-2.9287-6.38,6.27,6.27,0,0,0-4.7778-2.6456c-1.7329-.0517-3.4.7843-5.042,2.5666a19.458,19.458,0,0,0-3.9805,7.54A47.8736,47.8736,0,0,0,2301,842.3008a131.8567,131.8567,0,0,0,1.2844,16.3559,230.0637,230.0637,0,0,0,11.8628,48.4547q-10.5129,3.4735-21.0249,6.9473A245.5946,245.5946,0,0,1,2287.3059,799.75Z"/><path class="cls-1" d="M1143.4517,966.9954c-2.3166-87.2061,26.981-168.471,78.0743-230.4426l11.3972,3.766a323.7541,323.7541,0,0,0-46.9525,84.8849,534.9108,534.9108,0,0,1,67.6328-78.0514q7.6235,2.519,15.2465,5.0379a565.54,565.54,0,0,0-57.36,66.705A186.0889,186.0889,0,0,0,1244.9125,933.47l-24.98,8.2541a202.56,202.56,0,0,1-27.1639-95.3679c-7.9218,12.404-15.6166,25.591-22.9359,39.5974a337.4548,337.4548,0,0,0-4.1844,73.7078Z"/><path class="cls-18" d="M1258.9119,800.1777l14.4354,1.6031a258.1964,258.1964,0,0,0-.45,122.4416l-21.0249,6.9473A272.044,272.044,0,0,1,1258.9119,800.1777Zm18.4671-45.1692,10.83,3.5787a256.263,256.263,0,0,0-10.438,27.4735l-13.2078-2.4A267.3473,267.3473,0,0,1,1277.379,755.0085Z"/><path class="cls-18" d="M1287.08,803.3057l13.5809,1.5081q-.7509,6.3958-1.1555,12.8383c5.223-10.0177,10.6268-14.1991,16.32-13.4894a14.8167,14.8167,0,0,1,9.8234,5.6412,45.4648,45.4648,0,0,1,6.97,12.482,19.79,19.79,0,0,1,5.41-10.9206,10.8994,10.8994,0,0,1,9.5238-3.3033c4.1949.5172,8.0433,2.7574,12.0107,6.4248a61.7114,61.7114,0,0,1,10.6994,13.3607c1.5628,2.57,3.7843,6.9682,7.02,12.9721a180.4922,180.4922,0,0,0,28.5749,39.4685l-21.0237,6.9469a191.0144,191.0144,0,0,1-25.1089-45.2134c-2.3782-6.0511-3.5532-9.5691-3.96-10.3759a16.54,16.54,0,0,0-3.9594-5.3612,8.202,8.202,0,0,0-5.2375-2.1282c-3.919-.1292-6.4173,2.8505-7.429,9.1758-.7035,4.5086.0612,12.6554,3.7192,23.9375a202.6363,202.6363,0,0,0,16.9949,38.22l-21.0249,6.9472a215.8985,215.8985,0,0,1-17.4534-57.1458c-1.0773-6.7407-1.64-11.135-2.1108-13.15a15.5045,15.5045,0,0,0-2.9288-6.38,6.27,6.27,0,0,0-4.7777-2.6456c-1.7327-.0517-3.4016.7841-5.042,2.5665a19.4447,19.4447,0,0,0-3.9807,7.54,47.9228,47.9228,0,0,0-1.7608,12.6339,131.9389,131.9389,0,0,0,1.2841,16.3559A230.0739,230.0739,0,0,0,1313.92,910.667l-21.0249,6.9473A245.6006,245.6006,0,0,1,1287.08,803.3057Z"/><rect class="cls-4" x="2550.8847" y="45.6902" width="33.6066" height="56.6524" rx="13.7928" ry="13.7928" transform="translate(230.7896 -992.476) rotate(22.8794)"/><path class="cls-5" d="M2701.9521,141.5916a13.53,13.53,0,1,1-8.6354,25.6452"/><path class="cls-6" d="M2524.9965,369.6055a111.7817,111.7817,0,1,1-78.82-209.208"/><path class="cls-7" d="M2673.7975,432.2107c0,141.8658,115.0284,261.4172-13.6541,261.4172-48.2559,0-93.0856-16.1725-130.2727-43.8695a237.95,237.95,0,0,1-21.5463-18.1389c-49.7032-47.1084-81.1813-116.9327-81.1813-194.8623,0-141.8659,106.2293-281.2324,233-256.8708C2806.9257,208.0936,2673.7975,290.3448,2673.7975,432.2107Z"/><path class="cls-8" d="M2684.71,565.715c-5.26,1.0072-22.1056,11.8891-23.4374,5.9339-9.6669-43.2245-8.4025-54.1071-8.4025-125.6117,0-130.1695,37.6656-177.5014,62.3215-155.1484,28.5479,25.8816-28.9515,18.8953-28.9515,149.0648s23.5612,121.8583.7,126.04"/><path class="cls-9" d="M2373.0893,883.6183c1.7047-.474-16.6753,2.4345-15.7638.8981,58.5738-98.7288,179.017-217.15,281.3289-217.15"/><polygon class="cls-10" points="2672.44 921.804 2627.012 921.804 2627.012 793.646 2627.012 671.891 2672.44 671.891 2672.44 921.804"/><path class="cls-10" d="M2712.35,598.9c5.0805,14.1669,17.732,45.5854,11.4677,63.7512-8.1536,23.6447-45.1669,34.63-76.2083,34.63-54.89,0-139.5731-58.0364-156.2663-81.648-.5747-.8128-2.8721-3.4983-3.4111-4.1749-5.8126-7.2956-10.42-11.4022-6.4438-11.6076,16.9633-.8759,100.9127-17.3131,145.834-26.5118,33.4975-6.8594,59.0868-16.8945,71.9354-12.32C2708.4038,564.2752,2707.2015,584.5449,2712.35,598.9Z"/><rect class="cls-11" x="2534.0671" y="28.0461" width="157.9656" height="262.3592" rx="78.9827" ry="78.9827" transform="translate(300.9873 -1068.6787) rotate(24.4852)"/><path class="cls-12" d="M2655.6432,239.3045c-18.0791,39.698-62.1044,58.5045-98.3333,42.0053h0c-36.2289-16.4991-50.9423-62.0559-32.8633-101.754"/><path class="cls-4" d="M2538.85,179.6406h0c6.9922-15.8314,33.4287-19.4928,59.0474-8.1778h0c25.6187,11.315,40.7185,33.3215,33.7263,49.153h0"/><path class="cls-13" d="M2611.3341,228.2045h0c-5.8519,14.2226-24.5138,20.0257-41.6826,12.9617h0c-17.1688-7.0641-26.343-24.32-20.4911-38.5429h0"/><path class="cls-6" d="M2730.53,266.67a111.7818,111.7818,0,1,1-19.75,222.69"/><path class="cls-8" d="M2741.1819,319.5334c-59.9234-3.1725-73.5144-53.9808-53.9713-82.59s68.4222-29.235,109.1744-1.3971"/><rect class="cls-5" x="2588.1218" y="127.6086" width="33.6066" height="56.6524" rx="13.7928" ry="13.7928" transform="translate(265.5685 -1000.5085) rotate(22.8794)"/><rect class="cls-4" x="2692.9186" y="98.1717" width="33.6066" height="56.6524" rx="13.7928" ry="13.7928" transform="translate(262.3685 -1043.5688) rotate(22.8794)"/><path class="cls-14" d="M2604.941,112.3822a18.156,18.156,0,0,1-32.6874-15.8144"/><path class="cls-14" d="M2671.5932,146.7726a18.156,18.156,0,1,1-30.4058-19.8506"/><rect class="cls-15" x="2548.4193" y="206.4911" width="67.4185" height="9.3081" transform="translate(279.0018 -975.2685) rotate(22.5797)"/><path class="cls-16" d="M2582.7407,244.2955a40.6169,40.6169,0,0,1-11.8594-2.2987c-5.6408-1.9494-8.6243-5.0023-11.0039-6.6241-2.12-1.4451,9.07-5.9172,14.4729-4.1829S2585.1594,244.468,2582.7407,244.2955Z"/><path class="cls-17" d="M2391.3216,880.5989c5.1694.126,4.9994,13.4264-2.1287,19.6862-10.6124,9.32-34.1347,11.9445-54.4623,17.4314-33.9813,9.1724-64.17,6.8225-67.4283-5.2486s5.8978-38.447,40.349-31.2378C2346.1431,889.2849,2371.7607,880.1219,2391.3216,880.5989Z"/><path class="cls-9" d="M1339.6942,890.3937c-2.7682-7.8434,17.9935-18.9163,25.7639-27.6727,74.2461-83.6674,171.7355-192.37,265.6-192.37"/><path class="cls-17" d="M1358.7648,874.111c5.0671-1.031,7.87,11.9718,2.3192,19.6648-8.2644,11.4534-30.6073,19.2624-49.1973,29.1482-31.0767,16.5259-61.0282,20.9738-66.8987,9.9345s-2.8328-38.7934,32.3584-39.4559C1316.665,892.6623,1339.591,878.0124,1358.7648,874.111Z"/><path class="cls-17" d="M2575.6522,908.7079h89.04a12,12,0,0,1,12,12v14.4089a12,12,0,0,1-12,12h-90.6153a15.769,15.769,0,0,1-15.769-15.769v-5.2961A17.3438,17.3438,0,0,1,2575.6522,908.7079Z"/><ellipse class="cls-3" cx="1539.69" cy="935.928" rx="206.7207" ry="21.1534"/><rect class="cls-4" x="1555.0031" y="43.9463" width="33.6066" height="56.6524" rx="13.7928" ry="13.7928" transform="translate(151.7607 -605.4213) rotate(22.8794)"/><path class="cls-5" d="M1706.07,139.8477a13.53,13.53,0,0,1-8.6353,25.6452"/><path class="cls-6" d="M1508.2082,376.0974a111.7818,111.7818,0,0,1-52.719-217.2588"/><path class="cls-7" d="M1677.9159,430.4667c0,141.8659,115.0284,261.4173-13.6542,261.4173-48.2559,0-93.0856-16.1726-130.2727-43.87a237.95,237.95,0,0,1-21.5463-18.1389c-49.7032-47.1085-81.1813-116.9328-81.1813-194.8624,0-141.8658,106.2294-281.2323,233-256.8707C1811.0441,206.35,1677.9159,288.6009,1677.9159,430.4667Z"/><path class="cls-8" d="M1688.8278,563.9711c-5.26,1.0072-22.1056,11.889-23.4374,5.9339-9.6669-43.2245-8.4025-54.1071-8.4025-125.6117,0-130.1695,37.6656-177.5015,62.3215-155.1484,28.5479,25.8816-28.9515,18.8953-28.9515,149.0648s23.5612,121.8583.7,126.04"/><polygon class="cls-10" points="1676.558 920.06 1631.13 920.06 1631.13 791.902 1631.13 670.147 1676.558 670.147 1676.558 920.06"/><path class="cls-10" d="M1716.4679,597.1561c5.08,14.1669,17.732,45.5854,11.4677,63.7512-8.1536,23.6447-45.1669,34.63-76.2083,34.63-54.89,0-139.5731-58.0363-156.2663-81.6479-.5747-.8128-2.8721-3.4983-3.4111-4.1749-5.8126-7.2956-10.42-11.4022-6.4438-11.6076,16.9633-.8759,100.9127-17.3131,145.834-26.5118,33.4975-6.8595,59.0868-16.8945,71.9354-12.32C1712.5221,562.5313,1711.32,582.801,1716.4679,597.1561Z"/><rect class="cls-11" x="1538.1855" y="26.3022" width="157.9656" height="262.3592" rx="78.9827" ry="78.9827" transform="translate(210.7036 -656.085) rotate(24.4852)"/><path class="cls-12" d="M1659.7615,237.5605c-18.0791,39.6981-62.1044,58.5045-98.3333,42.0054h0c-36.2289-16.4991-50.9423-62.056-32.8633-101.754"/><path class="cls-4" d="M1542.9681,177.8967h0c6.9923-15.8314,33.4287-19.4928,59.0474-8.1778h0c25.6187,11.315,40.7185,33.3215,33.7263,49.1529h0"/><path class="cls-13" d="M1615.4524,226.4606h0c-5.8519,14.2226-24.5138,20.0257-41.6826,12.9616h0c-17.1688-7.0641-26.3429-24.32-20.4911-38.5429h0"/><path class="cls-6" d="M1726.3149,269.0593A111.7818,111.7818,0,0,1,1583.351,440.9372"/><path class="cls-8" d="M1704.9918,318.59c-47.4694-36.7087-29.7323-86.2223,2.6185-98.6266s72.9,14.8965,90.5687,60.978"/><rect class="cls-5" x="1592.2401" y="125.8647" width="33.6066" height="56.6524" rx="13.7928" ry="13.7928" transform="translate(186.5396 -613.4539) rotate(22.8794)"/><rect class="cls-4" x="1697.0369" y="96.4278" width="33.6066" height="56.6524" rx="13.7928" ry="13.7928" transform="translate(183.3396 -656.5141) rotate(22.8794)"/><path class="cls-14" d="M1609.0593,110.6383a18.156,18.156,0,0,1-32.6874-15.8144"/><path class="cls-14" d="M1675.7115,145.0287a18.156,18.156,0,1,1-30.4057-19.8507"/><rect class="cls-15" x="1552.5376" y="204.7472" width="67.4185" height="9.3081" transform="translate(201.9945 -593.016) rotate(22.5797)"/><path class="cls-16" d="M1586.859,242.5516A40.62,40.62,0,0,1,1575,240.2529c-5.6408-1.9494-8.6243-5.0023-11.0038-6.6241-2.12-1.4452,9.07-5.9172,14.4728-4.183S1589.2777,242.7241,1586.859,242.5516Z"/><path class="cls-17" d="M1579.7706,906.964h89.04a12,12,0,0,1,12,12v14.4089a12,12,0,0,1-12,12h-90.6153a15.769,15.769,0,0,1-15.769-15.769v-5.2961A17.3438,17.3438,0,0,1,1579.7706,906.964Z"/><ellipse class="cls-3" cx="501.5038" cy="955.8166" rx="206.7207" ry="21.1534"/><rect class="cls-4" x="516.8169" y="63.8349" width="33.6066" height="56.6524" rx="13.7928" ry="13.7928" transform="translate(77.8141 -200.217) rotate(22.8794)"/><path class="cls-6" d="M476.0876,344.5718a111.7816,111.7816,0,0,1-134.9888-82.27c-14.558-59.9943,33.2282-85.7638,63.4946-139.5708"/><path class="cls-7" d="M639.73,450.3554c0,141.8658,115.0284,261.4172-13.6541,261.4172-48.256,0-93.0856-16.1725-130.2727-43.8694a237.9674,237.9674,0,0,1-21.5463-18.139c-49.7033-47.1084-81.1813-116.9327-81.1813-194.8623,0-141.8659,106.2293-281.2324,233-256.8708C772.8579,226.2383,639.73,308.49,639.73,450.3554Z"/><path class="cls-8" d="M650.6417,583.86c-5.26,1.0072-22.1056,11.8891-23.4375,5.9339-9.6668-43.2245-8.4025-54.1071-8.4025-125.6117,0-130.1695,37.6656-177.5014,62.3215-155.1484,28.5479,25.8817-28.9514,18.8953-28.9514,149.0648s23.5611,121.8584.7,126.04"/><polygon class="cls-10" points="638.372 939.949 592.944 939.949 592.944 811.79 592.944 690.036 638.372 690.036 638.372 939.949"/><path class="cls-10" d="M678.2817,617.0447c5.0806,14.1669,17.732,45.5854,11.4678,63.7512-8.1536,23.6447-45.1669,34.63-76.2083,34.63-54.89,0-139.5731-58.0364-156.2664-81.648-.5746-.8128-2.872-3.4983-3.4111-4.1749-5.8126-7.2956-10.42-11.4022-6.4437-11.6076,16.9633-.8759,100.9127-17.3131,145.8339-26.5118,33.4975-6.8594,59.0869-16.8945,71.9354-12.32C674.3359,582.42,673.1337,602.69,678.2817,617.0447Z"/><rect class="cls-11" x="499.9993" y="46.1908" width="157.9656" height="262.3592" rx="78.9827" ry="78.9827" transform="translate(125.5811 -224.0123) rotate(24.4852)"/><path class="cls-12" d="M621.5753,257.4492c-18.079,39.698-62.1043,58.5045-98.3333,42.0053h0C487.013,282.9553,472.3,237.3985,490.3786,197.7"/><path class="cls-4" d="M504.7819,197.7853h0c6.9922-15.8314,33.4286-19.4928,59.0473-8.1778h0c25.6188,11.315,40.7186,33.3215,33.7263,49.153h0"/><path class="cls-13" d="M577.2663,246.3492h0c-5.8518,14.2226-24.5138,20.0257-41.6826,12.9617h0c-17.1688-7.064-26.343-24.32-20.4911-38.5429h0"/><path class="cls-6" d="M678.7178,298.3657A111.7817,111.7817,0,0,1,497.68,429.5377"/><rect class="cls-5" x="554.0539" y="145.7533" width="33.6066" height="56.6524" rx="13.7928" ry="13.7928" transform="translate(112.593 -208.2496) rotate(22.8794)"/><path class="cls-14" d="M570.8731,130.5269a18.156,18.156,0,1,1-32.6873-15.8144"/><path class="cls-14" d="M637.5254,164.9173A18.156,18.156,0,1,1,607.12,145.0667"/><rect class="cls-15" x="514.3515" y="224.6358" width="67.4185" height="9.3081" transform="translate(130.0506 -192.8617) rotate(22.5797)"/><path class="cls-16" d="M548.6728,262.44a40.6211,40.6211,0,0,1-11.8594-2.2988c-5.6407-1.9494-8.6243-5.0022-11.0038-6.624-2.12-1.4452,9.07-5.9173,14.4729-4.183S551.0915,262.6127,548.6728,262.44Z"/><path class="cls-17" d="M541.5844,926.8526h89.04a12,12,0,0,1,12,12v14.4089a12,12,0,0,1-12,12H540.01a15.769,15.769,0,0,1-15.769-15.769v-5.2961A17.3438,17.3438,0,0,1,541.5844,926.8526Z"/><path class="cls-8" d="M645.9872,341.2267c-36.9137-47.31-7.48-90.8975,26.9339-94.9138s66.9494,32.4665,72.67,81.4865"/><rect class="cls-4" x="659.1389" y="123.3369" width="33.6066" height="56.6524" rx="13.7928" ry="13.7928" transform="translate(112.1452 -250.8695) rotate(22.8794)"/></svg>