<svg id="Layer_1" data-name="Layer 1" xmlns="http://www.w3.org/2000/svg" width="28.83mm" height="28.02mm" viewBox="0 0 81.73 79.44"><defs><style>.cls-1{fill:none;stroke:#7fbb42;stroke-miterlimit:10;stroke-width:2px;}.cls-2{fill:#fff;}</style></defs><title>nofill_insta</title><circle class="cls-1" cx="40.64" cy="39.57" r="37.34"/><path class="cls-2" d="M34.11,39.56H26.39V30.29h7.79c-.9-17,9.62-16.39,20.7-16.34v9.62c-4.57,0-10.08-1.22-8.69,6.72h8.69v9.4H46.6V67.81H34.37Z"/><polyline class="cls-1" points="54.88 30.29 54.88 39.69 54.88 40.53"/><polyline class="cls-1" points="34.1 38.87 34.11 39.56 34.37 67.81 34.37 68.18"/><polyline class="cls-1" points="33.4 67.81 34.37 67.81 46.6 67.81 47.13 67.81"/><polyline class="cls-1" points="46.6 38.87 46.6 39.69 46.6 67.81 46.6 68.78"/><polyline class="cls-1" points="45.54 39.69 46.6 39.69 54.88 39.69 55.82 39.69"/><polyline class="cls-1" points="44.97 30.29 46.19 30.29 54.88 30.29 55.82 30.29"/><polyline class="cls-1" points="25.94 30.29 26.39 30.29 34.18 30.29 34.87 30.29"/><polyline class="cls-1" points="26.39 29.39 26.39 30.29 26.39 39.56 26.39 39.69"/><polyline class="cls-1" points="35.24 39.56 34.11 39.56 26.39 39.56 25.39 39.56"/><path class="cls-1" d="M55.82,14h-.94c-11.08,0-21.6-.7-20.7,16.34,0,.28,0,.56,0,.85"/><path class="cls-1" d="M54.88,23.57c-4.57,0-10.08-1.22-8.69,6.72"/><polyline class="cls-1" points="54.88 13.94 54.88 13.95 54.88 23.57 54.88 24.51"/></svg>
