<svg id="Layer_1" data-name="Layer 1" xmlns="http://www.w3.org/2000/svg" width="30mm" height="39mm" viewBox="0 0 85.04 110.55"><defs><style>.cls-1{fill:#6b7b9a;}.cls-2{fill:none;stroke:#6b7b9a;stroke-miterlimit:10;}</style></defs><title>pil_op</title><path class="cls-1" d="M32,48.52H3.11c.16,0,.29-7.1.29-15.88L32,3.34l.13-.09c.3.91,5.1,1.62,11,1.62,5.7,0,10.38-.67,10.94-1.53h.18l28.87,29.3V48.52H54.21v60.91H32.27Z"/><path class="cls-1" d="M54.09,3.16a.32.32,0,0,1-.06.18c-.56.86-5.24,1.53-10.94,1.53-5.88,0-10.68-.71-11-1.62a.28.28,0,0,1,0-.09c0-.94,4.92-1.7,11-1.7S54.09,2.22,54.09,3.16Z"/><path class="cls-1" d="M32,48.52l.29,60.91C32.11,109.43,32,82.19,32,48.52Z"/><path class="cls-1" d="M3.11,48.52,3.4,32.64C3.4,41.42,3.27,48.52,3.11,48.52Z"/><path class="cls-2" d="M32,48.52c0,33.67.13,60.91.29,60.91"/><path class="cls-2" d="M32.27,109.43H54.21"/><path class="cls-2" d="M54.21,48.52v60.91"/><path class="cls-2" d="M54.21,48.52H83.08"/><path class="cls-2" d="M3.4,32.64c0,8.78-.13,15.88-.29,15.88"/><path class="cls-2" d="M3.11,48.52H32"/><line class="cls-2" x1="3.4" y1="32.64" x2="31.98" y2="3.34"/><line class="cls-2" x1="54.21" y1="3.34" x2="83.08" y2="32.64"/><line class="cls-2" x1="83.08" y1="32.64" x2="83.08" y2="48.52"/><path class="cls-2" d="M32.11,3.25a.28.28,0,0,1,0-.09c0-.94,4.92-1.7,11-1.7s11,.76,11,1.7a.32.32,0,0,1-.06.18c-.56.86-5.24,1.53-10.94,1.53C37.21,4.87,32.41,4.16,32.11,3.25Z"/></svg>
