<svg id="Layer_1" data-name="Layer 1" xmlns="http://www.w3.org/2000/svg" width="30mm" height="30mm" viewBox="0 0 85.04 85.04"><defs><style>.cls-1{fill:none;stroke:#353d47;stroke-miterlimit:10;stroke-width:2px;}</style></defs><title>twitter_footer</title><line class="cls-1" x1="36.7" y1="16.64" x2="45.61" y2="16.64"/><circle class="cls-1" cx="42.52" cy="41.45" r="37.34"/><line class="cls-1" x1="35.21" y1="34.07" x2="29.38" y2="34.07"/><line class="cls-1" x1="43.23" y1="34.07" x2="55.29" y2="34.07"/><line class="cls-1" x1="34.12" y1="34.97" x2="34.25" y2="59"/><line class="cls-1" x1="44.44" y1="34.12" x2="44.56" y2="56.88"/><line class="cls-1" x1="57.69" y1="55.81" x2="57.61" y2="63.59"/><line class="cls-1" x1="29.46" y1="26.4" x2="29.28" y2="35.19"/><line class="cls-1" x1="43.73" y1="26.93" x2="54.33" y2="26.93"/><line class="cls-1" x1="54.45" y1="34.07" x2="54.45" y2="26.26"/><line class="cls-1" x1="44.37" y1="27.39" x2="44.51" y2="16.64"/><path class="cls-1" d="M37.53,16.64c0,6-3.59,10.89-8,10.89"/><path class="cls-1" d="M34.25,59c0,3.65,4.38,6.59,9.8,6.59"/><path class="cls-1" d="M57.62,62.66c.5,2.13-7.43,2.93-13.57,2.93"/><path class="cls-1" d="M44.57,55.27c-.35,3,2.84,4.72,5.7,3.73"/><path class="cls-1" d="M57.69,55.81c.24,2.53-12.19,3.53-7.9,3.33"/></svg>
