<svg id="Layer_1" data-name="Layer 1" xmlns="http://www.w3.org/2000/svg" viewBox="0 0 24.34 24.5"><defs><style>.cls-1{fill:#72bf44;}.cls-2,.cls-3,.cls-4,.cls-6{fill:none;stroke:#28292c;stroke-miterlimit:10;}.cls-2,.cls-3{stroke-width:1.2px;}.cls-3,.cls-4{stroke-linecap:round;}.cls-5{fill:#28292c;}.cls-6{stroke-linecap:square;}</style></defs><title>Artboard 1</title><circle class="cls-1" cx="12.17" cy="12.17" r="12.17"/><line class="cls-2" x1="6.09" y1="19.83" x2="18.26" y2="19.7"/><line class="cls-2" x1="6.06" y1="17.27" x2="18.23" y2="17.14"/><path class="cls-3" d="M6.06,17.27c-3.77-3.95-4.18-8.8,1.18-7.06"/><path class="cls-3" d="M18.23,17.14c3.86-4.18,4.08-9.2-1.73-6.91"/><path class="cls-3" d="M11.38,17c-6-4.55-4.53-10.75.58-6.62"/><path class="cls-3" d="M12.57,17c5.85-4,4.59-10.52-.23-7"/><line class="cls-4" x1="11.96" y1="10.38" x2="11.98" y2="12"/><rect class="cls-5" x="10.76" y="11.9" width="2.42" height="2.42" transform="translate(-5.77 12.3) rotate(-45)"/><circle class="cls-4" cx="11.96" cy="6.72" r="1.19"/><line class="cls-6" x1="11.99" y1="2.59" x2="11.94" y2="5.32"/><line class="cls-6" x1="13.06" y1="3.66" x2="10.87" y2="3.66"/></svg>