<svg id="Layer_1" data-name="Layer 1" xmlns="http://www.w3.org/2000/svg" viewBox="0 0 180 32.91"><defs><style>.cls-1{font-size:14px;}.cls-1,.cls-3{fill:#fff;font-family:SafetyDemiBold, Safety;}.cls-2{letter-spacing:-0.02em;}.cls-3{font-size:28px;}.cls-4{letter-spacing:-0.01em;}.cls-5{letter-spacing:-0.1em;}.cls-6{fill:#72bf44;}.cls-11,.cls-7,.cls-8,.cls-9{fill:none;stroke:#28292c;stroke-miterlimit:10;}.cls-7,.cls-8{stroke-width:1.2px;}.cls-8,.cls-9{stroke-linecap:round;}.cls-10{fill:#28292c;}.cls-11{stroke-linecap:square;}</style></defs><title>logo</title><text class="cls-1" transform="translate(33.21 10.5)">Rådet <tspan class="cls-2" x="36.18" y="0">f</tspan><tspan x="40.52" y="0">or</tspan></text><text class="cls-3" transform="translate(32.21 32.03)">Sik<tspan class="cls-4" x="35.67" y="0">k</tspan><tspan x="48.69" y="0">er </tspan><tspan class="cls-5" x="78.85" y="0">T</tspan><tspan class="cls-2" x="90.61" y="0">r</tspan><tspan x="102.09" y="0">afik</tspan></text><circle class="cls-6" cx="12.17" cy="20.58" r="12.17"/><line class="cls-7" x1="6.09" y1="28.24" x2="18.26" y2="28.11"/><line class="cls-7" x1="6.06" y1="25.68" x2="18.23" y2="25.55"/><path class="cls-8" d="M6.06,25.68c-3.77-3.95-4.18-8.8,1.18-7.06"/><path class="cls-8" d="M18.23,25.55c3.86-4.18,4.08-9.2-1.73-6.91"/><path class="cls-8" d="M11.38,25.41c-6-4.55-4.53-10.75.58-6.62"/><path class="cls-8" d="M12.57,25.41c5.85-4,4.59-10.52-.23-7"/><line class="cls-9" x1="11.96" y1="18.79" x2="11.98" y2="20.41"/><rect class="cls-10" x="10.76" y="20.31" width="2.42" height="2.42" transform="translate(18.72 -2.16) rotate(45)"/><circle class="cls-9" cx="11.96" cy="15.13" r="1.19"/><line class="cls-11" x1="11.99" y1="11" x2="11.94" y2="13.73"/><line class="cls-11" x1="13.06" y1="12.07" x2="10.87" y2="12.07"/></svg>
